G04 #@! TF.GenerationSoftware,KiCad,Pcbnew,10.0.3*
G04 #@! TF.CreationDate,2026-06-04T16:16:28-06:00*
G04 #@! TF.ProjectId,portero-bot-v2,706f7274-6572-46f2-9d62-6f742d76322e,rev?*
G04 #@! TF.SameCoordinates,Original*
G04 #@! TF.FileFunction,Copper,L2,Bot*
G04 #@! TF.FilePolarity,Positive*
%FSLAX46Y46*%
G04 Gerber Fmt 4.6, Leading zero omitted, Abs format (unit mm)*
G04 Created by KiCad (PCBNEW 10.0.3) date 2026-06-04 16:16:28*
%MOMM*%
%LPD*%
G01*
G04 APERTURE LIST*
G04 Aperture macros list*
%AMRoundRect*
0 Rectangle with rounded corners*
0 $1 Rounding radius*
0 $2 $3 $4 $5 $6 $7 $8 $9 X,Y pos of 4 corners*
0 Add a 4 corners polygon primitive as box body*
4,1,4,$2,$3,$4,$5,$6,$7,$8,$9,$2,$3,0*
0 Add four circle primitives for the rounded corners*
1,1,$1+$1,$2,$3*
1,1,$1+$1,$4,$5*
1,1,$1+$1,$6,$7*
1,1,$1+$1,$8,$9*
0 Add four rect primitives between the rounded corners*
20,1,$1+$1,$2,$3,$4,$5,0*
20,1,$1+$1,$4,$5,$6,$7,0*
20,1,$1+$1,$6,$7,$8,$9,0*
20,1,$1+$1,$8,$9,$2,$3,0*%
G04 Aperture macros list end*
G04 #@! TA.AperFunction,ComponentPad*
%ADD10C,8.600000*%
G04 #@! TD*
G04 #@! TA.AperFunction,ComponentPad*
%ADD11R,1.050000X1.500000*%
G04 #@! TD*
G04 #@! TA.AperFunction,ComponentPad*
%ADD12O,1.050000X1.500000*%
G04 #@! TD*
G04 #@! TA.AperFunction,HeatsinkPad*
%ADD13C,0.600000*%
G04 #@! TD*
G04 #@! TA.AperFunction,ComponentPad*
%ADD14R,1.700000X1.700000*%
G04 #@! TD*
G04 #@! TA.AperFunction,ComponentPad*
%ADD15C,1.700000*%
G04 #@! TD*
G04 #@! TA.AperFunction,ComponentPad*
%ADD16RoundRect,0.250000X-0.550000X-0.550000X0.550000X-0.550000X0.550000X0.550000X-0.550000X0.550000X0*%
G04 #@! TD*
G04 #@! TA.AperFunction,ComponentPad*
%ADD17C,1.600000*%
G04 #@! TD*
G04 #@! TA.AperFunction,ComponentPad*
%ADD18RoundRect,0.250000X-1.050000X1.050000X-1.050000X-1.050000X1.050000X-1.050000X1.050000X1.050000X0*%
G04 #@! TD*
G04 #@! TA.AperFunction,ComponentPad*
%ADD19C,2.600000*%
G04 #@! TD*
G04 #@! TA.AperFunction,ComponentPad*
%ADD20C,3.000000*%
G04 #@! TD*
G04 #@! TA.AperFunction,ComponentPad*
%ADD21C,2.500000*%
G04 #@! TD*
G04 #@! TA.AperFunction,ComponentPad*
%ADD22RoundRect,0.210000X-0.210000X-0.210000X0.210000X-0.210000X0.210000X0.210000X-0.210000X0.210000X0*%
G04 #@! TD*
G04 #@! TA.AperFunction,ComponentPad*
%ADD23C,0.840000*%
G04 #@! TD*
G04 #@! TA.AperFunction,ComponentPad*
%ADD24O,0.850000X1.850000*%
G04 #@! TD*
G04 #@! TA.AperFunction,ComponentPad*
%ADD25RoundRect,0.250500X0.499500X-0.499500X0.499500X0.499500X-0.499500X0.499500X-0.499500X-0.499500X0*%
G04 #@! TD*
G04 #@! TA.AperFunction,ComponentPad*
%ADD26C,1.500000*%
G04 #@! TD*
G04 #@! TA.AperFunction,ComponentPad*
%ADD27R,3.500000X3.500000*%
G04 #@! TD*
G04 #@! TA.AperFunction,ComponentPad*
%ADD28RoundRect,0.750000X0.750000X1.000000X-0.750000X1.000000X-0.750000X-1.000000X0.750000X-1.000000X0*%
G04 #@! TD*
G04 #@! TA.AperFunction,ComponentPad*
%ADD29RoundRect,0.875000X0.875000X0.875000X-0.875000X0.875000X-0.875000X-0.875000X0.875000X-0.875000X0*%
G04 #@! TD*
G04 #@! TA.AperFunction,ViaPad*
%ADD30C,0.600000*%
G04 #@! TD*
G04 #@! TA.AperFunction,ViaPad*
%ADD31C,0.500000*%
G04 #@! TD*
G04 #@! TA.AperFunction,Conductor*
%ADD32C,0.250000*%
G04 #@! TD*
G04 #@! TA.AperFunction,Conductor*
%ADD33C,0.200000*%
G04 #@! TD*
G04 APERTURE END LIST*
D10*
X74500000Y-52000000D03*
D11*
X135445000Y-114700000D03*
D12*
X136715000Y-114700000D03*
X137985000Y-114700000D03*
D13*
X144045000Y-76212500D03*
X144045000Y-77737500D03*
X144807500Y-75450000D03*
X144807500Y-76975000D03*
X144807500Y-78500000D03*
X145570000Y-76212500D03*
X145570000Y-77737500D03*
X146332500Y-75450000D03*
X146332500Y-76975000D03*
X146332500Y-78500000D03*
X147095000Y-76212500D03*
X147095000Y-77737500D03*
D14*
X154545000Y-117570000D03*
D15*
X154545000Y-120110000D03*
X154545000Y-122650000D03*
X154545000Y-125190000D03*
D16*
X124265000Y-113490000D03*
D17*
X124265000Y-116030000D03*
X131885000Y-116030000D03*
X131885000Y-113490000D03*
D18*
X86000000Y-64280000D03*
D19*
X86000000Y-69360000D03*
D16*
X124265000Y-120130000D03*
D17*
X124265000Y-122670000D03*
X131885000Y-122670000D03*
X131885000Y-120130000D03*
D11*
X135445000Y-126280000D03*
D12*
X136715000Y-126280000D03*
X137985000Y-126280000D03*
D20*
X101350000Y-98900000D03*
D21*
X103300000Y-104950000D03*
D20*
X115500000Y-104950000D03*
X115550000Y-92900000D03*
D21*
X103300000Y-92950000D03*
D20*
X101350000Y-81950000D03*
D21*
X103300000Y-88000000D03*
D20*
X115500000Y-88000000D03*
X115550000Y-75950000D03*
D21*
X103300000Y-76000000D03*
D18*
X86000000Y-76500000D03*
D19*
X86000000Y-81580000D03*
D11*
X135445000Y-120490000D03*
D12*
X136715000Y-120490000D03*
X137985000Y-120490000D03*
D10*
X74500000Y-146500000D03*
D20*
X101350000Y-65000000D03*
D21*
X103300000Y-71050000D03*
D20*
X115500000Y-71050000D03*
X115550000Y-59000000D03*
D21*
X103300000Y-59050000D03*
D16*
X124265000Y-126770000D03*
D17*
X124265000Y-129310000D03*
X131885000Y-129310000D03*
X131885000Y-126770000D03*
D22*
X113400000Y-148000000D03*
D23*
X114050000Y-149000000D03*
X114700000Y-148000000D03*
X115350000Y-149000000D03*
X116000000Y-148000000D03*
D24*
X111125000Y-148220000D03*
X118275000Y-148220000D03*
D18*
X86000000Y-88720000D03*
D19*
X86000000Y-93800000D03*
D10*
X182000000Y-52000000D03*
D25*
X167740000Y-99815000D03*
D26*
X165200000Y-98555000D03*
X167740000Y-97275000D03*
X165200000Y-96015000D03*
X167740000Y-94735000D03*
X165200000Y-93475000D03*
X167740000Y-92195000D03*
X165200000Y-90935000D03*
X179000000Y-102000000D03*
X179000000Y-99460000D03*
X179000000Y-91290000D03*
X179000000Y-88750000D03*
D21*
X171050000Y-103120000D03*
X171050000Y-87630000D03*
D27*
X170500000Y-134457500D03*
D28*
X176500000Y-134457500D03*
D29*
X173500000Y-129757500D03*
D10*
X182000000Y-146500000D03*
D30*
X119644000Y-113685700D03*
X116928600Y-127724000D03*
X114575600Y-107534400D03*
D31*
X113500000Y-138500000D03*
D30*
X114601200Y-135883500D03*
D31*
X116000000Y-144500000D03*
D30*
X113968200Y-134476600D03*
X121925900Y-124365700D03*
X148475900Y-96076500D03*
X155130000Y-96078100D03*
X154087400Y-129734800D03*
X134455300Y-94264800D03*
X110687800Y-122797100D03*
X136347300Y-70905000D03*
X110687800Y-116276700D03*
X139250000Y-104326300D03*
X112242500Y-123946100D03*
X111936700Y-110786900D03*
X117900000Y-122740000D03*
X132990200Y-138000000D03*
X115171800Y-117051800D03*
X121955000Y-92962700D03*
X122258100Y-92149400D03*
X114293500Y-120230000D03*
X122923600Y-91235900D03*
X111016400Y-132904400D03*
X143589300Y-128900600D03*
X153099100Y-89546800D03*
X129547900Y-105403200D03*
X112655000Y-130438800D03*
X138425000Y-105403200D03*
X144776600Y-98854700D03*
X153636700Y-74715000D03*
X156178100Y-73445000D03*
X112655000Y-127893100D03*
X132055800Y-100750000D03*
X127700400Y-114355800D03*
X113412700Y-131666000D03*
X114306000Y-102588200D03*
X120231100Y-111688300D03*
X124808800Y-110633500D03*
X130401000Y-133274900D03*
X123602500Y-117886200D03*
X147283100Y-94920000D03*
X137253400Y-96386000D03*
X146886600Y-95540000D03*
X138481900Y-97234500D03*
X136998100Y-98784600D03*
X152572100Y-94544700D03*
X126496500Y-108484400D03*
X108754200Y-122024200D03*
X128805800Y-97154400D03*
X123069200Y-134297400D03*
X112470000Y-118553300D03*
X126301600Y-123620600D03*
X143779000Y-99201100D03*
X116570200Y-121988900D03*
X127623600Y-131599100D03*
X146038400Y-121254400D03*
X127623600Y-122799000D03*
X114503300Y-132855700D03*
X145550000Y-118000000D03*
X147770600Y-122684700D03*
D31*
X151500000Y-117500000D03*
X151309565Y-125190435D03*
X144000000Y-124500000D03*
X143500000Y-118000000D03*
D30*
X147770600Y-114721400D03*
X145550000Y-118000000D03*
X142293900Y-133169100D03*
X134539000Y-143175000D03*
X134539000Y-117611500D03*
X133569000Y-123181000D03*
X154087400Y-132764400D03*
X108861400Y-133920900D03*
X123252600Y-124913500D03*
X122612200Y-116113600D03*
X118656700Y-120068200D03*
X125774900Y-124732500D03*
X107154500Y-136204100D03*
D32*
X101350000Y-98900000D02*
X108227500Y-105777500D01*
D33*
X113500000Y-138500000D02*
X113500000Y-137064500D01*
D32*
X101350000Y-81950000D02*
X101350000Y-98900000D01*
D33*
X113500000Y-137064500D02*
X113460100Y-137024600D01*
D32*
X113460100Y-137024600D02*
X114601200Y-135883500D01*
X111207700Y-137024600D02*
X112775000Y-137024600D01*
X108314900Y-133341200D02*
X110074300Y-133341200D01*
X108314900Y-134131800D02*
X111207700Y-137024600D01*
X115081400Y-133084700D02*
X115081400Y-129571200D01*
X108227500Y-105777500D02*
X108227500Y-133253800D01*
X113256400Y-133434100D02*
X114732000Y-133434100D01*
X108227500Y-133253800D02*
X108314900Y-133341200D01*
X114575600Y-117201200D02*
X114956700Y-117582300D01*
X114956700Y-117582300D02*
X115747400Y-117582300D01*
X114575600Y-107534400D02*
X114575600Y-117201200D01*
X101350000Y-65000000D02*
X101350000Y-81950000D01*
X108314900Y-133341200D02*
X108314900Y-134131800D01*
X112904700Y-133785800D02*
X113256400Y-133434100D01*
X112775000Y-137024600D02*
X113460100Y-137024600D01*
X115081400Y-129571200D02*
X116928600Y-127724000D01*
X115747400Y-117582300D02*
X119644000Y-113685700D01*
X110518900Y-133785800D02*
X112904700Y-133785800D01*
X110074300Y-133341200D02*
X110518900Y-133785800D01*
X114732000Y-133434100D02*
X115081400Y-133084700D01*
X124265000Y-123894400D02*
X123793700Y-124365700D01*
X135445000Y-120490000D02*
X135445000Y-114700000D01*
X144045000Y-77737500D02*
X144045000Y-76212500D01*
X153468300Y-119033300D02*
X154545000Y-120110000D01*
X148475900Y-80643400D02*
X146332500Y-78500000D01*
X144807500Y-76975000D02*
X144807500Y-75450000D01*
X116614300Y-135883400D02*
X115375000Y-135883400D01*
X176500000Y-132757500D02*
X176500000Y-134457500D01*
X116000000Y-148000000D02*
X116000000Y-144500000D01*
X153468300Y-100511700D02*
X153468300Y-119033300D01*
X123187700Y-129310000D02*
X123187700Y-125723300D01*
X123187700Y-129310000D02*
X116614300Y-135883400D01*
X144045000Y-77737500D02*
X144807500Y-77737500D01*
X123793700Y-124365700D02*
X121925900Y-124365700D01*
X124265000Y-122670000D02*
X124265000Y-123894400D01*
X148475900Y-96076500D02*
X148475900Y-80643400D01*
X123187700Y-125723300D02*
X123793700Y-125117300D01*
X155130000Y-98850000D02*
X155130000Y-96078100D01*
X173500000Y-129757500D02*
X176500000Y-132757500D01*
X135445000Y-120490000D02*
X135445000Y-126280000D01*
X144807500Y-78500000D02*
X144807500Y-77737500D01*
X155130000Y-98850000D02*
X153468300Y-100511700D01*
X123793700Y-125117300D02*
X123793700Y-124365700D01*
X124265000Y-129310000D02*
X123187700Y-129310000D01*
X115375000Y-135883400D02*
X113968200Y-134476600D01*
X144807500Y-77737500D02*
X144807500Y-76975000D01*
X138760000Y-114720800D02*
X147539200Y-123500000D01*
X137985000Y-114700000D02*
X138760000Y-114700000D01*
D33*
X152000000Y-127500000D02*
X152019600Y-127519600D01*
D32*
X152019600Y-127980400D02*
X153774000Y-129734800D01*
D33*
X152019600Y-127519600D02*
X152019600Y-127980400D01*
X152000000Y-123500000D02*
X147539200Y-123500000D01*
D32*
X103300000Y-71050000D02*
X104008200Y-71050000D01*
X153774000Y-129734800D02*
X154087400Y-129734800D01*
X104008200Y-71050000D02*
X137898300Y-104940100D01*
X137898300Y-113613300D02*
X137985000Y-113700000D01*
D33*
X152000000Y-127500000D02*
X152000000Y-123500000D01*
D32*
X137985000Y-114700000D02*
X137985000Y-113700000D01*
X137898300Y-104940100D02*
X137898300Y-113613300D01*
X138760000Y-114700000D02*
X138760000Y-114720800D01*
X154545000Y-117570000D02*
X154545000Y-116470000D01*
X110687800Y-116276700D02*
X110687800Y-122797100D01*
X163515000Y-107500000D02*
X154545000Y-116470000D01*
X134455300Y-94264800D02*
X134455300Y-99531600D01*
X136347300Y-70905000D02*
X136347300Y-92372800D01*
X136347300Y-92372800D02*
X134455300Y-94264800D01*
X163515000Y-107500000D02*
X163515000Y-97700000D01*
X134455300Y-99531600D02*
X139250000Y-104326300D01*
X163515000Y-97700000D02*
X165200000Y-96015000D01*
X111936700Y-123640300D02*
X111936700Y-110786900D01*
X127010300Y-123417000D02*
X124777000Y-121183700D01*
X118325400Y-119541300D02*
X117900000Y-119966700D01*
X124777000Y-121183700D02*
X121890000Y-121183700D01*
X112242500Y-123946100D02*
X111936700Y-123640300D01*
X127010400Y-132020200D02*
X127010300Y-132020200D01*
X117900000Y-119966700D02*
X117900000Y-122740000D01*
X120247600Y-119541300D02*
X118325400Y-119541300D01*
X121890000Y-121183700D02*
X120247600Y-119541300D01*
X127010300Y-132020200D02*
X127010300Y-123417000D01*
X132990200Y-138000000D02*
X127010400Y-132020200D01*
X119064600Y-113159000D02*
X115171800Y-117051800D01*
X121955000Y-110709300D02*
X119505300Y-113159000D01*
X121955000Y-92962700D02*
X121955000Y-110709300D01*
X119505300Y-113159000D02*
X119064600Y-113159000D01*
X122010000Y-92149500D02*
X113770700Y-100388800D01*
X113770700Y-119707200D02*
X114293500Y-120230000D01*
X122258100Y-92149400D02*
X122258100Y-92149500D01*
X113770700Y-100388800D02*
X113770700Y-119707200D01*
X122258100Y-92149500D02*
X122010000Y-92149500D01*
X111214500Y-102447600D02*
X111214500Y-132706300D01*
X122923600Y-91235900D02*
X122426200Y-91235900D01*
X122426200Y-91235900D02*
X111214500Y-102447600D01*
X111214500Y-132706300D02*
X111016400Y-132904400D01*
X154674200Y-132992200D02*
X154674200Y-127709300D01*
X152392100Y-125427200D02*
X152392100Y-95469600D01*
X153099100Y-94762600D02*
X153099100Y-89546800D01*
X148009500Y-133320800D02*
X154345600Y-133320800D01*
X143589300Y-128900600D02*
X148009500Y-133320800D01*
X152392100Y-95469600D02*
X153099100Y-94762600D01*
X154674200Y-127709300D02*
X152392100Y-125427200D01*
X154345600Y-133320800D02*
X154674200Y-132992200D01*
X129547900Y-105403200D02*
X128796900Y-105403200D01*
X116141400Y-118928000D02*
X116141400Y-120180500D01*
X120875200Y-113324900D02*
X120875200Y-114194200D01*
X140856400Y-101378300D02*
X140856400Y-103508200D01*
X128796900Y-105403200D02*
X120875200Y-113324900D01*
X112655000Y-129088000D02*
X112655000Y-130438800D01*
X140856400Y-103508200D02*
X138961500Y-105403100D01*
X144776600Y-98854700D02*
X144574100Y-98652200D01*
X143582500Y-98652200D02*
X140856400Y-101378300D01*
X114153100Y-127589900D02*
X112655000Y-129088000D01*
X138425000Y-105403100D02*
X138425000Y-105403200D01*
X144574100Y-98652200D02*
X143582500Y-98652200D01*
X116141400Y-120180500D02*
X114153100Y-122168800D01*
X114153100Y-122168800D02*
X114153100Y-127589900D01*
X138961500Y-105403100D02*
X138425000Y-105403100D01*
X120875200Y-114194200D02*
X116141400Y-118928000D01*
X153636700Y-94722400D02*
X153636700Y-74715000D01*
X154545000Y-125190000D02*
X152764900Y-123409900D01*
X152764900Y-95594200D02*
X153636700Y-94722400D01*
X152764900Y-123409900D02*
X152764900Y-95594200D01*
X154545000Y-122650000D02*
X153116600Y-121221600D01*
X153116600Y-95739900D02*
X156178100Y-92678400D01*
X153116600Y-121221600D02*
X153116600Y-95739900D01*
X156178100Y-92678400D02*
X156178100Y-73445000D01*
X120523500Y-114048500D02*
X115318200Y-119253800D01*
X115318200Y-120506300D02*
X112769200Y-123055300D01*
X132055800Y-101646900D02*
X120523500Y-113179200D01*
X112769200Y-127778900D02*
X112655000Y-127893100D01*
X120523500Y-113179200D02*
X120523500Y-114048500D01*
X115318200Y-119253800D02*
X115318200Y-120506300D01*
X132055800Y-100750000D02*
X132055800Y-101646900D01*
X112769200Y-123055300D02*
X112769200Y-127778900D01*
X116844800Y-120471900D02*
X116844800Y-119425100D01*
X113978100Y-131100600D02*
X113978100Y-128934900D01*
X113412700Y-131666000D02*
X113978100Y-131100600D01*
X121737400Y-114532500D02*
X127523700Y-114532500D01*
X127523700Y-114532500D02*
X127700400Y-114355800D01*
X116844800Y-119425100D02*
X121737400Y-114532500D01*
X114856500Y-122460200D02*
X116844800Y-120471900D01*
X114856500Y-128056500D02*
X114856500Y-122460200D01*
X113978100Y-128934900D02*
X114856500Y-128056500D01*
X120231100Y-107171800D02*
X115647500Y-102588200D01*
X115647500Y-102588200D02*
X114306000Y-102588200D01*
X120231100Y-111688300D02*
X120231100Y-107171800D01*
X124808800Y-112946200D02*
X124808800Y-110633500D01*
X124265000Y-113490000D02*
X124808800Y-112946200D01*
X130401000Y-133274900D02*
X130401000Y-123927300D01*
X123998300Y-118282000D02*
X123602500Y-117886200D01*
X130401000Y-123927300D02*
X124755700Y-118282000D01*
X124755700Y-118282000D02*
X123998300Y-118282000D01*
X137253400Y-96386000D02*
X138719400Y-94920000D01*
X138719400Y-94920000D02*
X147283100Y-94920000D01*
X145192100Y-97234500D02*
X138481900Y-97234500D01*
X146886600Y-95540000D02*
X145192100Y-97234500D01*
X148816300Y-98300500D02*
X137482200Y-98300500D01*
X152572100Y-94544700D02*
X148816300Y-98300500D01*
X137482200Y-98300500D02*
X136998100Y-98784600D01*
X111264400Y-133434100D02*
X110798700Y-133434100D01*
X110798700Y-133434100D02*
X108754200Y-131389600D01*
X112886000Y-131812500D02*
X111264400Y-133434100D01*
X113626400Y-128789200D02*
X113626400Y-130707500D01*
X123997400Y-111667200D02*
X116493100Y-119171500D01*
X126213100Y-108484400D02*
X123997400Y-110700100D01*
X114504800Y-127910800D02*
X113626400Y-128789200D01*
X126496500Y-108484400D02*
X126213100Y-108484400D01*
X112886000Y-131447900D02*
X112886000Y-131812500D01*
X116493100Y-120326200D02*
X114504800Y-122314500D01*
X116493100Y-119171500D02*
X116493100Y-120326200D01*
X108754200Y-131389600D02*
X108754200Y-122024200D01*
X113626400Y-130707500D02*
X112886000Y-131447900D01*
X114504800Y-122314500D02*
X114504800Y-127910800D01*
X123997400Y-110700100D02*
X123997400Y-111667200D01*
X114966500Y-120340400D02*
X114520600Y-120786300D01*
X128805800Y-104399500D02*
X120171800Y-113033500D01*
X114966500Y-119108200D02*
X114966500Y-120340400D01*
X126301600Y-131065000D02*
X126301600Y-123620600D01*
X123069200Y-134297400D02*
X126301600Y-131065000D01*
X114520600Y-120786300D02*
X114034900Y-120786300D01*
X120171800Y-113902900D02*
X114966500Y-119108200D01*
X112470000Y-119221400D02*
X112470000Y-118553300D01*
X128805800Y-97154400D02*
X128805800Y-104399500D01*
X114034900Y-120786300D02*
X112470000Y-119221400D01*
X120171800Y-113033500D02*
X120171800Y-113902900D01*
X143779000Y-106000000D02*
X143779000Y-99201100D01*
D33*
X142000000Y-107779000D02*
X143779000Y-106000000D01*
D32*
X127623600Y-131599100D02*
X127623600Y-122799000D01*
X117548300Y-119781900D02*
X117548300Y-121010800D01*
D33*
X142000000Y-117216000D02*
X142000000Y-107779000D01*
D32*
X118239400Y-119090800D02*
X117548300Y-119781900D01*
D33*
X143779000Y-118995000D02*
X142000000Y-117216000D01*
D32*
X125067100Y-119090800D02*
X118239400Y-119090800D01*
X117548300Y-121010800D02*
X116570200Y-121988900D01*
X127623600Y-122799000D02*
X127623600Y-121647300D01*
X127623600Y-121647300D02*
X125067100Y-119090800D01*
X146038400Y-121254400D02*
X143779000Y-118995000D01*
X114503300Y-128907100D02*
X115208200Y-128202200D01*
X115208200Y-122605900D02*
X117196500Y-120617600D01*
X114503300Y-132855700D02*
X114503300Y-128907100D01*
X117196500Y-119622800D02*
X121913200Y-114906100D01*
X130468900Y-114906100D02*
X131885000Y-113490000D01*
X117196500Y-120617600D02*
X117196500Y-119622800D01*
X115208200Y-128202200D02*
X115208200Y-122605900D01*
X121913200Y-114906100D02*
X130468900Y-114906100D01*
X96310000Y-59050000D02*
X103300000Y-59050000D01*
X86000000Y-69360000D02*
X96310000Y-59050000D01*
D33*
X143500000Y-118000000D02*
X147278600Y-114221400D01*
D32*
X147770600Y-122684700D02*
X147770600Y-114721400D01*
D33*
X144690435Y-125190435D02*
X151309565Y-125190435D01*
X147278600Y-114221400D02*
X148221400Y-114221400D01*
D32*
X151000000Y-117000000D02*
X151500000Y-117500000D01*
D33*
X144000000Y-124500000D02*
X144690435Y-125190435D01*
X148221400Y-114221400D02*
X151000000Y-117000000D01*
D32*
X148221000Y-114221000D02*
X147771000Y-114721000D01*
X103300000Y-104950000D02*
X103300000Y-133341700D01*
X142293900Y-136256400D02*
X142293900Y-133169100D01*
X111708000Y-142543300D02*
X113007700Y-143843000D01*
X111708000Y-141749700D02*
X111708000Y-142543300D01*
X103300000Y-133341700D02*
X111708000Y-141749700D01*
X113007700Y-143843000D02*
X134707300Y-143843000D01*
X137985000Y-128860200D02*
X142293900Y-133169100D01*
X137985000Y-126280000D02*
X137985000Y-128860200D01*
X134707300Y-143843000D02*
X142293900Y-136256400D01*
X134539000Y-143175000D02*
X134539000Y-117611500D01*
X133569000Y-101108200D02*
X133569000Y-123181000D01*
X105775000Y-90475000D02*
X122935800Y-90475000D01*
X137985000Y-120490000D02*
X138760000Y-120490000D01*
X122935800Y-90475000D02*
X133569000Y-101108200D01*
X103300000Y-88000000D02*
X105775000Y-90475000D01*
X151034400Y-132764400D02*
X154087400Y-132764400D01*
X138760000Y-120490000D02*
X151034400Y-132764400D01*
X115557000Y-133106500D02*
X115557000Y-132609100D01*
X114742600Y-133920900D02*
X115557000Y-133106500D01*
X113267100Y-133920900D02*
X114742600Y-133920900D01*
X115557000Y-132609100D02*
X123252600Y-124913500D01*
X109078000Y-134137500D02*
X113050500Y-134137500D01*
X108861400Y-133920900D02*
X109078000Y-134137500D01*
X113050500Y-134137500D02*
X113267100Y-133920900D01*
X131885000Y-126770000D02*
X131885000Y-124913900D01*
X124428800Y-117930200D02*
X122612200Y-116113600D01*
X131885000Y-124913900D02*
X124901300Y-117930200D01*
X124901300Y-117930200D02*
X124428800Y-117930200D01*
X124608900Y-121561700D02*
X125295100Y-122247900D01*
X124265000Y-125497600D02*
X124265000Y-126770000D01*
X125295100Y-122247900D02*
X125295100Y-124467500D01*
X125295100Y-124467500D02*
X124265000Y-125497600D01*
X120150200Y-121561700D02*
X124608900Y-121561700D01*
X118656700Y-120068200D02*
X120150200Y-121561700D01*
X125774900Y-124732500D02*
X125774900Y-129487700D01*
X116324000Y-139000000D02*
X109950400Y-139000000D01*
X116324000Y-138938600D02*
X116324000Y-139000000D01*
X109950400Y-139000000D02*
X107154500Y-136204100D01*
X125774900Y-129487700D02*
X116324000Y-138938600D01*
M02*
