M48
METRIC
T1C0.200
T2C0.300
T3C0.350
T4C0.440
T5C0.750
T6C0.800
T7C0.890
T8C1.000
T9C1.020
T10C1.300
T11C1.630
T12C4.300
%
G90
G05
T1
X144.045Y-76.212
X144.045Y-77.737
X144.808Y-75.45
X144.808Y-76.975
X144.808Y-78.5
X145.57Y-76.212
X145.57Y-77.737
X146.332Y-75.45
X146.332Y-76.975
X146.332Y-78.5
X147.095Y-76.212
X147.095Y-77.737
T2
X107.154Y-136.204
X108.754Y-122.024
X108.861Y-133.921
X110.688Y-116.277
X110.688Y-122.797
X111.016Y-132.904
X111.937Y-110.787
X112.242Y-123.946
X112.47Y-118.553
X112.655Y-127.893
X112.655Y-130.439
X113.413Y-131.666
X113.5Y-138.5
X113.968Y-134.477
X114.293Y-120.23
X114.306Y-102.588
X114.503Y-132.856
X114.576Y-107.534
X114.601Y-135.883
X115.172Y-117.052
X116.0Y-144.5
X116.57Y-121.989
X116.929Y-127.724
X117.9Y-122.74
X118.657Y-120.068
X119.644Y-113.686
X120.231Y-111.688
X121.926Y-124.366
X121.955Y-92.963
X122.258Y-92.149
X122.612Y-116.114
X122.924Y-91.236
X123.069Y-134.297
X123.253Y-124.913
X123.602Y-117.886
X124.809Y-110.633
X125.775Y-124.732
X126.302Y-123.621
X126.496Y-108.484
X127.624Y-122.799
X127.624Y-131.599
X127.7Y-114.356
X128.806Y-97.154
X129.548Y-105.403
X130.401Y-133.275
X132.056Y-100.75
X132.99Y-138.0
X133.569Y-123.181
X134.455Y-94.265
X134.539Y-117.611
X134.539Y-143.175
X136.347Y-70.905
X136.998Y-98.785
X137.253Y-96.386
X138.425Y-105.403
X138.482Y-97.234
X139.25Y-104.326
X142.294Y-133.169
X143.5Y-118.0
X143.589Y-128.901
X143.779Y-99.201
X144.0Y-124.5
X144.777Y-98.855
X145.55Y-118.0
X145.55Y-118.0
X146.038Y-121.254
X146.887Y-95.54
X147.283Y-94.92
X147.771Y-114.721
X147.771Y-122.685
X148.476Y-96.076
X151.31Y-125.19
X151.5Y-117.5
X152.572Y-94.545
X153.099Y-89.547
X153.637Y-74.715
X154.087Y-129.735
X154.087Y-132.764
X155.13Y-96.078
X156.178Y-73.445
T4
X113.4Y-148.0
X114.05Y-149.0
X114.7Y-148.0
X115.35Y-149.0
X116.0Y-148.0
T5
X135.445Y-114.7
X135.445Y-120.49
X135.445Y-126.28
X136.715Y-114.7
X136.715Y-120.49
X136.715Y-126.28
X137.985Y-114.7
X137.985Y-120.49
X137.985Y-126.28
T6
X124.265Y-113.49
X124.265Y-116.03
X124.265Y-120.13
X124.265Y-122.67
X124.265Y-126.77
X124.265Y-129.31
X131.885Y-113.49
X131.885Y-116.03
X131.885Y-120.13
X131.885Y-122.67
X131.885Y-126.77
X131.885Y-129.31
T7
X165.2Y-90.935
X165.2Y-93.475
X165.2Y-96.015
X165.2Y-98.555
X167.74Y-92.195
X167.74Y-94.735
X167.74Y-97.275
X167.74Y-99.815
T8
X103.3Y-59.05
X103.3Y-71.05
X103.3Y-76.0
X103.3Y-88.0
X103.3Y-92.95
X103.3Y-104.95
X154.545Y-117.57
X154.545Y-120.11
X154.545Y-122.65
X154.545Y-125.19
T9
X179.0Y-88.75
X179.0Y-91.29
X179.0Y-99.46
X179.0Y-102.0
T10
X86.0Y-64.28
X86.0Y-69.36
X86.0Y-76.5
X86.0Y-81.58
X86.0Y-88.72
X86.0Y-93.8
X101.35Y-65.0
X101.35Y-81.95
X101.35Y-98.9
X115.5Y-71.05
X115.5Y-88.0
X115.5Y-104.95
X115.55Y-59.0
X115.55Y-75.95
X115.55Y-92.9
T11
X171.05Y-87.63
X171.05Y-103.12
T12
X74.5Y-52.0
X74.5Y-146.5
X182.0Y-52.0
X182.0Y-146.5
T3
X111.125Y-147.72G85X111.125Y-148.72
G05
X118.275Y-147.72G85X118.275Y-148.72
G05
T8
X170.5Y-135.457G85X170.5Y-133.457
G05
X174.5Y-129.757G85X172.5Y-129.757
G05
X176.5Y-135.457G85X176.5Y-133.457
G05
M30
