G04 #@! TF.GenerationSoftware,KiCad,Pcbnew,10.0.3*
G04 #@! TF.CreationDate,2026-06-04T16:16:28-06:00*
G04 #@! TF.ProjectId,portero-bot-v2,706f7274-6572-46f2-9d62-6f742d76322e,rev?*
G04 #@! TF.SameCoordinates,Original*
G04 #@! TF.FileFunction,Paste,Top*
G04 #@! TF.FilePolarity,Positive*
%FSLAX46Y46*%
G04 Gerber Fmt 4.6, Leading zero omitted, Abs format (unit mm)*
G04 Created by KiCad (PCBNEW 10.0.3) date 2026-06-04 16:16:28*
%MOMM*%
%LPD*%
G01*
G04 APERTURE LIST*
G04 Aperture macros list*
%AMRoundRect*
0 Rectangle with rounded corners*
0 $1 Rounding radius*
0 $2 $3 $4 $5 $6 $7 $8 $9 X,Y pos of 4 corners*
0 Add a 4 corners polygon primitive as box body*
4,1,4,$2,$3,$4,$5,$6,$7,$8,$9,$2,$3,0*
0 Add four circle primitives for the rounded corners*
1,1,$1+$1,$2,$3*
1,1,$1+$1,$4,$5*
1,1,$1+$1,$6,$7*
1,1,$1+$1,$8,$9*
0 Add four rect primitives between the rounded corners*
20,1,$1+$1,$2,$3,$4,$5,0*
20,1,$1+$1,$4,$5,$6,$7,0*
20,1,$1+$1,$6,$7,$8,$9,0*
20,1,$1+$1,$8,$9,$2,$3,0*%
G04 Aperture macros list end*
%ADD10RoundRect,0.250000X-0.325000X-1.100000X0.325000X-1.100000X0.325000X1.100000X-0.325000X1.100000X0*%
%ADD11R,1.500000X0.900000*%
%ADD12R,0.900000X1.500000*%
%ADD13R,1.050000X1.050000*%
%ADD14RoundRect,0.225000X-0.225000X-0.250000X0.225000X-0.250000X0.225000X0.250000X-0.225000X0.250000X0*%
%ADD15RoundRect,0.200000X-0.200000X-0.275000X0.200000X-0.275000X0.200000X0.275000X-0.200000X0.275000X0*%
%ADD16RoundRect,0.075000X-0.662500X-0.075000X0.662500X-0.075000X0.662500X0.075000X-0.662500X0.075000X0*%
%ADD17RoundRect,0.075000X-0.075000X-0.662500X0.075000X-0.662500X0.075000X0.662500X-0.075000X0.662500X0*%
%ADD18RoundRect,0.230000X-0.230000X-0.375000X0.230000X-0.375000X0.230000X0.375000X-0.230000X0.375000X0*%
%ADD19RoundRect,0.150000X-0.825000X-0.150000X0.825000X-0.150000X0.825000X0.150000X-0.825000X0.150000X0*%
%ADD20RoundRect,0.250000X-0.375000X-0.625000X0.375000X-0.625000X0.375000X0.625000X-0.375000X0.625000X0*%
%ADD21RoundRect,0.218750X-0.218750X-0.256250X0.218750X-0.256250X0.218750X0.256250X-0.218750X0.256250X0*%
%ADD22RoundRect,0.112500X-0.187500X-0.112500X0.187500X-0.112500X0.187500X0.112500X-0.187500X0.112500X0*%
%ADD23R,1.500000X2.400000*%
%ADD24RoundRect,0.250000X-1.000000X-0.650000X1.000000X-0.650000X1.000000X0.650000X-1.000000X0.650000X0*%
%ADD25RoundRect,0.200000X-0.200000X-0.800000X0.200000X-0.800000X0.200000X0.800000X-0.200000X0.800000X0*%
%ADD26RoundRect,0.250000X-0.450000X-0.350000X0.450000X-0.350000X0.450000X0.350000X-0.450000X0.350000X0*%
G04 APERTURE END LIST*
D10*
X98575000Y-113570000D03*
X101525000Y-113570000D03*
D11*
X137500000Y-69635000D03*
X137500000Y-70905000D03*
X137500000Y-72175000D03*
X137500000Y-73445000D03*
X137500000Y-74715000D03*
X137500000Y-75985000D03*
X137500000Y-77255000D03*
X137500000Y-78525000D03*
X137500000Y-79795000D03*
X137500000Y-81065000D03*
X137500000Y-82335000D03*
X137500000Y-83605000D03*
X137500000Y-84875000D03*
X137500000Y-86145000D03*
D12*
X140540000Y-87395000D03*
X141810000Y-87395000D03*
X143080000Y-87395000D03*
X144350000Y-87395000D03*
X145620000Y-87395000D03*
X146890000Y-87395000D03*
X148160000Y-87395000D03*
X149430000Y-87395000D03*
X150700000Y-87395000D03*
X151970000Y-87395000D03*
D11*
X155000000Y-86145000D03*
X155000000Y-84875000D03*
X155000000Y-83605000D03*
X155000000Y-82335000D03*
X155000000Y-81065000D03*
X155000000Y-79795000D03*
X155000000Y-78525000D03*
X155000000Y-77255000D03*
X155000000Y-75985000D03*
X155000000Y-74715000D03*
X155000000Y-73445000D03*
X155000000Y-72175000D03*
X155000000Y-70905000D03*
X155000000Y-69635000D03*
D13*
X144045000Y-75450000D03*
X144045000Y-76975000D03*
X144045000Y-78500000D03*
X145570000Y-75450000D03*
X145570000Y-76975000D03*
X145570000Y-78500000D03*
X147095000Y-75450000D03*
X147095000Y-76975000D03*
X147095000Y-78500000D03*
D14*
X111880000Y-112700000D03*
X113430000Y-112700000D03*
D15*
X111830000Y-127760000D03*
X113480000Y-127760000D03*
D10*
X99000000Y-130570000D03*
X101950000Y-130570000D03*
D15*
X115840000Y-115210000D03*
X117490000Y-115210000D03*
D14*
X107870000Y-115210000D03*
X109420000Y-115210000D03*
X107870000Y-132780000D03*
X109420000Y-132780000D03*
X107870000Y-117720000D03*
X109420000Y-117720000D03*
D15*
X119850000Y-120230000D03*
X121500000Y-120230000D03*
D16*
X133837500Y-96250000D03*
X133837500Y-96750000D03*
X133837500Y-97250000D03*
X133837500Y-97750000D03*
X133837500Y-98250000D03*
X133837500Y-98750000D03*
X133837500Y-99250000D03*
X133837500Y-99750000D03*
X133837500Y-100250000D03*
X133837500Y-100750000D03*
X133837500Y-101250000D03*
X133837500Y-101750000D03*
D17*
X135250000Y-103162500D03*
X135750000Y-103162500D03*
X136250000Y-103162500D03*
X136750000Y-103162500D03*
X137250000Y-103162500D03*
X137750000Y-103162500D03*
X138250000Y-103162500D03*
X138750000Y-103162500D03*
X139250000Y-103162500D03*
X139750000Y-103162500D03*
X140250000Y-103162500D03*
X140750000Y-103162500D03*
D16*
X142162500Y-101750000D03*
X142162500Y-101250000D03*
X142162500Y-100750000D03*
X142162500Y-100250000D03*
X142162500Y-99750000D03*
X142162500Y-99250000D03*
X142162500Y-98750000D03*
X142162500Y-98250000D03*
X142162500Y-97750000D03*
X142162500Y-97250000D03*
X142162500Y-96750000D03*
X142162500Y-96250000D03*
D17*
X140750000Y-94837500D03*
X140250000Y-94837500D03*
X139750000Y-94837500D03*
X139250000Y-94837500D03*
X138750000Y-94837500D03*
X138250000Y-94837500D03*
X137750000Y-94837500D03*
X137250000Y-94837500D03*
X136750000Y-94837500D03*
X136250000Y-94837500D03*
X135750000Y-94837500D03*
X135250000Y-94837500D03*
D15*
X115840000Y-130270000D03*
X117490000Y-130270000D03*
D10*
X98575000Y-117820000D03*
X101525000Y-117820000D03*
D18*
X147455000Y-117885000D03*
X147455000Y-119385000D03*
X148595000Y-117885000D03*
X148595000Y-119385000D03*
D19*
X145550000Y-116730000D03*
X145550000Y-118000000D03*
X145550000Y-119270000D03*
X145550000Y-120540000D03*
X150500000Y-120540000D03*
X150500000Y-119270000D03*
X150500000Y-118000000D03*
X150500000Y-116730000D03*
D14*
X107870000Y-127760000D03*
X109420000Y-127760000D03*
X107870000Y-112700000D03*
X109420000Y-112700000D03*
X107870000Y-122740000D03*
X109420000Y-122740000D03*
D20*
X146500000Y-110625000D03*
X149300000Y-110625000D03*
D15*
X115840000Y-132780000D03*
X117490000Y-132780000D03*
D14*
X107870000Y-125250000D03*
X109420000Y-125250000D03*
D21*
X79462500Y-124000000D03*
X81037500Y-124000000D03*
D22*
X153370000Y-132870000D03*
X155470000Y-132870000D03*
D23*
X77700000Y-107300000D03*
X83200000Y-107300000D03*
D14*
X107870000Y-130270000D03*
X109420000Y-130270000D03*
D23*
X77700000Y-115150000D03*
X83200000Y-115150000D03*
D24*
X141500000Y-144500000D03*
X145500000Y-144500000D03*
D15*
X119850000Y-112700000D03*
X121500000Y-112700000D03*
X119850000Y-117720000D03*
X121500000Y-117720000D03*
X111830000Y-122740000D03*
X113480000Y-122740000D03*
D22*
X153370000Y-129920000D03*
X155470000Y-129920000D03*
D15*
X119850000Y-115210000D03*
X121500000Y-115210000D03*
X111830000Y-130270000D03*
X113480000Y-130270000D03*
D14*
X111880000Y-120230000D03*
X113430000Y-120230000D03*
D15*
X111830000Y-132780000D03*
X113480000Y-132780000D03*
X115840000Y-120230000D03*
X117490000Y-120230000D03*
D14*
X111880000Y-117720000D03*
X113430000Y-117720000D03*
X111880000Y-115210000D03*
X113430000Y-115210000D03*
D25*
X134635000Y-132000000D03*
X138835000Y-132000000D03*
D10*
X98575000Y-122070000D03*
X101525000Y-122070000D03*
X98575000Y-134820000D03*
X101525000Y-134820000D03*
D19*
X145550000Y-129900000D03*
X145550000Y-131170000D03*
X145550000Y-132440000D03*
X145550000Y-133710000D03*
X145550000Y-134980000D03*
X145550000Y-136250000D03*
X145550000Y-137520000D03*
X145550000Y-138790000D03*
X150500000Y-138790000D03*
X150500000Y-137520000D03*
X150500000Y-136250000D03*
X150500000Y-134980000D03*
X150500000Y-133710000D03*
X150500000Y-132440000D03*
X150500000Y-131170000D03*
X150500000Y-129900000D03*
D21*
X79462500Y-132500000D03*
X81037500Y-132500000D03*
D15*
X119850000Y-122740000D03*
X121500000Y-122740000D03*
D10*
X98575000Y-126320000D03*
X101525000Y-126320000D03*
D24*
X128000000Y-144500000D03*
X132000000Y-144500000D03*
D26*
X124205000Y-134490000D03*
X126405000Y-134490000D03*
X126405000Y-132790000D03*
X124205000Y-132790000D03*
D25*
X134635000Y-138000000D03*
X138835000Y-138000000D03*
D18*
X147455000Y-124470000D03*
X147455000Y-125970000D03*
X148595000Y-124470000D03*
X148595000Y-125970000D03*
D19*
X145550000Y-123315000D03*
X145550000Y-124585000D03*
X145550000Y-125855000D03*
X145550000Y-127125000D03*
X150500000Y-127125000D03*
X150500000Y-125855000D03*
X150500000Y-124585000D03*
X150500000Y-123315000D03*
D15*
X115840000Y-117720000D03*
X117490000Y-117720000D03*
D22*
X153370000Y-135820000D03*
X155470000Y-135820000D03*
D14*
X107870000Y-120230000D03*
X109420000Y-120230000D03*
D15*
X119850000Y-127760000D03*
X121500000Y-127760000D03*
X111830000Y-125250000D03*
X113480000Y-125250000D03*
X115840000Y-112700000D03*
X117490000Y-112700000D03*
X119850000Y-125250000D03*
X121500000Y-125250000D03*
M02*
