G04 #@! TF.GenerationSoftware,KiCad,Pcbnew,10.0.3*
G04 #@! TF.CreationDate,2026-06-04T16:24:40-06:00*
G04 #@! TF.ProjectId,portero-bot-v2,706f7274-6572-46f2-9d62-6f742d76322e,rev?*
G04 #@! TF.SameCoordinates,Original*
G04 #@! TF.FileFunction,Soldermask,Top*
G04 #@! TF.FilePolarity,Negative*
%FSLAX46Y46*%
G04 Gerber Fmt 4.6, Leading zero omitted, Abs format (unit mm)*
G04 Created by KiCad (PCBNEW 10.0.3) date 2026-06-04 16:24:40*
%MOMM*%
%LPD*%
G01*
G04 APERTURE LIST*
G04 Aperture macros list*
%AMRoundRect*
0 Rectangle with rounded corners*
0 $1 Rounding radius*
0 $2 $3 $4 $5 $6 $7 $8 $9 X,Y pos of 4 corners*
0 Add a 4 corners polygon primitive as box body*
4,1,4,$2,$3,$4,$5,$6,$7,$8,$9,$2,$3,0*
0 Add four circle primitives for the rounded corners*
1,1,$1+$1,$2,$3*
1,1,$1+$1,$4,$5*
1,1,$1+$1,$6,$7*
1,1,$1+$1,$8,$9*
0 Add four rect primitives between the rounded corners*
20,1,$1+$1,$2,$3,$4,$5,0*
20,1,$1+$1,$4,$5,$6,$7,0*
20,1,$1+$1,$6,$7,$8,$9,0*
20,1,$1+$1,$8,$9,$2,$3,0*%
G04 Aperture macros list end*
%ADD10C,8.600000*%
%ADD11RoundRect,0.250000X-0.325000X-1.100000X0.325000X-1.100000X0.325000X1.100000X-0.325000X1.100000X0*%
%ADD12R,1.050000X1.500000*%
%ADD13O,1.050000X1.500000*%
%ADD14R,1.500000X0.900000*%
%ADD15R,0.900000X1.500000*%
%ADD16C,0.600000*%
%ADD17R,4.200000X4.200000*%
%ADD18RoundRect,0.225000X-0.225000X-0.250000X0.225000X-0.250000X0.225000X0.250000X-0.225000X0.250000X0*%
%ADD19R,1.700000X1.700000*%
%ADD20C,1.700000*%
%ADD21RoundRect,0.200000X-0.200000X-0.275000X0.200000X-0.275000X0.200000X0.275000X-0.200000X0.275000X0*%
%ADD22RoundRect,0.075000X-0.662500X-0.075000X0.662500X-0.075000X0.662500X0.075000X-0.662500X0.075000X0*%
%ADD23RoundRect,0.075000X-0.075000X-0.662500X0.075000X-0.662500X0.075000X0.662500X-0.075000X0.662500X0*%
%ADD24RoundRect,0.250000X-0.550000X-0.550000X0.550000X-0.550000X0.550000X0.550000X-0.550000X0.550000X0*%
%ADD25C,1.600000*%
%ADD26RoundRect,0.250000X-1.050000X1.050000X-1.050000X-1.050000X1.050000X-1.050000X1.050000X1.050000X0*%
%ADD27C,2.600000*%
%ADD28RoundRect,0.150000X-0.825000X-0.150000X0.825000X-0.150000X0.825000X0.150000X-0.825000X0.150000X0*%
%ADD29R,2.290000X3.000000*%
%ADD30RoundRect,0.250000X-0.375000X-0.625000X0.375000X-0.625000X0.375000X0.625000X-0.375000X0.625000X0*%
%ADD31RoundRect,0.218750X-0.218750X-0.256250X0.218750X-0.256250X0.218750X0.256250X-0.218750X0.256250X0*%
%ADD32C,3.000000*%
%ADD33C,2.500000*%
%ADD34RoundRect,0.112500X-0.187500X-0.112500X0.187500X-0.112500X0.187500X0.112500X-0.187500X0.112500X0*%
%ADD35R,1.500000X2.400000*%
%ADD36RoundRect,0.250000X-1.000000X-0.650000X1.000000X-0.650000X1.000000X0.650000X-1.000000X0.650000X0*%
%ADD37RoundRect,0.210000X-0.210000X-0.210000X0.210000X-0.210000X0.210000X0.210000X-0.210000X0.210000X0*%
%ADD38C,0.840000*%
%ADD39O,0.850000X1.850000*%
%ADD40RoundRect,0.200000X-0.200000X-0.800000X0.200000X-0.800000X0.200000X0.800000X-0.200000X0.800000X0*%
%ADD41C,3.250000*%
%ADD42RoundRect,0.250500X0.499500X-0.499500X0.499500X0.499500X-0.499500X0.499500X-0.499500X-0.499500X0*%
%ADD43C,1.500000*%
%ADD44R,3.500000X3.500000*%
%ADD45RoundRect,0.750000X0.750000X1.000000X-0.750000X1.000000X-0.750000X-1.000000X0.750000X-1.000000X0*%
%ADD46RoundRect,0.875000X0.875000X0.875000X-0.875000X0.875000X-0.875000X-0.875000X0.875000X-0.875000X0*%
%ADD47RoundRect,0.250000X-0.450000X-0.350000X0.450000X-0.350000X0.450000X0.350000X-0.450000X0.350000X0*%
G04 APERTURE END LIST*
D10*
X74500000Y-52000000D03*
D11*
X98575000Y-113570000D03*
X101525000Y-113570000D03*
D12*
X135445000Y-114700000D03*
D13*
X136715000Y-114700000D03*
X137985000Y-114700000D03*
D14*
X137500000Y-69635000D03*
X137500000Y-70905000D03*
X137500000Y-72175000D03*
X137500000Y-73445000D03*
X137500000Y-74715000D03*
X137500000Y-75985000D03*
X137500000Y-77255000D03*
X137500000Y-78525000D03*
X137500000Y-79795000D03*
X137500000Y-81065000D03*
X137500000Y-82335000D03*
X137500000Y-83605000D03*
X137500000Y-84875000D03*
X137500000Y-86145000D03*
D15*
X140540000Y-87395000D03*
X141810000Y-87395000D03*
X143080000Y-87395000D03*
X144350000Y-87395000D03*
X145620000Y-87395000D03*
X146890000Y-87395000D03*
X148160000Y-87395000D03*
X149430000Y-87395000D03*
X150700000Y-87395000D03*
X151970000Y-87395000D03*
D14*
X155000000Y-86145000D03*
X155000000Y-84875000D03*
X155000000Y-83605000D03*
X155000000Y-82335000D03*
X155000000Y-81065000D03*
X155000000Y-79795000D03*
X155000000Y-78525000D03*
X155000000Y-77255000D03*
X155000000Y-75985000D03*
X155000000Y-74715000D03*
X155000000Y-73445000D03*
X155000000Y-72175000D03*
X155000000Y-70905000D03*
X155000000Y-69635000D03*
D16*
X144045000Y-76212500D03*
X144045000Y-77737500D03*
X144807500Y-75450000D03*
X144807500Y-76975000D03*
X144807500Y-78500000D03*
X145570000Y-76212500D03*
D17*
X145570000Y-76975000D03*
D16*
X145570000Y-77737500D03*
X146332500Y-75450000D03*
X146332500Y-76975000D03*
X146332500Y-78500000D03*
X147095000Y-76212500D03*
X147095000Y-77737500D03*
D18*
X111880000Y-112700000D03*
X113430000Y-112700000D03*
D19*
X154545000Y-117570000D03*
D20*
X154545000Y-120110000D03*
X154545000Y-122650000D03*
X154545000Y-125190000D03*
D21*
X111830000Y-127760000D03*
X113480000Y-127760000D03*
D11*
X99000000Y-130570000D03*
X101950000Y-130570000D03*
D21*
X115840000Y-115210000D03*
X117490000Y-115210000D03*
D18*
X107870000Y-115210000D03*
X109420000Y-115210000D03*
X107870000Y-132780000D03*
X109420000Y-132780000D03*
X107870000Y-117720000D03*
X109420000Y-117720000D03*
D21*
X119850000Y-120230000D03*
X121500000Y-120230000D03*
D22*
X133837500Y-96250000D03*
X133837500Y-96750000D03*
X133837500Y-97250000D03*
X133837500Y-97750000D03*
X133837500Y-98250000D03*
X133837500Y-98750000D03*
X133837500Y-99250000D03*
X133837500Y-99750000D03*
X133837500Y-100250000D03*
X133837500Y-100750000D03*
X133837500Y-101250000D03*
X133837500Y-101750000D03*
D23*
X135250000Y-103162500D03*
X135750000Y-103162500D03*
X136250000Y-103162500D03*
X136750000Y-103162500D03*
X137250000Y-103162500D03*
X137750000Y-103162500D03*
X138250000Y-103162500D03*
X138750000Y-103162500D03*
X139250000Y-103162500D03*
X139750000Y-103162500D03*
X140250000Y-103162500D03*
X140750000Y-103162500D03*
D22*
X142162500Y-101750000D03*
X142162500Y-101250000D03*
X142162500Y-100750000D03*
X142162500Y-100250000D03*
X142162500Y-99750000D03*
X142162500Y-99250000D03*
X142162500Y-98750000D03*
X142162500Y-98250000D03*
X142162500Y-97750000D03*
X142162500Y-97250000D03*
X142162500Y-96750000D03*
X142162500Y-96250000D03*
D23*
X140750000Y-94837500D03*
X140250000Y-94837500D03*
X139750000Y-94837500D03*
X139250000Y-94837500D03*
X138750000Y-94837500D03*
X138250000Y-94837500D03*
X137750000Y-94837500D03*
X137250000Y-94837500D03*
X136750000Y-94837500D03*
X136250000Y-94837500D03*
X135750000Y-94837500D03*
X135250000Y-94837500D03*
D21*
X115840000Y-130270000D03*
X117490000Y-130270000D03*
D24*
X124265000Y-113490000D03*
D25*
X124265000Y-116030000D03*
X131885000Y-116030000D03*
X131885000Y-113490000D03*
D11*
X98575000Y-117820000D03*
X101525000Y-117820000D03*
D26*
X86000000Y-64280000D03*
D27*
X86000000Y-69360000D03*
D24*
X124265000Y-120130000D03*
D25*
X124265000Y-122670000D03*
X131885000Y-122670000D03*
X131885000Y-120130000D03*
D28*
X145550000Y-116730000D03*
X145550000Y-118000000D03*
X145550000Y-119270000D03*
X145550000Y-120540000D03*
X150500000Y-120540000D03*
X150500000Y-119270000D03*
X150500000Y-118000000D03*
X150500000Y-116730000D03*
D29*
X148025000Y-118635000D03*
D18*
X107870000Y-127760000D03*
X109420000Y-127760000D03*
D12*
X135445000Y-126280000D03*
D13*
X136715000Y-126280000D03*
X137985000Y-126280000D03*
D18*
X107870000Y-112700000D03*
X109420000Y-112700000D03*
X107870000Y-122740000D03*
X109420000Y-122740000D03*
D30*
X146500000Y-110625000D03*
X149300000Y-110625000D03*
D21*
X115840000Y-132780000D03*
X117490000Y-132780000D03*
D18*
X107870000Y-125250000D03*
X109420000Y-125250000D03*
D31*
X79462500Y-124000000D03*
X81037500Y-124000000D03*
D32*
X101350000Y-98900000D03*
D33*
X103300000Y-104950000D03*
D32*
X115500000Y-104950000D03*
X115550000Y-92900000D03*
D33*
X103300000Y-92950000D03*
D34*
X153370000Y-132870000D03*
X155470000Y-132870000D03*
D32*
X101350000Y-81950000D03*
D33*
X103300000Y-88000000D03*
D32*
X115500000Y-88000000D03*
X115550000Y-75950000D03*
D33*
X103300000Y-76000000D03*
D35*
X77700000Y-107300000D03*
X83200000Y-107300000D03*
D18*
X107870000Y-130270000D03*
X109420000Y-130270000D03*
D35*
X77700000Y-115150000D03*
X83200000Y-115150000D03*
D36*
X141500000Y-144500000D03*
X145500000Y-144500000D03*
D26*
X86000000Y-76500000D03*
D27*
X86000000Y-81580000D03*
D12*
X135445000Y-120490000D03*
D13*
X136715000Y-120490000D03*
X137985000Y-120490000D03*
D21*
X119850000Y-112700000D03*
X121500000Y-112700000D03*
X119850000Y-117720000D03*
X121500000Y-117720000D03*
X111830000Y-122740000D03*
X113480000Y-122740000D03*
D10*
X74500000Y-146500000D03*
D34*
X153370000Y-129920000D03*
X155470000Y-129920000D03*
D21*
X119850000Y-115210000D03*
X121500000Y-115210000D03*
X111830000Y-130270000D03*
X113480000Y-130270000D03*
D32*
X101350000Y-65000000D03*
D33*
X103300000Y-71050000D03*
D32*
X115500000Y-71050000D03*
X115550000Y-59000000D03*
D33*
X103300000Y-59050000D03*
D18*
X111880000Y-120230000D03*
X113430000Y-120230000D03*
D24*
X124265000Y-126770000D03*
D25*
X124265000Y-129310000D03*
X131885000Y-129310000D03*
X131885000Y-126770000D03*
D37*
X113400000Y-148000000D03*
D38*
X114050000Y-149000000D03*
X114700000Y-148000000D03*
X115350000Y-149000000D03*
X116000000Y-148000000D03*
D39*
X111125000Y-148220000D03*
X118275000Y-148220000D03*
D21*
X111830000Y-132780000D03*
X113480000Y-132780000D03*
D26*
X86000000Y-88720000D03*
D27*
X86000000Y-93800000D03*
D21*
X115840000Y-120230000D03*
X117490000Y-120230000D03*
D10*
X182000000Y-52000000D03*
D18*
X111880000Y-117720000D03*
X113430000Y-117720000D03*
X111880000Y-115210000D03*
X113430000Y-115210000D03*
D40*
X134635000Y-132000000D03*
X138835000Y-132000000D03*
D41*
X174100000Y-101090000D03*
X174100000Y-89660000D03*
D42*
X167740000Y-99815000D03*
D43*
X165200000Y-98555000D03*
X167740000Y-97275000D03*
X165200000Y-96015000D03*
X167740000Y-94735000D03*
X165200000Y-93475000D03*
X167740000Y-92195000D03*
X165200000Y-90935000D03*
X179000000Y-102000000D03*
X179000000Y-99460000D03*
X179000000Y-91290000D03*
X179000000Y-88750000D03*
D33*
X171050000Y-103120000D03*
X171050000Y-87630000D03*
D11*
X98575000Y-122070000D03*
X101525000Y-122070000D03*
D44*
X170500000Y-134457500D03*
D45*
X176500000Y-134457500D03*
D46*
X173500000Y-129757500D03*
D11*
X98575000Y-134820000D03*
X101525000Y-134820000D03*
D10*
X182000000Y-146500000D03*
D28*
X145550000Y-129900000D03*
X145550000Y-131170000D03*
X145550000Y-132440000D03*
X145550000Y-133710000D03*
X145550000Y-134980000D03*
X145550000Y-136250000D03*
X145550000Y-137520000D03*
X145550000Y-138790000D03*
X150500000Y-138790000D03*
X150500000Y-137520000D03*
X150500000Y-136250000D03*
X150500000Y-134980000D03*
X150500000Y-133710000D03*
X150500000Y-132440000D03*
X150500000Y-131170000D03*
X150500000Y-129900000D03*
D31*
X79462500Y-132500000D03*
X81037500Y-132500000D03*
D21*
X119850000Y-122740000D03*
X121500000Y-122740000D03*
D11*
X98575000Y-126320000D03*
X101525000Y-126320000D03*
D36*
X128000000Y-144500000D03*
X132000000Y-144500000D03*
D47*
X124205000Y-134490000D03*
X126405000Y-134490000D03*
X126405000Y-132790000D03*
X124205000Y-132790000D03*
D40*
X134635000Y-138000000D03*
X138835000Y-138000000D03*
D28*
X145550000Y-123315000D03*
X145550000Y-124585000D03*
X145550000Y-125855000D03*
X145550000Y-127125000D03*
X150500000Y-127125000D03*
X150500000Y-125855000D03*
X150500000Y-124585000D03*
X150500000Y-123315000D03*
D29*
X148025000Y-125220000D03*
D21*
X115840000Y-117720000D03*
X117490000Y-117720000D03*
D34*
X153370000Y-135820000D03*
X155470000Y-135820000D03*
D18*
X107870000Y-120230000D03*
X109420000Y-120230000D03*
D21*
X119850000Y-127760000D03*
X121500000Y-127760000D03*
X111830000Y-125250000D03*
X113480000Y-125250000D03*
X115840000Y-112700000D03*
X117490000Y-112700000D03*
X119850000Y-125250000D03*
X121500000Y-125250000D03*
M02*
