G04 #@! TF.GenerationSoftware,KiCad,Pcbnew,10.0.3*
G04 #@! TF.CreationDate,2026-06-04T16:24:40-06:00*
G04 #@! TF.ProjectId,portero-bot-v2,706f7274-6572-46f2-9d62-6f742d76322e,rev?*
G04 #@! TF.SameCoordinates,Original*
G04 #@! TF.FileFunction,Legend,Top*
G04 #@! TF.FilePolarity,Positive*
%FSLAX46Y46*%
G04 Gerber Fmt 4.6, Leading zero omitted, Abs format (unit mm)*
G04 Created by KiCad (PCBNEW 10.0.3) date 2026-06-04 16:24:40*
%MOMM*%
%LPD*%
G01*
G04 APERTURE LIST*
G04 Aperture macros list*
%AMRoundRect*
0 Rectangle with rounded corners*
0 $1 Rounding radius*
0 $2 $3 $4 $5 $6 $7 $8 $9 X,Y pos of 4 corners*
0 Add a 4 corners polygon primitive as box body*
4,1,4,$2,$3,$4,$5,$6,$7,$8,$9,$2,$3,0*
0 Add four circle primitives for the rounded corners*
1,1,$1+$1,$2,$3*
1,1,$1+$1,$4,$5*
1,1,$1+$1,$6,$7*
1,1,$1+$1,$8,$9*
0 Add four rect primitives between the rounded corners*
20,1,$1+$1,$2,$3,$4,$5,0*
20,1,$1+$1,$4,$5,$6,$7,0*
20,1,$1+$1,$6,$7,$8,$9,0*
20,1,$1+$1,$8,$9,$2,$3,0*%
G04 Aperture macros list end*
%ADD10C,0.150000*%
%ADD11C,0.200000*%
%ADD12C,0.120000*%
%ADD13C,8.600000*%
%ADD14RoundRect,0.250000X-0.325000X-1.100000X0.325000X-1.100000X0.325000X1.100000X-0.325000X1.100000X0*%
%ADD15R,1.050000X1.500000*%
%ADD16O,1.050000X1.500000*%
%ADD17R,1.500000X0.900000*%
%ADD18R,0.900000X1.500000*%
%ADD19C,0.600000*%
%ADD20R,4.200000X4.200000*%
%ADD21RoundRect,0.225000X-0.225000X-0.250000X0.225000X-0.250000X0.225000X0.250000X-0.225000X0.250000X0*%
%ADD22R,1.700000X1.700000*%
%ADD23C,1.700000*%
%ADD24RoundRect,0.200000X-0.200000X-0.275000X0.200000X-0.275000X0.200000X0.275000X-0.200000X0.275000X0*%
%ADD25RoundRect,0.075000X-0.662500X-0.075000X0.662500X-0.075000X0.662500X0.075000X-0.662500X0.075000X0*%
%ADD26RoundRect,0.075000X-0.075000X-0.662500X0.075000X-0.662500X0.075000X0.662500X-0.075000X0.662500X0*%
%ADD27RoundRect,0.250000X-0.550000X-0.550000X0.550000X-0.550000X0.550000X0.550000X-0.550000X0.550000X0*%
%ADD28C,1.600000*%
%ADD29RoundRect,0.250000X-1.050000X1.050000X-1.050000X-1.050000X1.050000X-1.050000X1.050000X1.050000X0*%
%ADD30C,2.600000*%
%ADD31RoundRect,0.150000X-0.825000X-0.150000X0.825000X-0.150000X0.825000X0.150000X-0.825000X0.150000X0*%
%ADD32R,2.290000X3.000000*%
%ADD33RoundRect,0.250000X-0.375000X-0.625000X0.375000X-0.625000X0.375000X0.625000X-0.375000X0.625000X0*%
%ADD34RoundRect,0.218750X-0.218750X-0.256250X0.218750X-0.256250X0.218750X0.256250X-0.218750X0.256250X0*%
%ADD35C,3.000000*%
%ADD36C,2.500000*%
%ADD37RoundRect,0.112500X-0.187500X-0.112500X0.187500X-0.112500X0.187500X0.112500X-0.187500X0.112500X0*%
%ADD38R,1.500000X2.400000*%
%ADD39RoundRect,0.250000X-1.000000X-0.650000X1.000000X-0.650000X1.000000X0.650000X-1.000000X0.650000X0*%
%ADD40RoundRect,0.210000X-0.210000X-0.210000X0.210000X-0.210000X0.210000X0.210000X-0.210000X0.210000X0*%
%ADD41C,0.840000*%
%ADD42O,0.850000X1.850000*%
%ADD43RoundRect,0.200000X-0.200000X-0.800000X0.200000X-0.800000X0.200000X0.800000X-0.200000X0.800000X0*%
%ADD44C,3.250000*%
%ADD45RoundRect,0.250500X0.499500X-0.499500X0.499500X0.499500X-0.499500X0.499500X-0.499500X-0.499500X0*%
%ADD46C,1.500000*%
%ADD47R,3.500000X3.500000*%
%ADD48RoundRect,0.750000X0.750000X1.000000X-0.750000X1.000000X-0.750000X-1.000000X0.750000X-1.000000X0*%
%ADD49RoundRect,0.875000X0.875000X0.875000X-0.875000X0.875000X-0.875000X-0.875000X0.875000X-0.875000X0*%
%ADD50RoundRect,0.250000X-0.450000X-0.350000X0.450000X-0.350000X0.450000X0.350000X-0.450000X0.350000X0*%
G04 APERTURE END LIST*
D10*
X129547618Y-132954819D02*
X129214285Y-132478628D01*
X128976190Y-132954819D02*
X128976190Y-131954819D01*
X128976190Y-131954819D02*
X129357142Y-131954819D01*
X129357142Y-131954819D02*
X129452380Y-132002438D01*
X129452380Y-132002438D02*
X129499999Y-132050057D01*
X129499999Y-132050057D02*
X129547618Y-132145295D01*
X129547618Y-132145295D02*
X129547618Y-132288152D01*
X129547618Y-132288152D02*
X129499999Y-132383390D01*
X129499999Y-132383390D02*
X129452380Y-132431009D01*
X129452380Y-132431009D02*
X129357142Y-132478628D01*
X129357142Y-132478628D02*
X128976190Y-132478628D01*
X129976190Y-132431009D02*
X130309523Y-132431009D01*
X130452380Y-132954819D02*
X129976190Y-132954819D01*
X129976190Y-132954819D02*
X129976190Y-131954819D01*
X129976190Y-131954819D02*
X130452380Y-131954819D01*
X130833333Y-132907200D02*
X130976190Y-132954819D01*
X130976190Y-132954819D02*
X131214285Y-132954819D01*
X131214285Y-132954819D02*
X131309523Y-132907200D01*
X131309523Y-132907200D02*
X131357142Y-132859580D01*
X131357142Y-132859580D02*
X131404761Y-132764342D01*
X131404761Y-132764342D02*
X131404761Y-132669104D01*
X131404761Y-132669104D02*
X131357142Y-132573866D01*
X131357142Y-132573866D02*
X131309523Y-132526247D01*
X131309523Y-132526247D02*
X131214285Y-132478628D01*
X131214285Y-132478628D02*
X131023809Y-132431009D01*
X131023809Y-132431009D02*
X130928571Y-132383390D01*
X130928571Y-132383390D02*
X130880952Y-132335771D01*
X130880952Y-132335771D02*
X130833333Y-132240533D01*
X130833333Y-132240533D02*
X130833333Y-132145295D01*
X130833333Y-132145295D02*
X130880952Y-132050057D01*
X130880952Y-132050057D02*
X130928571Y-132002438D01*
X130928571Y-132002438D02*
X131023809Y-131954819D01*
X131023809Y-131954819D02*
X131261904Y-131954819D01*
X131261904Y-131954819D02*
X131404761Y-132002438D01*
X131833333Y-132431009D02*
X132166666Y-132431009D01*
X132309523Y-132954819D02*
X131833333Y-132954819D01*
X131833333Y-132954819D02*
X131833333Y-131954819D01*
X131833333Y-131954819D02*
X132309523Y-131954819D01*
X132595238Y-131954819D02*
X133166666Y-131954819D01*
X132880952Y-132954819D02*
X132880952Y-131954819D01*
X130642857Y-137931009D02*
X130785714Y-137978628D01*
X130785714Y-137978628D02*
X130833333Y-138026247D01*
X130833333Y-138026247D02*
X130880952Y-138121485D01*
X130880952Y-138121485D02*
X130880952Y-138264342D01*
X130880952Y-138264342D02*
X130833333Y-138359580D01*
X130833333Y-138359580D02*
X130785714Y-138407200D01*
X130785714Y-138407200D02*
X130690476Y-138454819D01*
X130690476Y-138454819D02*
X130309524Y-138454819D01*
X130309524Y-138454819D02*
X130309524Y-137454819D01*
X130309524Y-137454819D02*
X130642857Y-137454819D01*
X130642857Y-137454819D02*
X130738095Y-137502438D01*
X130738095Y-137502438D02*
X130785714Y-137550057D01*
X130785714Y-137550057D02*
X130833333Y-137645295D01*
X130833333Y-137645295D02*
X130833333Y-137740533D01*
X130833333Y-137740533D02*
X130785714Y-137835771D01*
X130785714Y-137835771D02*
X130738095Y-137883390D01*
X130738095Y-137883390D02*
X130642857Y-137931009D01*
X130642857Y-137931009D02*
X130309524Y-137931009D01*
X131500000Y-137454819D02*
X131690476Y-137454819D01*
X131690476Y-137454819D02*
X131785714Y-137502438D01*
X131785714Y-137502438D02*
X131880952Y-137597676D01*
X131880952Y-137597676D02*
X131928571Y-137788152D01*
X131928571Y-137788152D02*
X131928571Y-138121485D01*
X131928571Y-138121485D02*
X131880952Y-138311961D01*
X131880952Y-138311961D02*
X131785714Y-138407200D01*
X131785714Y-138407200D02*
X131690476Y-138454819D01*
X131690476Y-138454819D02*
X131500000Y-138454819D01*
X131500000Y-138454819D02*
X131404762Y-138407200D01*
X131404762Y-138407200D02*
X131309524Y-138311961D01*
X131309524Y-138311961D02*
X131261905Y-138121485D01*
X131261905Y-138121485D02*
X131261905Y-137788152D01*
X131261905Y-137788152D02*
X131309524Y-137597676D01*
X131309524Y-137597676D02*
X131404762Y-137502438D01*
X131404762Y-137502438D02*
X131500000Y-137454819D01*
X132547619Y-137454819D02*
X132738095Y-137454819D01*
X132738095Y-137454819D02*
X132833333Y-137502438D01*
X132833333Y-137502438D02*
X132928571Y-137597676D01*
X132928571Y-137597676D02*
X132976190Y-137788152D01*
X132976190Y-137788152D02*
X132976190Y-138121485D01*
X132976190Y-138121485D02*
X132928571Y-138311961D01*
X132928571Y-138311961D02*
X132833333Y-138407200D01*
X132833333Y-138407200D02*
X132738095Y-138454819D01*
X132738095Y-138454819D02*
X132547619Y-138454819D01*
X132547619Y-138454819D02*
X132452381Y-138407200D01*
X132452381Y-138407200D02*
X132357143Y-138311961D01*
X132357143Y-138311961D02*
X132309524Y-138121485D01*
X132309524Y-138121485D02*
X132309524Y-137788152D01*
X132309524Y-137788152D02*
X132357143Y-137597676D01*
X132357143Y-137597676D02*
X132452381Y-137502438D01*
X132452381Y-137502438D02*
X132547619Y-137454819D01*
X133261905Y-137454819D02*
X133833333Y-137454819D01*
X133547619Y-138454819D02*
X133547619Y-137454819D01*
X73954819Y-126663220D02*
X72954819Y-126663220D01*
X72954819Y-126663220D02*
X72954819Y-126282268D01*
X72954819Y-126282268D02*
X73002438Y-126187030D01*
X73002438Y-126187030D02*
X73050057Y-126139411D01*
X73050057Y-126139411D02*
X73145295Y-126091792D01*
X73145295Y-126091792D02*
X73288152Y-126091792D01*
X73288152Y-126091792D02*
X73383390Y-126139411D01*
X73383390Y-126139411D02*
X73431009Y-126187030D01*
X73431009Y-126187030D02*
X73478628Y-126282268D01*
X73478628Y-126282268D02*
X73478628Y-126663220D01*
X72954819Y-125758458D02*
X73954819Y-125520363D01*
X73954819Y-125520363D02*
X73240533Y-125329887D01*
X73240533Y-125329887D02*
X73954819Y-125139411D01*
X73954819Y-125139411D02*
X72954819Y-124901316D01*
X73954819Y-123948935D02*
X73478628Y-124282268D01*
X73954819Y-124520363D02*
X72954819Y-124520363D01*
X72954819Y-124520363D02*
X72954819Y-124139411D01*
X72954819Y-124139411D02*
X73002438Y-124044173D01*
X73002438Y-124044173D02*
X73050057Y-123996554D01*
X73050057Y-123996554D02*
X73145295Y-123948935D01*
X73145295Y-123948935D02*
X73288152Y-123948935D01*
X73288152Y-123948935D02*
X73383390Y-123996554D01*
X73383390Y-123996554D02*
X73431009Y-124044173D01*
X73431009Y-124044173D02*
X73478628Y-124139411D01*
X73478628Y-124139411D02*
X73478628Y-124520363D01*
X72954819Y-122853696D02*
X72954819Y-122234649D01*
X72954819Y-122234649D02*
X73335771Y-122567982D01*
X73335771Y-122567982D02*
X73335771Y-122425125D01*
X73335771Y-122425125D02*
X73383390Y-122329887D01*
X73383390Y-122329887D02*
X73431009Y-122282268D01*
X73431009Y-122282268D02*
X73526247Y-122234649D01*
X73526247Y-122234649D02*
X73764342Y-122234649D01*
X73764342Y-122234649D02*
X73859580Y-122282268D01*
X73859580Y-122282268D02*
X73907200Y-122329887D01*
X73907200Y-122329887D02*
X73954819Y-122425125D01*
X73954819Y-122425125D02*
X73954819Y-122710839D01*
X73954819Y-122710839D02*
X73907200Y-122806077D01*
X73907200Y-122806077D02*
X73859580Y-122853696D01*
X72954819Y-121948934D02*
X73954819Y-121615601D01*
X73954819Y-121615601D02*
X72954819Y-121282268D01*
X72954819Y-121044172D02*
X72954819Y-120425125D01*
X72954819Y-120425125D02*
X73335771Y-120758458D01*
X73335771Y-120758458D02*
X73335771Y-120615601D01*
X73335771Y-120615601D02*
X73383390Y-120520363D01*
X73383390Y-120520363D02*
X73431009Y-120472744D01*
X73431009Y-120472744D02*
X73526247Y-120425125D01*
X73526247Y-120425125D02*
X73764342Y-120425125D01*
X73764342Y-120425125D02*
X73859580Y-120472744D01*
X73859580Y-120472744D02*
X73907200Y-120520363D01*
X73907200Y-120520363D02*
X73954819Y-120615601D01*
X73954819Y-120615601D02*
X73954819Y-120901315D01*
X73954819Y-120901315D02*
X73907200Y-120996553D01*
X73907200Y-120996553D02*
X73859580Y-121044172D01*
X73954819Y-135163220D02*
X72954819Y-135163220D01*
X72954819Y-135163220D02*
X72954819Y-134782268D01*
X72954819Y-134782268D02*
X73002438Y-134687030D01*
X73002438Y-134687030D02*
X73050057Y-134639411D01*
X73050057Y-134639411D02*
X73145295Y-134591792D01*
X73145295Y-134591792D02*
X73288152Y-134591792D01*
X73288152Y-134591792D02*
X73383390Y-134639411D01*
X73383390Y-134639411D02*
X73431009Y-134687030D01*
X73431009Y-134687030D02*
X73478628Y-134782268D01*
X73478628Y-134782268D02*
X73478628Y-135163220D01*
X72954819Y-134258458D02*
X73954819Y-134020363D01*
X73954819Y-134020363D02*
X73240533Y-133829887D01*
X73240533Y-133829887D02*
X73954819Y-133639411D01*
X73954819Y-133639411D02*
X72954819Y-133401316D01*
X73954819Y-132448935D02*
X73478628Y-132782268D01*
X73954819Y-133020363D02*
X72954819Y-133020363D01*
X72954819Y-133020363D02*
X72954819Y-132639411D01*
X72954819Y-132639411D02*
X73002438Y-132544173D01*
X73002438Y-132544173D02*
X73050057Y-132496554D01*
X73050057Y-132496554D02*
X73145295Y-132448935D01*
X73145295Y-132448935D02*
X73288152Y-132448935D01*
X73288152Y-132448935D02*
X73383390Y-132496554D01*
X73383390Y-132496554D02*
X73431009Y-132544173D01*
X73431009Y-132544173D02*
X73478628Y-132639411D01*
X73478628Y-132639411D02*
X73478628Y-133020363D01*
X72954819Y-130782268D02*
X72954819Y-131258458D01*
X72954819Y-131258458D02*
X73431009Y-131306077D01*
X73431009Y-131306077D02*
X73383390Y-131258458D01*
X73383390Y-131258458D02*
X73335771Y-131163220D01*
X73335771Y-131163220D02*
X73335771Y-130925125D01*
X73335771Y-130925125D02*
X73383390Y-130829887D01*
X73383390Y-130829887D02*
X73431009Y-130782268D01*
X73431009Y-130782268D02*
X73526247Y-130734649D01*
X73526247Y-130734649D02*
X73764342Y-130734649D01*
X73764342Y-130734649D02*
X73859580Y-130782268D01*
X73859580Y-130782268D02*
X73907200Y-130829887D01*
X73907200Y-130829887D02*
X73954819Y-130925125D01*
X73954819Y-130925125D02*
X73954819Y-131163220D01*
X73954819Y-131163220D02*
X73907200Y-131258458D01*
X73907200Y-131258458D02*
X73859580Y-131306077D01*
X72954819Y-130448934D02*
X73954819Y-130115601D01*
X73954819Y-130115601D02*
X72954819Y-129782268D01*
D11*
X76916171Y-70571427D02*
X76916171Y-70171427D01*
X77544742Y-69999999D02*
X77544742Y-70571427D01*
X77544742Y-70571427D02*
X76344742Y-70571427D01*
X76344742Y-70571427D02*
X76344742Y-69999999D01*
X77544742Y-69485713D02*
X76344742Y-69485713D01*
X76344742Y-69485713D02*
X77544742Y-68799999D01*
X77544742Y-68799999D02*
X76344742Y-68799999D01*
X76344742Y-68399999D02*
X76344742Y-67714285D01*
X77544742Y-68057142D02*
X76344742Y-68057142D01*
X77544742Y-66628570D02*
X76973314Y-67028570D01*
X77544742Y-67314284D02*
X76344742Y-67314284D01*
X76344742Y-67314284D02*
X76344742Y-66857141D01*
X76344742Y-66857141D02*
X76401885Y-66742856D01*
X76401885Y-66742856D02*
X76459028Y-66685713D01*
X76459028Y-66685713D02*
X76573314Y-66628570D01*
X76573314Y-66628570D02*
X76744742Y-66628570D01*
X76744742Y-66628570D02*
X76859028Y-66685713D01*
X76859028Y-66685713D02*
X76916171Y-66742856D01*
X76916171Y-66742856D02*
X76973314Y-66857141D01*
X76973314Y-66857141D02*
X76973314Y-67314284D01*
X77201885Y-66171427D02*
X77201885Y-65599999D01*
X77544742Y-66285713D02*
X76344742Y-65885713D01*
X76344742Y-65885713D02*
X77544742Y-65485713D01*
X77544742Y-65085713D02*
X76344742Y-65085713D01*
X76344742Y-65085713D02*
X76344742Y-64799999D01*
X76344742Y-64799999D02*
X76401885Y-64628570D01*
X76401885Y-64628570D02*
X76516171Y-64514285D01*
X76516171Y-64514285D02*
X76630457Y-64457142D01*
X76630457Y-64457142D02*
X76859028Y-64399999D01*
X76859028Y-64399999D02*
X77030457Y-64399999D01*
X77030457Y-64399999D02*
X77259028Y-64457142D01*
X77259028Y-64457142D02*
X77373314Y-64514285D01*
X77373314Y-64514285D02*
X77487600Y-64628570D01*
X77487600Y-64628570D02*
X77544742Y-64799999D01*
X77544742Y-64799999D02*
X77544742Y-65085713D01*
X77201885Y-63942856D02*
X77201885Y-63371428D01*
X77544742Y-64057142D02*
X76344742Y-63657142D01*
X76344742Y-63657142D02*
X77544742Y-63257142D01*
X77487600Y-81242856D02*
X77544742Y-81071428D01*
X77544742Y-81071428D02*
X77544742Y-80785713D01*
X77544742Y-80785713D02*
X77487600Y-80671428D01*
X77487600Y-80671428D02*
X77430457Y-80614285D01*
X77430457Y-80614285D02*
X77316171Y-80557142D01*
X77316171Y-80557142D02*
X77201885Y-80557142D01*
X77201885Y-80557142D02*
X77087600Y-80614285D01*
X77087600Y-80614285D02*
X77030457Y-80671428D01*
X77030457Y-80671428D02*
X76973314Y-80785713D01*
X76973314Y-80785713D02*
X76916171Y-81014285D01*
X76916171Y-81014285D02*
X76859028Y-81128570D01*
X76859028Y-81128570D02*
X76801885Y-81185713D01*
X76801885Y-81185713D02*
X76687600Y-81242856D01*
X76687600Y-81242856D02*
X76573314Y-81242856D01*
X76573314Y-81242856D02*
X76459028Y-81185713D01*
X76459028Y-81185713D02*
X76401885Y-81128570D01*
X76401885Y-81128570D02*
X76344742Y-81014285D01*
X76344742Y-81014285D02*
X76344742Y-80728570D01*
X76344742Y-80728570D02*
X76401885Y-80557142D01*
X77201885Y-80099999D02*
X77201885Y-79528571D01*
X77544742Y-80214285D02*
X76344742Y-79814285D01*
X76344742Y-79814285D02*
X77544742Y-79414285D01*
X77544742Y-78442857D02*
X77544742Y-79014285D01*
X77544742Y-79014285D02*
X76344742Y-79014285D01*
X77544742Y-78042856D02*
X76344742Y-78042856D01*
X77544742Y-77471427D02*
X76344742Y-77471427D01*
X76344742Y-77471427D02*
X76344742Y-77185713D01*
X76344742Y-77185713D02*
X76401885Y-77014284D01*
X76401885Y-77014284D02*
X76516171Y-76899999D01*
X76516171Y-76899999D02*
X76630457Y-76842856D01*
X76630457Y-76842856D02*
X76859028Y-76785713D01*
X76859028Y-76785713D02*
X77030457Y-76785713D01*
X77030457Y-76785713D02*
X77259028Y-76842856D01*
X77259028Y-76842856D02*
X77373314Y-76899999D01*
X77373314Y-76899999D02*
X77487600Y-77014284D01*
X77487600Y-77014284D02*
X77544742Y-77185713D01*
X77544742Y-77185713D02*
X77544742Y-77471427D01*
X77201885Y-76328570D02*
X77201885Y-75757142D01*
X77544742Y-76442856D02*
X76344742Y-76042856D01*
X76344742Y-76042856D02*
X77544742Y-75642856D01*
X77544742Y-95085713D02*
X76344742Y-95085713D01*
X76344742Y-95085713D02*
X76344742Y-94628570D01*
X76344742Y-94628570D02*
X76401885Y-94514285D01*
X76401885Y-94514285D02*
X76459028Y-94457142D01*
X76459028Y-94457142D02*
X76573314Y-94399999D01*
X76573314Y-94399999D02*
X76744742Y-94399999D01*
X76744742Y-94399999D02*
X76859028Y-94457142D01*
X76859028Y-94457142D02*
X76916171Y-94514285D01*
X76916171Y-94514285D02*
X76973314Y-94628570D01*
X76973314Y-94628570D02*
X76973314Y-95085713D01*
X76916171Y-93885713D02*
X76916171Y-93485713D01*
X77544742Y-93314285D02*
X77544742Y-93885713D01*
X77544742Y-93885713D02*
X76344742Y-93885713D01*
X76344742Y-93885713D02*
X76344742Y-93314285D01*
X77201885Y-92857142D02*
X77201885Y-92285714D01*
X77544742Y-92971428D02*
X76344742Y-92571428D01*
X76344742Y-92571428D02*
X77544742Y-92171428D01*
X76344742Y-91942857D02*
X76344742Y-91257143D01*
X77544742Y-91600000D02*
X76344742Y-91600000D01*
X76344742Y-90628571D02*
X76344742Y-90399999D01*
X76344742Y-90399999D02*
X76401885Y-90285714D01*
X76401885Y-90285714D02*
X76516171Y-90171428D01*
X76516171Y-90171428D02*
X76744742Y-90114285D01*
X76744742Y-90114285D02*
X77144742Y-90114285D01*
X77144742Y-90114285D02*
X77373314Y-90171428D01*
X77373314Y-90171428D02*
X77487600Y-90285714D01*
X77487600Y-90285714D02*
X77544742Y-90399999D01*
X77544742Y-90399999D02*
X77544742Y-90628571D01*
X77544742Y-90628571D02*
X77487600Y-90742857D01*
X77487600Y-90742857D02*
X77373314Y-90857142D01*
X77373314Y-90857142D02*
X77144742Y-90914285D01*
X77144742Y-90914285D02*
X76744742Y-90914285D01*
X76744742Y-90914285D02*
X76516171Y-90857142D01*
X76516171Y-90857142D02*
X76401885Y-90742857D01*
X76401885Y-90742857D02*
X76344742Y-90628571D01*
X77544742Y-89599999D02*
X76344742Y-89599999D01*
X76344742Y-89599999D02*
X77544742Y-88914285D01*
X77544742Y-88914285D02*
X76344742Y-88914285D01*
X77201885Y-88399999D02*
X77201885Y-87828571D01*
X77544742Y-88514285D02*
X76344742Y-88114285D01*
X76344742Y-88114285D02*
X77544742Y-87714285D01*
X77544742Y-86742857D02*
X77544742Y-87314285D01*
X77544742Y-87314285D02*
X76344742Y-87314285D01*
D10*
X73166667Y-47204819D02*
X73166667Y-46204819D01*
X73166667Y-46204819D02*
X73500000Y-46919104D01*
X73500000Y-46919104D02*
X73833333Y-46204819D01*
X73833333Y-46204819D02*
X73833333Y-47204819D01*
X74309524Y-47204819D02*
X74309524Y-46204819D01*
X74309524Y-46681009D02*
X74880952Y-46681009D01*
X74880952Y-47204819D02*
X74880952Y-46204819D01*
X75880952Y-47204819D02*
X75309524Y-47204819D01*
X75595238Y-47204819D02*
X75595238Y-46204819D01*
X75595238Y-46204819D02*
X75500000Y-46347676D01*
X75500000Y-46347676D02*
X75404762Y-46442914D01*
X75404762Y-46442914D02*
X75309524Y-46490533D01*
X99407142Y-111629580D02*
X99359523Y-111677200D01*
X99359523Y-111677200D02*
X99216666Y-111724819D01*
X99216666Y-111724819D02*
X99121428Y-111724819D01*
X99121428Y-111724819D02*
X98978571Y-111677200D01*
X98978571Y-111677200D02*
X98883333Y-111581961D01*
X98883333Y-111581961D02*
X98835714Y-111486723D01*
X98835714Y-111486723D02*
X98788095Y-111296247D01*
X98788095Y-111296247D02*
X98788095Y-111153390D01*
X98788095Y-111153390D02*
X98835714Y-110962914D01*
X98835714Y-110962914D02*
X98883333Y-110867676D01*
X98883333Y-110867676D02*
X98978571Y-110772438D01*
X98978571Y-110772438D02*
X99121428Y-110724819D01*
X99121428Y-110724819D02*
X99216666Y-110724819D01*
X99216666Y-110724819D02*
X99359523Y-110772438D01*
X99359523Y-110772438D02*
X99407142Y-110820057D01*
X100359523Y-111724819D02*
X99788095Y-111724819D01*
X100073809Y-111724819D02*
X100073809Y-110724819D01*
X100073809Y-110724819D02*
X99978571Y-110867676D01*
X99978571Y-110867676D02*
X99883333Y-110962914D01*
X99883333Y-110962914D02*
X99788095Y-111010533D01*
X101216666Y-110724819D02*
X101026190Y-110724819D01*
X101026190Y-110724819D02*
X100930952Y-110772438D01*
X100930952Y-110772438D02*
X100883333Y-110820057D01*
X100883333Y-110820057D02*
X100788095Y-110962914D01*
X100788095Y-110962914D02*
X100740476Y-111153390D01*
X100740476Y-111153390D02*
X100740476Y-111534342D01*
X100740476Y-111534342D02*
X100788095Y-111629580D01*
X100788095Y-111629580D02*
X100835714Y-111677200D01*
X100835714Y-111677200D02*
X100930952Y-111724819D01*
X100930952Y-111724819D02*
X101121428Y-111724819D01*
X101121428Y-111724819D02*
X101216666Y-111677200D01*
X101216666Y-111677200D02*
X101264285Y-111629580D01*
X101264285Y-111629580D02*
X101311904Y-111534342D01*
X101311904Y-111534342D02*
X101311904Y-111296247D01*
X101311904Y-111296247D02*
X101264285Y-111201009D01*
X101264285Y-111201009D02*
X101216666Y-111153390D01*
X101216666Y-111153390D02*
X101121428Y-111105771D01*
X101121428Y-111105771D02*
X100930952Y-111105771D01*
X100930952Y-111105771D02*
X100835714Y-111153390D01*
X100835714Y-111153390D02*
X100788095Y-111201009D01*
X100788095Y-111201009D02*
X100740476Y-111296247D01*
X136619761Y-111690057D02*
X136524523Y-111642438D01*
X136524523Y-111642438D02*
X136429285Y-111547200D01*
X136429285Y-111547200D02*
X136286428Y-111404342D01*
X136286428Y-111404342D02*
X136191190Y-111356723D01*
X136191190Y-111356723D02*
X136095952Y-111356723D01*
X136143571Y-111594819D02*
X136048333Y-111547200D01*
X136048333Y-111547200D02*
X135953095Y-111451961D01*
X135953095Y-111451961D02*
X135905476Y-111261485D01*
X135905476Y-111261485D02*
X135905476Y-110928152D01*
X135905476Y-110928152D02*
X135953095Y-110737676D01*
X135953095Y-110737676D02*
X136048333Y-110642438D01*
X136048333Y-110642438D02*
X136143571Y-110594819D01*
X136143571Y-110594819D02*
X136334047Y-110594819D01*
X136334047Y-110594819D02*
X136429285Y-110642438D01*
X136429285Y-110642438D02*
X136524523Y-110737676D01*
X136524523Y-110737676D02*
X136572142Y-110928152D01*
X136572142Y-110928152D02*
X136572142Y-111261485D01*
X136572142Y-111261485D02*
X136524523Y-111451961D01*
X136524523Y-111451961D02*
X136429285Y-111547200D01*
X136429285Y-111547200D02*
X136334047Y-111594819D01*
X136334047Y-111594819D02*
X136143571Y-111594819D01*
X137524523Y-111594819D02*
X136953095Y-111594819D01*
X137238809Y-111594819D02*
X137238809Y-110594819D01*
X137238809Y-110594819D02*
X137143571Y-110737676D01*
X137143571Y-110737676D02*
X137048333Y-110832914D01*
X137048333Y-110832914D02*
X136953095Y-110880533D01*
X135094819Y-87076904D02*
X135904342Y-87076904D01*
X135904342Y-87076904D02*
X135999580Y-87029285D01*
X135999580Y-87029285D02*
X136047200Y-86981666D01*
X136047200Y-86981666D02*
X136094819Y-86886428D01*
X136094819Y-86886428D02*
X136094819Y-86695952D01*
X136094819Y-86695952D02*
X136047200Y-86600714D01*
X136047200Y-86600714D02*
X135999580Y-86553095D01*
X135999580Y-86553095D02*
X135904342Y-86505476D01*
X135904342Y-86505476D02*
X135094819Y-86505476D01*
X136094819Y-85505476D02*
X136094819Y-86076904D01*
X136094819Y-85791190D02*
X135094819Y-85791190D01*
X135094819Y-85791190D02*
X135237676Y-85886428D01*
X135237676Y-85886428D02*
X135332914Y-85981666D01*
X135332914Y-85981666D02*
X135380533Y-86076904D01*
X112012142Y-111629580D02*
X111964523Y-111677200D01*
X111964523Y-111677200D02*
X111821666Y-111724819D01*
X111821666Y-111724819D02*
X111726428Y-111724819D01*
X111726428Y-111724819D02*
X111583571Y-111677200D01*
X111583571Y-111677200D02*
X111488333Y-111581961D01*
X111488333Y-111581961D02*
X111440714Y-111486723D01*
X111440714Y-111486723D02*
X111393095Y-111296247D01*
X111393095Y-111296247D02*
X111393095Y-111153390D01*
X111393095Y-111153390D02*
X111440714Y-110962914D01*
X111440714Y-110962914D02*
X111488333Y-110867676D01*
X111488333Y-110867676D02*
X111583571Y-110772438D01*
X111583571Y-110772438D02*
X111726428Y-110724819D01*
X111726428Y-110724819D02*
X111821666Y-110724819D01*
X111821666Y-110724819D02*
X111964523Y-110772438D01*
X111964523Y-110772438D02*
X112012142Y-110820057D01*
X112964523Y-111724819D02*
X112393095Y-111724819D01*
X112678809Y-111724819D02*
X112678809Y-110724819D01*
X112678809Y-110724819D02*
X112583571Y-110867676D01*
X112583571Y-110867676D02*
X112488333Y-110962914D01*
X112488333Y-110962914D02*
X112393095Y-111010533D01*
X113583571Y-110724819D02*
X113678809Y-110724819D01*
X113678809Y-110724819D02*
X113774047Y-110772438D01*
X113774047Y-110772438D02*
X113821666Y-110820057D01*
X113821666Y-110820057D02*
X113869285Y-110915295D01*
X113869285Y-110915295D02*
X113916904Y-111105771D01*
X113916904Y-111105771D02*
X113916904Y-111343866D01*
X113916904Y-111343866D02*
X113869285Y-111534342D01*
X113869285Y-111534342D02*
X113821666Y-111629580D01*
X113821666Y-111629580D02*
X113774047Y-111677200D01*
X113774047Y-111677200D02*
X113678809Y-111724819D01*
X113678809Y-111724819D02*
X113583571Y-111724819D01*
X113583571Y-111724819D02*
X113488333Y-111677200D01*
X113488333Y-111677200D02*
X113440714Y-111629580D01*
X113440714Y-111629580D02*
X113393095Y-111534342D01*
X113393095Y-111534342D02*
X113345476Y-111343866D01*
X113345476Y-111343866D02*
X113345476Y-111105771D01*
X113345476Y-111105771D02*
X113393095Y-110915295D01*
X113393095Y-110915295D02*
X113440714Y-110820057D01*
X113440714Y-110820057D02*
X113488333Y-110772438D01*
X113488333Y-110772438D02*
X113583571Y-110724819D01*
X154211666Y-114644819D02*
X154211666Y-115359104D01*
X154211666Y-115359104D02*
X154164047Y-115501961D01*
X154164047Y-115501961D02*
X154068809Y-115597200D01*
X154068809Y-115597200D02*
X153925952Y-115644819D01*
X153925952Y-115644819D02*
X153830714Y-115644819D01*
X154592619Y-114644819D02*
X155259285Y-114644819D01*
X155259285Y-114644819D02*
X154830714Y-115644819D01*
X112488333Y-126784819D02*
X112155000Y-126308628D01*
X111916905Y-126784819D02*
X111916905Y-125784819D01*
X111916905Y-125784819D02*
X112297857Y-125784819D01*
X112297857Y-125784819D02*
X112393095Y-125832438D01*
X112393095Y-125832438D02*
X112440714Y-125880057D01*
X112440714Y-125880057D02*
X112488333Y-125975295D01*
X112488333Y-125975295D02*
X112488333Y-126118152D01*
X112488333Y-126118152D02*
X112440714Y-126213390D01*
X112440714Y-126213390D02*
X112393095Y-126261009D01*
X112393095Y-126261009D02*
X112297857Y-126308628D01*
X112297857Y-126308628D02*
X111916905Y-126308628D01*
X112821667Y-125784819D02*
X113440714Y-125784819D01*
X113440714Y-125784819D02*
X113107381Y-126165771D01*
X113107381Y-126165771D02*
X113250238Y-126165771D01*
X113250238Y-126165771D02*
X113345476Y-126213390D01*
X113345476Y-126213390D02*
X113393095Y-126261009D01*
X113393095Y-126261009D02*
X113440714Y-126356247D01*
X113440714Y-126356247D02*
X113440714Y-126594342D01*
X113440714Y-126594342D02*
X113393095Y-126689580D01*
X113393095Y-126689580D02*
X113345476Y-126737200D01*
X113345476Y-126737200D02*
X113250238Y-126784819D01*
X113250238Y-126784819D02*
X112964524Y-126784819D01*
X112964524Y-126784819D02*
X112869286Y-126737200D01*
X112869286Y-126737200D02*
X112821667Y-126689580D01*
X99832142Y-128629580D02*
X99784523Y-128677200D01*
X99784523Y-128677200D02*
X99641666Y-128724819D01*
X99641666Y-128724819D02*
X99546428Y-128724819D01*
X99546428Y-128724819D02*
X99403571Y-128677200D01*
X99403571Y-128677200D02*
X99308333Y-128581961D01*
X99308333Y-128581961D02*
X99260714Y-128486723D01*
X99260714Y-128486723D02*
X99213095Y-128296247D01*
X99213095Y-128296247D02*
X99213095Y-128153390D01*
X99213095Y-128153390D02*
X99260714Y-127962914D01*
X99260714Y-127962914D02*
X99308333Y-127867676D01*
X99308333Y-127867676D02*
X99403571Y-127772438D01*
X99403571Y-127772438D02*
X99546428Y-127724819D01*
X99546428Y-127724819D02*
X99641666Y-127724819D01*
X99641666Y-127724819D02*
X99784523Y-127772438D01*
X99784523Y-127772438D02*
X99832142Y-127820057D01*
X100213095Y-127820057D02*
X100260714Y-127772438D01*
X100260714Y-127772438D02*
X100355952Y-127724819D01*
X100355952Y-127724819D02*
X100594047Y-127724819D01*
X100594047Y-127724819D02*
X100689285Y-127772438D01*
X100689285Y-127772438D02*
X100736904Y-127820057D01*
X100736904Y-127820057D02*
X100784523Y-127915295D01*
X100784523Y-127915295D02*
X100784523Y-128010533D01*
X100784523Y-128010533D02*
X100736904Y-128153390D01*
X100736904Y-128153390D02*
X100165476Y-128724819D01*
X100165476Y-128724819D02*
X100784523Y-128724819D01*
X101165476Y-127820057D02*
X101213095Y-127772438D01*
X101213095Y-127772438D02*
X101308333Y-127724819D01*
X101308333Y-127724819D02*
X101546428Y-127724819D01*
X101546428Y-127724819D02*
X101641666Y-127772438D01*
X101641666Y-127772438D02*
X101689285Y-127820057D01*
X101689285Y-127820057D02*
X101736904Y-127915295D01*
X101736904Y-127915295D02*
X101736904Y-128010533D01*
X101736904Y-128010533D02*
X101689285Y-128153390D01*
X101689285Y-128153390D02*
X101117857Y-128724819D01*
X101117857Y-128724819D02*
X101736904Y-128724819D01*
X116498333Y-114234819D02*
X116165000Y-113758628D01*
X115926905Y-114234819D02*
X115926905Y-113234819D01*
X115926905Y-113234819D02*
X116307857Y-113234819D01*
X116307857Y-113234819D02*
X116403095Y-113282438D01*
X116403095Y-113282438D02*
X116450714Y-113330057D01*
X116450714Y-113330057D02*
X116498333Y-113425295D01*
X116498333Y-113425295D02*
X116498333Y-113568152D01*
X116498333Y-113568152D02*
X116450714Y-113663390D01*
X116450714Y-113663390D02*
X116403095Y-113711009D01*
X116403095Y-113711009D02*
X116307857Y-113758628D01*
X116307857Y-113758628D02*
X115926905Y-113758628D01*
X116831667Y-113234819D02*
X117498333Y-113234819D01*
X117498333Y-113234819D02*
X117069762Y-114234819D01*
X108478333Y-114139580D02*
X108430714Y-114187200D01*
X108430714Y-114187200D02*
X108287857Y-114234819D01*
X108287857Y-114234819D02*
X108192619Y-114234819D01*
X108192619Y-114234819D02*
X108049762Y-114187200D01*
X108049762Y-114187200D02*
X107954524Y-114091961D01*
X107954524Y-114091961D02*
X107906905Y-113996723D01*
X107906905Y-113996723D02*
X107859286Y-113806247D01*
X107859286Y-113806247D02*
X107859286Y-113663390D01*
X107859286Y-113663390D02*
X107906905Y-113472914D01*
X107906905Y-113472914D02*
X107954524Y-113377676D01*
X107954524Y-113377676D02*
X108049762Y-113282438D01*
X108049762Y-113282438D02*
X108192619Y-113234819D01*
X108192619Y-113234819D02*
X108287857Y-113234819D01*
X108287857Y-113234819D02*
X108430714Y-113282438D01*
X108430714Y-113282438D02*
X108478333Y-113330057D01*
X108859286Y-113330057D02*
X108906905Y-113282438D01*
X108906905Y-113282438D02*
X109002143Y-113234819D01*
X109002143Y-113234819D02*
X109240238Y-113234819D01*
X109240238Y-113234819D02*
X109335476Y-113282438D01*
X109335476Y-113282438D02*
X109383095Y-113330057D01*
X109383095Y-113330057D02*
X109430714Y-113425295D01*
X109430714Y-113425295D02*
X109430714Y-113520533D01*
X109430714Y-113520533D02*
X109383095Y-113663390D01*
X109383095Y-113663390D02*
X108811667Y-114234819D01*
X108811667Y-114234819D02*
X109430714Y-114234819D01*
X108478333Y-131709580D02*
X108430714Y-131757200D01*
X108430714Y-131757200D02*
X108287857Y-131804819D01*
X108287857Y-131804819D02*
X108192619Y-131804819D01*
X108192619Y-131804819D02*
X108049762Y-131757200D01*
X108049762Y-131757200D02*
X107954524Y-131661961D01*
X107954524Y-131661961D02*
X107906905Y-131566723D01*
X107906905Y-131566723D02*
X107859286Y-131376247D01*
X107859286Y-131376247D02*
X107859286Y-131233390D01*
X107859286Y-131233390D02*
X107906905Y-131042914D01*
X107906905Y-131042914D02*
X107954524Y-130947676D01*
X107954524Y-130947676D02*
X108049762Y-130852438D01*
X108049762Y-130852438D02*
X108192619Y-130804819D01*
X108192619Y-130804819D02*
X108287857Y-130804819D01*
X108287857Y-130804819D02*
X108430714Y-130852438D01*
X108430714Y-130852438D02*
X108478333Y-130900057D01*
X108954524Y-131804819D02*
X109145000Y-131804819D01*
X109145000Y-131804819D02*
X109240238Y-131757200D01*
X109240238Y-131757200D02*
X109287857Y-131709580D01*
X109287857Y-131709580D02*
X109383095Y-131566723D01*
X109383095Y-131566723D02*
X109430714Y-131376247D01*
X109430714Y-131376247D02*
X109430714Y-130995295D01*
X109430714Y-130995295D02*
X109383095Y-130900057D01*
X109383095Y-130900057D02*
X109335476Y-130852438D01*
X109335476Y-130852438D02*
X109240238Y-130804819D01*
X109240238Y-130804819D02*
X109049762Y-130804819D01*
X109049762Y-130804819D02*
X108954524Y-130852438D01*
X108954524Y-130852438D02*
X108906905Y-130900057D01*
X108906905Y-130900057D02*
X108859286Y-130995295D01*
X108859286Y-130995295D02*
X108859286Y-131233390D01*
X108859286Y-131233390D02*
X108906905Y-131328628D01*
X108906905Y-131328628D02*
X108954524Y-131376247D01*
X108954524Y-131376247D02*
X109049762Y-131423866D01*
X109049762Y-131423866D02*
X109240238Y-131423866D01*
X109240238Y-131423866D02*
X109335476Y-131376247D01*
X109335476Y-131376247D02*
X109383095Y-131328628D01*
X109383095Y-131328628D02*
X109430714Y-131233390D01*
X108478333Y-116649580D02*
X108430714Y-116697200D01*
X108430714Y-116697200D02*
X108287857Y-116744819D01*
X108287857Y-116744819D02*
X108192619Y-116744819D01*
X108192619Y-116744819D02*
X108049762Y-116697200D01*
X108049762Y-116697200D02*
X107954524Y-116601961D01*
X107954524Y-116601961D02*
X107906905Y-116506723D01*
X107906905Y-116506723D02*
X107859286Y-116316247D01*
X107859286Y-116316247D02*
X107859286Y-116173390D01*
X107859286Y-116173390D02*
X107906905Y-115982914D01*
X107906905Y-115982914D02*
X107954524Y-115887676D01*
X107954524Y-115887676D02*
X108049762Y-115792438D01*
X108049762Y-115792438D02*
X108192619Y-115744819D01*
X108192619Y-115744819D02*
X108287857Y-115744819D01*
X108287857Y-115744819D02*
X108430714Y-115792438D01*
X108430714Y-115792438D02*
X108478333Y-115840057D01*
X108811667Y-115744819D02*
X109430714Y-115744819D01*
X109430714Y-115744819D02*
X109097381Y-116125771D01*
X109097381Y-116125771D02*
X109240238Y-116125771D01*
X109240238Y-116125771D02*
X109335476Y-116173390D01*
X109335476Y-116173390D02*
X109383095Y-116221009D01*
X109383095Y-116221009D02*
X109430714Y-116316247D01*
X109430714Y-116316247D02*
X109430714Y-116554342D01*
X109430714Y-116554342D02*
X109383095Y-116649580D01*
X109383095Y-116649580D02*
X109335476Y-116697200D01*
X109335476Y-116697200D02*
X109240238Y-116744819D01*
X109240238Y-116744819D02*
X108954524Y-116744819D01*
X108954524Y-116744819D02*
X108859286Y-116697200D01*
X108859286Y-116697200D02*
X108811667Y-116649580D01*
X120032142Y-119254819D02*
X119698809Y-118778628D01*
X119460714Y-119254819D02*
X119460714Y-118254819D01*
X119460714Y-118254819D02*
X119841666Y-118254819D01*
X119841666Y-118254819D02*
X119936904Y-118302438D01*
X119936904Y-118302438D02*
X119984523Y-118350057D01*
X119984523Y-118350057D02*
X120032142Y-118445295D01*
X120032142Y-118445295D02*
X120032142Y-118588152D01*
X120032142Y-118588152D02*
X119984523Y-118683390D01*
X119984523Y-118683390D02*
X119936904Y-118731009D01*
X119936904Y-118731009D02*
X119841666Y-118778628D01*
X119841666Y-118778628D02*
X119460714Y-118778628D01*
X120413095Y-118350057D02*
X120460714Y-118302438D01*
X120460714Y-118302438D02*
X120555952Y-118254819D01*
X120555952Y-118254819D02*
X120794047Y-118254819D01*
X120794047Y-118254819D02*
X120889285Y-118302438D01*
X120889285Y-118302438D02*
X120936904Y-118350057D01*
X120936904Y-118350057D02*
X120984523Y-118445295D01*
X120984523Y-118445295D02*
X120984523Y-118540533D01*
X120984523Y-118540533D02*
X120936904Y-118683390D01*
X120936904Y-118683390D02*
X120365476Y-119254819D01*
X120365476Y-119254819D02*
X120984523Y-119254819D01*
X121317857Y-118254819D02*
X121936904Y-118254819D01*
X121936904Y-118254819D02*
X121603571Y-118635771D01*
X121603571Y-118635771D02*
X121746428Y-118635771D01*
X121746428Y-118635771D02*
X121841666Y-118683390D01*
X121841666Y-118683390D02*
X121889285Y-118731009D01*
X121889285Y-118731009D02*
X121936904Y-118826247D01*
X121936904Y-118826247D02*
X121936904Y-119064342D01*
X121936904Y-119064342D02*
X121889285Y-119159580D01*
X121889285Y-119159580D02*
X121841666Y-119207200D01*
X121841666Y-119207200D02*
X121746428Y-119254819D01*
X121746428Y-119254819D02*
X121460714Y-119254819D01*
X121460714Y-119254819D02*
X121365476Y-119207200D01*
X121365476Y-119207200D02*
X121317857Y-119159580D01*
X137238095Y-92604819D02*
X137238095Y-93414342D01*
X137238095Y-93414342D02*
X137285714Y-93509580D01*
X137285714Y-93509580D02*
X137333333Y-93557200D01*
X137333333Y-93557200D02*
X137428571Y-93604819D01*
X137428571Y-93604819D02*
X137619047Y-93604819D01*
X137619047Y-93604819D02*
X137714285Y-93557200D01*
X137714285Y-93557200D02*
X137761904Y-93509580D01*
X137761904Y-93509580D02*
X137809523Y-93414342D01*
X137809523Y-93414342D02*
X137809523Y-92604819D01*
X138238095Y-92700057D02*
X138285714Y-92652438D01*
X138285714Y-92652438D02*
X138380952Y-92604819D01*
X138380952Y-92604819D02*
X138619047Y-92604819D01*
X138619047Y-92604819D02*
X138714285Y-92652438D01*
X138714285Y-92652438D02*
X138761904Y-92700057D01*
X138761904Y-92700057D02*
X138809523Y-92795295D01*
X138809523Y-92795295D02*
X138809523Y-92890533D01*
X138809523Y-92890533D02*
X138761904Y-93033390D01*
X138761904Y-93033390D02*
X138190476Y-93604819D01*
X138190476Y-93604819D02*
X138809523Y-93604819D01*
X116022142Y-129294819D02*
X115688809Y-128818628D01*
X115450714Y-129294819D02*
X115450714Y-128294819D01*
X115450714Y-128294819D02*
X115831666Y-128294819D01*
X115831666Y-128294819D02*
X115926904Y-128342438D01*
X115926904Y-128342438D02*
X115974523Y-128390057D01*
X115974523Y-128390057D02*
X116022142Y-128485295D01*
X116022142Y-128485295D02*
X116022142Y-128628152D01*
X116022142Y-128628152D02*
X115974523Y-128723390D01*
X115974523Y-128723390D02*
X115926904Y-128771009D01*
X115926904Y-128771009D02*
X115831666Y-128818628D01*
X115831666Y-128818628D02*
X115450714Y-128818628D01*
X116974523Y-129294819D02*
X116403095Y-129294819D01*
X116688809Y-129294819D02*
X116688809Y-128294819D01*
X116688809Y-128294819D02*
X116593571Y-128437676D01*
X116593571Y-128437676D02*
X116498333Y-128532914D01*
X116498333Y-128532914D02*
X116403095Y-128580533D01*
X117307857Y-128294819D02*
X117926904Y-128294819D01*
X117926904Y-128294819D02*
X117593571Y-128675771D01*
X117593571Y-128675771D02*
X117736428Y-128675771D01*
X117736428Y-128675771D02*
X117831666Y-128723390D01*
X117831666Y-128723390D02*
X117879285Y-128771009D01*
X117879285Y-128771009D02*
X117926904Y-128866247D01*
X117926904Y-128866247D02*
X117926904Y-129104342D01*
X117926904Y-129104342D02*
X117879285Y-129199580D01*
X117879285Y-129199580D02*
X117831666Y-129247200D01*
X117831666Y-129247200D02*
X117736428Y-129294819D01*
X117736428Y-129294819D02*
X117450714Y-129294819D01*
X117450714Y-129294819D02*
X117355476Y-129247200D01*
X117355476Y-129247200D02*
X117307857Y-129199580D01*
X126598810Y-111614819D02*
X126598810Y-110614819D01*
X127027381Y-111567200D02*
X127170238Y-111614819D01*
X127170238Y-111614819D02*
X127408333Y-111614819D01*
X127408333Y-111614819D02*
X127503571Y-111567200D01*
X127503571Y-111567200D02*
X127551190Y-111519580D01*
X127551190Y-111519580D02*
X127598809Y-111424342D01*
X127598809Y-111424342D02*
X127598809Y-111329104D01*
X127598809Y-111329104D02*
X127551190Y-111233866D01*
X127551190Y-111233866D02*
X127503571Y-111186247D01*
X127503571Y-111186247D02*
X127408333Y-111138628D01*
X127408333Y-111138628D02*
X127217857Y-111091009D01*
X127217857Y-111091009D02*
X127122619Y-111043390D01*
X127122619Y-111043390D02*
X127075000Y-110995771D01*
X127075000Y-110995771D02*
X127027381Y-110900533D01*
X127027381Y-110900533D02*
X127027381Y-110805295D01*
X127027381Y-110805295D02*
X127075000Y-110710057D01*
X127075000Y-110710057D02*
X127122619Y-110662438D01*
X127122619Y-110662438D02*
X127217857Y-110614819D01*
X127217857Y-110614819D02*
X127455952Y-110614819D01*
X127455952Y-110614819D02*
X127598809Y-110662438D01*
X128217857Y-110614819D02*
X128408333Y-110614819D01*
X128408333Y-110614819D02*
X128503571Y-110662438D01*
X128503571Y-110662438D02*
X128598809Y-110757676D01*
X128598809Y-110757676D02*
X128646428Y-110948152D01*
X128646428Y-110948152D02*
X128646428Y-111281485D01*
X128646428Y-111281485D02*
X128598809Y-111471961D01*
X128598809Y-111471961D02*
X128503571Y-111567200D01*
X128503571Y-111567200D02*
X128408333Y-111614819D01*
X128408333Y-111614819D02*
X128217857Y-111614819D01*
X128217857Y-111614819D02*
X128122619Y-111567200D01*
X128122619Y-111567200D02*
X128027381Y-111471961D01*
X128027381Y-111471961D02*
X127979762Y-111281485D01*
X127979762Y-111281485D02*
X127979762Y-110948152D01*
X127979762Y-110948152D02*
X128027381Y-110757676D01*
X128027381Y-110757676D02*
X128122619Y-110662438D01*
X128122619Y-110662438D02*
X128217857Y-110614819D01*
X129598809Y-111614819D02*
X129027381Y-111614819D01*
X129313095Y-111614819D02*
X129313095Y-110614819D01*
X129313095Y-110614819D02*
X129217857Y-110757676D01*
X129217857Y-110757676D02*
X129122619Y-110852914D01*
X129122619Y-110852914D02*
X129027381Y-110900533D01*
X99407142Y-115879580D02*
X99359523Y-115927200D01*
X99359523Y-115927200D02*
X99216666Y-115974819D01*
X99216666Y-115974819D02*
X99121428Y-115974819D01*
X99121428Y-115974819D02*
X98978571Y-115927200D01*
X98978571Y-115927200D02*
X98883333Y-115831961D01*
X98883333Y-115831961D02*
X98835714Y-115736723D01*
X98835714Y-115736723D02*
X98788095Y-115546247D01*
X98788095Y-115546247D02*
X98788095Y-115403390D01*
X98788095Y-115403390D02*
X98835714Y-115212914D01*
X98835714Y-115212914D02*
X98883333Y-115117676D01*
X98883333Y-115117676D02*
X98978571Y-115022438D01*
X98978571Y-115022438D02*
X99121428Y-114974819D01*
X99121428Y-114974819D02*
X99216666Y-114974819D01*
X99216666Y-114974819D02*
X99359523Y-115022438D01*
X99359523Y-115022438D02*
X99407142Y-115070057D01*
X100359523Y-115974819D02*
X99788095Y-115974819D01*
X100073809Y-115974819D02*
X100073809Y-114974819D01*
X100073809Y-114974819D02*
X99978571Y-115117676D01*
X99978571Y-115117676D02*
X99883333Y-115212914D01*
X99883333Y-115212914D02*
X99788095Y-115260533D01*
X100692857Y-114974819D02*
X101359523Y-114974819D01*
X101359523Y-114974819D02*
X100930952Y-115974819D01*
X77954819Y-66833333D02*
X78669104Y-66833333D01*
X78669104Y-66833333D02*
X78811961Y-66880952D01*
X78811961Y-66880952D02*
X78907200Y-66976190D01*
X78907200Y-66976190D02*
X78954819Y-67119047D01*
X78954819Y-67119047D02*
X78954819Y-67214285D01*
X78288152Y-65928571D02*
X78954819Y-65928571D01*
X77907200Y-66166666D02*
X78621485Y-66404761D01*
X78621485Y-66404761D02*
X78621485Y-65785714D01*
X126598810Y-118254819D02*
X126598810Y-117254819D01*
X127027381Y-118207200D02*
X127170238Y-118254819D01*
X127170238Y-118254819D02*
X127408333Y-118254819D01*
X127408333Y-118254819D02*
X127503571Y-118207200D01*
X127503571Y-118207200D02*
X127551190Y-118159580D01*
X127551190Y-118159580D02*
X127598809Y-118064342D01*
X127598809Y-118064342D02*
X127598809Y-117969104D01*
X127598809Y-117969104D02*
X127551190Y-117873866D01*
X127551190Y-117873866D02*
X127503571Y-117826247D01*
X127503571Y-117826247D02*
X127408333Y-117778628D01*
X127408333Y-117778628D02*
X127217857Y-117731009D01*
X127217857Y-117731009D02*
X127122619Y-117683390D01*
X127122619Y-117683390D02*
X127075000Y-117635771D01*
X127075000Y-117635771D02*
X127027381Y-117540533D01*
X127027381Y-117540533D02*
X127027381Y-117445295D01*
X127027381Y-117445295D02*
X127075000Y-117350057D01*
X127075000Y-117350057D02*
X127122619Y-117302438D01*
X127122619Y-117302438D02*
X127217857Y-117254819D01*
X127217857Y-117254819D02*
X127455952Y-117254819D01*
X127455952Y-117254819D02*
X127598809Y-117302438D01*
X128217857Y-117254819D02*
X128408333Y-117254819D01*
X128408333Y-117254819D02*
X128503571Y-117302438D01*
X128503571Y-117302438D02*
X128598809Y-117397676D01*
X128598809Y-117397676D02*
X128646428Y-117588152D01*
X128646428Y-117588152D02*
X128646428Y-117921485D01*
X128646428Y-117921485D02*
X128598809Y-118111961D01*
X128598809Y-118111961D02*
X128503571Y-118207200D01*
X128503571Y-118207200D02*
X128408333Y-118254819D01*
X128408333Y-118254819D02*
X128217857Y-118254819D01*
X128217857Y-118254819D02*
X128122619Y-118207200D01*
X128122619Y-118207200D02*
X128027381Y-118111961D01*
X128027381Y-118111961D02*
X127979762Y-117921485D01*
X127979762Y-117921485D02*
X127979762Y-117588152D01*
X127979762Y-117588152D02*
X128027381Y-117397676D01*
X128027381Y-117397676D02*
X128122619Y-117302438D01*
X128122619Y-117302438D02*
X128217857Y-117254819D01*
X129027381Y-117350057D02*
X129075000Y-117302438D01*
X129075000Y-117302438D02*
X129170238Y-117254819D01*
X129170238Y-117254819D02*
X129408333Y-117254819D01*
X129408333Y-117254819D02*
X129503571Y-117302438D01*
X129503571Y-117302438D02*
X129551190Y-117350057D01*
X129551190Y-117350057D02*
X129598809Y-117445295D01*
X129598809Y-117445295D02*
X129598809Y-117540533D01*
X129598809Y-117540533D02*
X129551190Y-117683390D01*
X129551190Y-117683390D02*
X128979762Y-118254819D01*
X128979762Y-118254819D02*
X129598809Y-118254819D01*
X147263095Y-114689819D02*
X147263095Y-115499342D01*
X147263095Y-115499342D02*
X147310714Y-115594580D01*
X147310714Y-115594580D02*
X147358333Y-115642200D01*
X147358333Y-115642200D02*
X147453571Y-115689819D01*
X147453571Y-115689819D02*
X147644047Y-115689819D01*
X147644047Y-115689819D02*
X147739285Y-115642200D01*
X147739285Y-115642200D02*
X147786904Y-115594580D01*
X147786904Y-115594580D02*
X147834523Y-115499342D01*
X147834523Y-115499342D02*
X147834523Y-114689819D01*
X148739285Y-115023152D02*
X148739285Y-115689819D01*
X148501190Y-114642200D02*
X148263095Y-115356485D01*
X148263095Y-115356485D02*
X148882142Y-115356485D01*
X108478333Y-126689580D02*
X108430714Y-126737200D01*
X108430714Y-126737200D02*
X108287857Y-126784819D01*
X108287857Y-126784819D02*
X108192619Y-126784819D01*
X108192619Y-126784819D02*
X108049762Y-126737200D01*
X108049762Y-126737200D02*
X107954524Y-126641961D01*
X107954524Y-126641961D02*
X107906905Y-126546723D01*
X107906905Y-126546723D02*
X107859286Y-126356247D01*
X107859286Y-126356247D02*
X107859286Y-126213390D01*
X107859286Y-126213390D02*
X107906905Y-126022914D01*
X107906905Y-126022914D02*
X107954524Y-125927676D01*
X107954524Y-125927676D02*
X108049762Y-125832438D01*
X108049762Y-125832438D02*
X108192619Y-125784819D01*
X108192619Y-125784819D02*
X108287857Y-125784819D01*
X108287857Y-125784819D02*
X108430714Y-125832438D01*
X108430714Y-125832438D02*
X108478333Y-125880057D01*
X108811667Y-125784819D02*
X109478333Y-125784819D01*
X109478333Y-125784819D02*
X109049762Y-126784819D01*
X136619761Y-123270057D02*
X136524523Y-123222438D01*
X136524523Y-123222438D02*
X136429285Y-123127200D01*
X136429285Y-123127200D02*
X136286428Y-122984342D01*
X136286428Y-122984342D02*
X136191190Y-122936723D01*
X136191190Y-122936723D02*
X136095952Y-122936723D01*
X136143571Y-123174819D02*
X136048333Y-123127200D01*
X136048333Y-123127200D02*
X135953095Y-123031961D01*
X135953095Y-123031961D02*
X135905476Y-122841485D01*
X135905476Y-122841485D02*
X135905476Y-122508152D01*
X135905476Y-122508152D02*
X135953095Y-122317676D01*
X135953095Y-122317676D02*
X136048333Y-122222438D01*
X136048333Y-122222438D02*
X136143571Y-122174819D01*
X136143571Y-122174819D02*
X136334047Y-122174819D01*
X136334047Y-122174819D02*
X136429285Y-122222438D01*
X136429285Y-122222438D02*
X136524523Y-122317676D01*
X136524523Y-122317676D02*
X136572142Y-122508152D01*
X136572142Y-122508152D02*
X136572142Y-122841485D01*
X136572142Y-122841485D02*
X136524523Y-123031961D01*
X136524523Y-123031961D02*
X136429285Y-123127200D01*
X136429285Y-123127200D02*
X136334047Y-123174819D01*
X136334047Y-123174819D02*
X136143571Y-123174819D01*
X136905476Y-122174819D02*
X137524523Y-122174819D01*
X137524523Y-122174819D02*
X137191190Y-122555771D01*
X137191190Y-122555771D02*
X137334047Y-122555771D01*
X137334047Y-122555771D02*
X137429285Y-122603390D01*
X137429285Y-122603390D02*
X137476904Y-122651009D01*
X137476904Y-122651009D02*
X137524523Y-122746247D01*
X137524523Y-122746247D02*
X137524523Y-122984342D01*
X137524523Y-122984342D02*
X137476904Y-123079580D01*
X137476904Y-123079580D02*
X137429285Y-123127200D01*
X137429285Y-123127200D02*
X137334047Y-123174819D01*
X137334047Y-123174819D02*
X137048333Y-123174819D01*
X137048333Y-123174819D02*
X136953095Y-123127200D01*
X136953095Y-123127200D02*
X136905476Y-123079580D01*
X108478333Y-111629580D02*
X108430714Y-111677200D01*
X108430714Y-111677200D02*
X108287857Y-111724819D01*
X108287857Y-111724819D02*
X108192619Y-111724819D01*
X108192619Y-111724819D02*
X108049762Y-111677200D01*
X108049762Y-111677200D02*
X107954524Y-111581961D01*
X107954524Y-111581961D02*
X107906905Y-111486723D01*
X107906905Y-111486723D02*
X107859286Y-111296247D01*
X107859286Y-111296247D02*
X107859286Y-111153390D01*
X107859286Y-111153390D02*
X107906905Y-110962914D01*
X107906905Y-110962914D02*
X107954524Y-110867676D01*
X107954524Y-110867676D02*
X108049762Y-110772438D01*
X108049762Y-110772438D02*
X108192619Y-110724819D01*
X108192619Y-110724819D02*
X108287857Y-110724819D01*
X108287857Y-110724819D02*
X108430714Y-110772438D01*
X108430714Y-110772438D02*
X108478333Y-110820057D01*
X109430714Y-111724819D02*
X108859286Y-111724819D01*
X109145000Y-111724819D02*
X109145000Y-110724819D01*
X109145000Y-110724819D02*
X109049762Y-110867676D01*
X109049762Y-110867676D02*
X108954524Y-110962914D01*
X108954524Y-110962914D02*
X108859286Y-111010533D01*
X108478333Y-121669580D02*
X108430714Y-121717200D01*
X108430714Y-121717200D02*
X108287857Y-121764819D01*
X108287857Y-121764819D02*
X108192619Y-121764819D01*
X108192619Y-121764819D02*
X108049762Y-121717200D01*
X108049762Y-121717200D02*
X107954524Y-121621961D01*
X107954524Y-121621961D02*
X107906905Y-121526723D01*
X107906905Y-121526723D02*
X107859286Y-121336247D01*
X107859286Y-121336247D02*
X107859286Y-121193390D01*
X107859286Y-121193390D02*
X107906905Y-121002914D01*
X107906905Y-121002914D02*
X107954524Y-120907676D01*
X107954524Y-120907676D02*
X108049762Y-120812438D01*
X108049762Y-120812438D02*
X108192619Y-120764819D01*
X108192619Y-120764819D02*
X108287857Y-120764819D01*
X108287857Y-120764819D02*
X108430714Y-120812438D01*
X108430714Y-120812438D02*
X108478333Y-120860057D01*
X109383095Y-120764819D02*
X108906905Y-120764819D01*
X108906905Y-120764819D02*
X108859286Y-121241009D01*
X108859286Y-121241009D02*
X108906905Y-121193390D01*
X108906905Y-121193390D02*
X109002143Y-121145771D01*
X109002143Y-121145771D02*
X109240238Y-121145771D01*
X109240238Y-121145771D02*
X109335476Y-121193390D01*
X109335476Y-121193390D02*
X109383095Y-121241009D01*
X109383095Y-121241009D02*
X109430714Y-121336247D01*
X109430714Y-121336247D02*
X109430714Y-121574342D01*
X109430714Y-121574342D02*
X109383095Y-121669580D01*
X109383095Y-121669580D02*
X109335476Y-121717200D01*
X109335476Y-121717200D02*
X109240238Y-121764819D01*
X109240238Y-121764819D02*
X109002143Y-121764819D01*
X109002143Y-121764819D02*
X108906905Y-121717200D01*
X108906905Y-121717200D02*
X108859286Y-121669580D01*
X161466666Y-120696009D02*
X161133333Y-120696009D01*
X161133333Y-121219819D02*
X161133333Y-120219819D01*
X161133333Y-120219819D02*
X161609523Y-120219819D01*
X162514285Y-121219819D02*
X161942857Y-121219819D01*
X162228571Y-121219819D02*
X162228571Y-120219819D01*
X162228571Y-120219819D02*
X162133333Y-120362676D01*
X162133333Y-120362676D02*
X162038095Y-120457914D01*
X162038095Y-120457914D02*
X161942857Y-120505533D01*
X116022142Y-131804819D02*
X115688809Y-131328628D01*
X115450714Y-131804819D02*
X115450714Y-130804819D01*
X115450714Y-130804819D02*
X115831666Y-130804819D01*
X115831666Y-130804819D02*
X115926904Y-130852438D01*
X115926904Y-130852438D02*
X115974523Y-130900057D01*
X115974523Y-130900057D02*
X116022142Y-130995295D01*
X116022142Y-130995295D02*
X116022142Y-131138152D01*
X116022142Y-131138152D02*
X115974523Y-131233390D01*
X115974523Y-131233390D02*
X115926904Y-131281009D01*
X115926904Y-131281009D02*
X115831666Y-131328628D01*
X115831666Y-131328628D02*
X115450714Y-131328628D01*
X116974523Y-131804819D02*
X116403095Y-131804819D01*
X116688809Y-131804819D02*
X116688809Y-130804819D01*
X116688809Y-130804819D02*
X116593571Y-130947676D01*
X116593571Y-130947676D02*
X116498333Y-131042914D01*
X116498333Y-131042914D02*
X116403095Y-131090533D01*
X117450714Y-131804819D02*
X117641190Y-131804819D01*
X117641190Y-131804819D02*
X117736428Y-131757200D01*
X117736428Y-131757200D02*
X117784047Y-131709580D01*
X117784047Y-131709580D02*
X117879285Y-131566723D01*
X117879285Y-131566723D02*
X117926904Y-131376247D01*
X117926904Y-131376247D02*
X117926904Y-130995295D01*
X117926904Y-130995295D02*
X117879285Y-130900057D01*
X117879285Y-130900057D02*
X117831666Y-130852438D01*
X117831666Y-130852438D02*
X117736428Y-130804819D01*
X117736428Y-130804819D02*
X117545952Y-130804819D01*
X117545952Y-130804819D02*
X117450714Y-130852438D01*
X117450714Y-130852438D02*
X117403095Y-130900057D01*
X117403095Y-130900057D02*
X117355476Y-130995295D01*
X117355476Y-130995295D02*
X117355476Y-131233390D01*
X117355476Y-131233390D02*
X117403095Y-131328628D01*
X117403095Y-131328628D02*
X117450714Y-131376247D01*
X117450714Y-131376247D02*
X117545952Y-131423866D01*
X117545952Y-131423866D02*
X117736428Y-131423866D01*
X117736428Y-131423866D02*
X117831666Y-131376247D01*
X117831666Y-131376247D02*
X117879285Y-131328628D01*
X117879285Y-131328628D02*
X117926904Y-131233390D01*
X108478333Y-124179580D02*
X108430714Y-124227200D01*
X108430714Y-124227200D02*
X108287857Y-124274819D01*
X108287857Y-124274819D02*
X108192619Y-124274819D01*
X108192619Y-124274819D02*
X108049762Y-124227200D01*
X108049762Y-124227200D02*
X107954524Y-124131961D01*
X107954524Y-124131961D02*
X107906905Y-124036723D01*
X107906905Y-124036723D02*
X107859286Y-123846247D01*
X107859286Y-123846247D02*
X107859286Y-123703390D01*
X107859286Y-123703390D02*
X107906905Y-123512914D01*
X107906905Y-123512914D02*
X107954524Y-123417676D01*
X107954524Y-123417676D02*
X108049762Y-123322438D01*
X108049762Y-123322438D02*
X108192619Y-123274819D01*
X108192619Y-123274819D02*
X108287857Y-123274819D01*
X108287857Y-123274819D02*
X108430714Y-123322438D01*
X108430714Y-123322438D02*
X108478333Y-123370057D01*
X109335476Y-123274819D02*
X109145000Y-123274819D01*
X109145000Y-123274819D02*
X109049762Y-123322438D01*
X109049762Y-123322438D02*
X109002143Y-123370057D01*
X109002143Y-123370057D02*
X108906905Y-123512914D01*
X108906905Y-123512914D02*
X108859286Y-123703390D01*
X108859286Y-123703390D02*
X108859286Y-124084342D01*
X108859286Y-124084342D02*
X108906905Y-124179580D01*
X108906905Y-124179580D02*
X108954524Y-124227200D01*
X108954524Y-124227200D02*
X109049762Y-124274819D01*
X109049762Y-124274819D02*
X109240238Y-124274819D01*
X109240238Y-124274819D02*
X109335476Y-124227200D01*
X109335476Y-124227200D02*
X109383095Y-124179580D01*
X109383095Y-124179580D02*
X109430714Y-124084342D01*
X109430714Y-124084342D02*
X109430714Y-123846247D01*
X109430714Y-123846247D02*
X109383095Y-123751009D01*
X109383095Y-123751009D02*
X109335476Y-123703390D01*
X109335476Y-123703390D02*
X109240238Y-123655771D01*
X109240238Y-123655771D02*
X109049762Y-123655771D01*
X109049762Y-123655771D02*
X108954524Y-123703390D01*
X108954524Y-123703390D02*
X108906905Y-123751009D01*
X108906905Y-123751009D02*
X108859286Y-123846247D01*
X79130952Y-123024819D02*
X78654762Y-123024819D01*
X78654762Y-123024819D02*
X78654762Y-122024819D01*
X79464286Y-122501009D02*
X79797619Y-122501009D01*
X79940476Y-123024819D02*
X79464286Y-123024819D01*
X79464286Y-123024819D02*
X79464286Y-122024819D01*
X79464286Y-122024819D02*
X79940476Y-122024819D01*
X80369048Y-123024819D02*
X80369048Y-122024819D01*
X80369048Y-122024819D02*
X80607143Y-122024819D01*
X80607143Y-122024819D02*
X80750000Y-122072438D01*
X80750000Y-122072438D02*
X80845238Y-122167676D01*
X80845238Y-122167676D02*
X80892857Y-122262914D01*
X80892857Y-122262914D02*
X80940476Y-122453390D01*
X80940476Y-122453390D02*
X80940476Y-122596247D01*
X80940476Y-122596247D02*
X80892857Y-122786723D01*
X80892857Y-122786723D02*
X80845238Y-122881961D01*
X80845238Y-122881961D02*
X80750000Y-122977200D01*
X80750000Y-122977200D02*
X80607143Y-123024819D01*
X80607143Y-123024819D02*
X80369048Y-123024819D01*
X81892857Y-123024819D02*
X81321429Y-123024819D01*
X81607143Y-123024819D02*
X81607143Y-122024819D01*
X81607143Y-122024819D02*
X81511905Y-122167676D01*
X81511905Y-122167676D02*
X81416667Y-122262914D01*
X81416667Y-122262914D02*
X81321429Y-122310533D01*
X108711905Y-108554819D02*
X108711905Y-107554819D01*
X109283333Y-108554819D02*
X108854762Y-107983390D01*
X109283333Y-107554819D02*
X108711905Y-108126247D01*
X109616667Y-107554819D02*
X110235714Y-107554819D01*
X110235714Y-107554819D02*
X109902381Y-107935771D01*
X109902381Y-107935771D02*
X110045238Y-107935771D01*
X110045238Y-107935771D02*
X110140476Y-107983390D01*
X110140476Y-107983390D02*
X110188095Y-108031009D01*
X110188095Y-108031009D02*
X110235714Y-108126247D01*
X110235714Y-108126247D02*
X110235714Y-108364342D01*
X110235714Y-108364342D02*
X110188095Y-108459580D01*
X110188095Y-108459580D02*
X110140476Y-108507200D01*
X110140476Y-108507200D02*
X110045238Y-108554819D01*
X110045238Y-108554819D02*
X109759524Y-108554819D01*
X109759524Y-108554819D02*
X109664286Y-108507200D01*
X109664286Y-108507200D02*
X109616667Y-108459580D01*
X153681905Y-131474819D02*
X153681905Y-130474819D01*
X153681905Y-130474819D02*
X153920000Y-130474819D01*
X153920000Y-130474819D02*
X154062857Y-130522438D01*
X154062857Y-130522438D02*
X154158095Y-130617676D01*
X154158095Y-130617676D02*
X154205714Y-130712914D01*
X154205714Y-130712914D02*
X154253333Y-130903390D01*
X154253333Y-130903390D02*
X154253333Y-131046247D01*
X154253333Y-131046247D02*
X154205714Y-131236723D01*
X154205714Y-131236723D02*
X154158095Y-131331961D01*
X154158095Y-131331961D02*
X154062857Y-131427200D01*
X154062857Y-131427200D02*
X153920000Y-131474819D01*
X153920000Y-131474819D02*
X153681905Y-131474819D01*
X155110476Y-130808152D02*
X155110476Y-131474819D01*
X154872381Y-130427200D02*
X154634286Y-131141485D01*
X154634286Y-131141485D02*
X155253333Y-131141485D01*
X108711905Y-91604819D02*
X108711905Y-90604819D01*
X109283333Y-91604819D02*
X108854762Y-91033390D01*
X109283333Y-90604819D02*
X108711905Y-91176247D01*
X109664286Y-90700057D02*
X109711905Y-90652438D01*
X109711905Y-90652438D02*
X109807143Y-90604819D01*
X109807143Y-90604819D02*
X110045238Y-90604819D01*
X110045238Y-90604819D02*
X110140476Y-90652438D01*
X110140476Y-90652438D02*
X110188095Y-90700057D01*
X110188095Y-90700057D02*
X110235714Y-90795295D01*
X110235714Y-90795295D02*
X110235714Y-90890533D01*
X110235714Y-90890533D02*
X110188095Y-91033390D01*
X110188095Y-91033390D02*
X109616667Y-91604819D01*
X109616667Y-91604819D02*
X110235714Y-91604819D01*
X80283333Y-103304819D02*
X79807143Y-103304819D01*
X79807143Y-103304819D02*
X79807143Y-102304819D01*
X81140476Y-103304819D02*
X80569048Y-103304819D01*
X80854762Y-103304819D02*
X80854762Y-102304819D01*
X80854762Y-102304819D02*
X80759524Y-102447676D01*
X80759524Y-102447676D02*
X80664286Y-102542914D01*
X80664286Y-102542914D02*
X80569048Y-102590533D01*
X108478333Y-129199580D02*
X108430714Y-129247200D01*
X108430714Y-129247200D02*
X108287857Y-129294819D01*
X108287857Y-129294819D02*
X108192619Y-129294819D01*
X108192619Y-129294819D02*
X108049762Y-129247200D01*
X108049762Y-129247200D02*
X107954524Y-129151961D01*
X107954524Y-129151961D02*
X107906905Y-129056723D01*
X107906905Y-129056723D02*
X107859286Y-128866247D01*
X107859286Y-128866247D02*
X107859286Y-128723390D01*
X107859286Y-128723390D02*
X107906905Y-128532914D01*
X107906905Y-128532914D02*
X107954524Y-128437676D01*
X107954524Y-128437676D02*
X108049762Y-128342438D01*
X108049762Y-128342438D02*
X108192619Y-128294819D01*
X108192619Y-128294819D02*
X108287857Y-128294819D01*
X108287857Y-128294819D02*
X108430714Y-128342438D01*
X108430714Y-128342438D02*
X108478333Y-128390057D01*
X109049762Y-128723390D02*
X108954524Y-128675771D01*
X108954524Y-128675771D02*
X108906905Y-128628152D01*
X108906905Y-128628152D02*
X108859286Y-128532914D01*
X108859286Y-128532914D02*
X108859286Y-128485295D01*
X108859286Y-128485295D02*
X108906905Y-128390057D01*
X108906905Y-128390057D02*
X108954524Y-128342438D01*
X108954524Y-128342438D02*
X109049762Y-128294819D01*
X109049762Y-128294819D02*
X109240238Y-128294819D01*
X109240238Y-128294819D02*
X109335476Y-128342438D01*
X109335476Y-128342438D02*
X109383095Y-128390057D01*
X109383095Y-128390057D02*
X109430714Y-128485295D01*
X109430714Y-128485295D02*
X109430714Y-128532914D01*
X109430714Y-128532914D02*
X109383095Y-128628152D01*
X109383095Y-128628152D02*
X109335476Y-128675771D01*
X109335476Y-128675771D02*
X109240238Y-128723390D01*
X109240238Y-128723390D02*
X109049762Y-128723390D01*
X109049762Y-128723390D02*
X108954524Y-128771009D01*
X108954524Y-128771009D02*
X108906905Y-128818628D01*
X108906905Y-128818628D02*
X108859286Y-128913866D01*
X108859286Y-128913866D02*
X108859286Y-129104342D01*
X108859286Y-129104342D02*
X108906905Y-129199580D01*
X108906905Y-129199580D02*
X108954524Y-129247200D01*
X108954524Y-129247200D02*
X109049762Y-129294819D01*
X109049762Y-129294819D02*
X109240238Y-129294819D01*
X109240238Y-129294819D02*
X109335476Y-129247200D01*
X109335476Y-129247200D02*
X109383095Y-129199580D01*
X109383095Y-129199580D02*
X109430714Y-129104342D01*
X109430714Y-129104342D02*
X109430714Y-128913866D01*
X109430714Y-128913866D02*
X109383095Y-128818628D01*
X109383095Y-128818628D02*
X109335476Y-128771009D01*
X109335476Y-128771009D02*
X109240238Y-128723390D01*
X80283333Y-111154819D02*
X79807143Y-111154819D01*
X79807143Y-111154819D02*
X79807143Y-110154819D01*
X80569048Y-110250057D02*
X80616667Y-110202438D01*
X80616667Y-110202438D02*
X80711905Y-110154819D01*
X80711905Y-110154819D02*
X80950000Y-110154819D01*
X80950000Y-110154819D02*
X81045238Y-110202438D01*
X81045238Y-110202438D02*
X81092857Y-110250057D01*
X81092857Y-110250057D02*
X81140476Y-110345295D01*
X81140476Y-110345295D02*
X81140476Y-110440533D01*
X81140476Y-110440533D02*
X81092857Y-110583390D01*
X81092857Y-110583390D02*
X80521429Y-111154819D01*
X80521429Y-111154819D02*
X81140476Y-111154819D01*
X131686905Y-141454819D02*
X131686905Y-140454819D01*
X131686905Y-140454819D02*
X131925000Y-140454819D01*
X131925000Y-140454819D02*
X132067857Y-140502438D01*
X132067857Y-140502438D02*
X132163095Y-140597676D01*
X132163095Y-140597676D02*
X132210714Y-140692914D01*
X132210714Y-140692914D02*
X132258333Y-140883390D01*
X132258333Y-140883390D02*
X132258333Y-141026247D01*
X132258333Y-141026247D02*
X132210714Y-141216723D01*
X132210714Y-141216723D02*
X132163095Y-141311961D01*
X132163095Y-141311961D02*
X132067857Y-141407200D01*
X132067857Y-141407200D02*
X131925000Y-141454819D01*
X131925000Y-141454819D02*
X131686905Y-141454819D01*
X132639286Y-140550057D02*
X132686905Y-140502438D01*
X132686905Y-140502438D02*
X132782143Y-140454819D01*
X132782143Y-140454819D02*
X133020238Y-140454819D01*
X133020238Y-140454819D02*
X133115476Y-140502438D01*
X133115476Y-140502438D02*
X133163095Y-140550057D01*
X133163095Y-140550057D02*
X133210714Y-140645295D01*
X133210714Y-140645295D02*
X133210714Y-140740533D01*
X133210714Y-140740533D02*
X133163095Y-140883390D01*
X133163095Y-140883390D02*
X132591667Y-141454819D01*
X132591667Y-141454819D02*
X133210714Y-141454819D01*
X77954819Y-78833333D02*
X78669104Y-78833333D01*
X78669104Y-78833333D02*
X78811961Y-78880952D01*
X78811961Y-78880952D02*
X78907200Y-78976190D01*
X78907200Y-78976190D02*
X78954819Y-79119047D01*
X78954819Y-79119047D02*
X78954819Y-79214285D01*
X77954819Y-77880952D02*
X77954819Y-78357142D01*
X77954819Y-78357142D02*
X78431009Y-78404761D01*
X78431009Y-78404761D02*
X78383390Y-78357142D01*
X78383390Y-78357142D02*
X78335771Y-78261904D01*
X78335771Y-78261904D02*
X78335771Y-78023809D01*
X78335771Y-78023809D02*
X78383390Y-77928571D01*
X78383390Y-77928571D02*
X78431009Y-77880952D01*
X78431009Y-77880952D02*
X78526247Y-77833333D01*
X78526247Y-77833333D02*
X78764342Y-77833333D01*
X78764342Y-77833333D02*
X78859580Y-77880952D01*
X78859580Y-77880952D02*
X78907200Y-77928571D01*
X78907200Y-77928571D02*
X78954819Y-78023809D01*
X78954819Y-78023809D02*
X78954819Y-78261904D01*
X78954819Y-78261904D02*
X78907200Y-78357142D01*
X78907200Y-78357142D02*
X78859580Y-78404761D01*
X136619761Y-117480057D02*
X136524523Y-117432438D01*
X136524523Y-117432438D02*
X136429285Y-117337200D01*
X136429285Y-117337200D02*
X136286428Y-117194342D01*
X136286428Y-117194342D02*
X136191190Y-117146723D01*
X136191190Y-117146723D02*
X136095952Y-117146723D01*
X136143571Y-117384819D02*
X136048333Y-117337200D01*
X136048333Y-117337200D02*
X135953095Y-117241961D01*
X135953095Y-117241961D02*
X135905476Y-117051485D01*
X135905476Y-117051485D02*
X135905476Y-116718152D01*
X135905476Y-116718152D02*
X135953095Y-116527676D01*
X135953095Y-116527676D02*
X136048333Y-116432438D01*
X136048333Y-116432438D02*
X136143571Y-116384819D01*
X136143571Y-116384819D02*
X136334047Y-116384819D01*
X136334047Y-116384819D02*
X136429285Y-116432438D01*
X136429285Y-116432438D02*
X136524523Y-116527676D01*
X136524523Y-116527676D02*
X136572142Y-116718152D01*
X136572142Y-116718152D02*
X136572142Y-117051485D01*
X136572142Y-117051485D02*
X136524523Y-117241961D01*
X136524523Y-117241961D02*
X136429285Y-117337200D01*
X136429285Y-117337200D02*
X136334047Y-117384819D01*
X136334047Y-117384819D02*
X136143571Y-117384819D01*
X136953095Y-116480057D02*
X137000714Y-116432438D01*
X137000714Y-116432438D02*
X137095952Y-116384819D01*
X137095952Y-116384819D02*
X137334047Y-116384819D01*
X137334047Y-116384819D02*
X137429285Y-116432438D01*
X137429285Y-116432438D02*
X137476904Y-116480057D01*
X137476904Y-116480057D02*
X137524523Y-116575295D01*
X137524523Y-116575295D02*
X137524523Y-116670533D01*
X137524523Y-116670533D02*
X137476904Y-116813390D01*
X137476904Y-116813390D02*
X136905476Y-117384819D01*
X136905476Y-117384819D02*
X137524523Y-117384819D01*
X120032142Y-111724819D02*
X119698809Y-111248628D01*
X119460714Y-111724819D02*
X119460714Y-110724819D01*
X119460714Y-110724819D02*
X119841666Y-110724819D01*
X119841666Y-110724819D02*
X119936904Y-110772438D01*
X119936904Y-110772438D02*
X119984523Y-110820057D01*
X119984523Y-110820057D02*
X120032142Y-110915295D01*
X120032142Y-110915295D02*
X120032142Y-111058152D01*
X120032142Y-111058152D02*
X119984523Y-111153390D01*
X119984523Y-111153390D02*
X119936904Y-111201009D01*
X119936904Y-111201009D02*
X119841666Y-111248628D01*
X119841666Y-111248628D02*
X119460714Y-111248628D01*
X120413095Y-110820057D02*
X120460714Y-110772438D01*
X120460714Y-110772438D02*
X120555952Y-110724819D01*
X120555952Y-110724819D02*
X120794047Y-110724819D01*
X120794047Y-110724819D02*
X120889285Y-110772438D01*
X120889285Y-110772438D02*
X120936904Y-110820057D01*
X120936904Y-110820057D02*
X120984523Y-110915295D01*
X120984523Y-110915295D02*
X120984523Y-111010533D01*
X120984523Y-111010533D02*
X120936904Y-111153390D01*
X120936904Y-111153390D02*
X120365476Y-111724819D01*
X120365476Y-111724819D02*
X120984523Y-111724819D01*
X121603571Y-110724819D02*
X121698809Y-110724819D01*
X121698809Y-110724819D02*
X121794047Y-110772438D01*
X121794047Y-110772438D02*
X121841666Y-110820057D01*
X121841666Y-110820057D02*
X121889285Y-110915295D01*
X121889285Y-110915295D02*
X121936904Y-111105771D01*
X121936904Y-111105771D02*
X121936904Y-111343866D01*
X121936904Y-111343866D02*
X121889285Y-111534342D01*
X121889285Y-111534342D02*
X121841666Y-111629580D01*
X121841666Y-111629580D02*
X121794047Y-111677200D01*
X121794047Y-111677200D02*
X121698809Y-111724819D01*
X121698809Y-111724819D02*
X121603571Y-111724819D01*
X121603571Y-111724819D02*
X121508333Y-111677200D01*
X121508333Y-111677200D02*
X121460714Y-111629580D01*
X121460714Y-111629580D02*
X121413095Y-111534342D01*
X121413095Y-111534342D02*
X121365476Y-111343866D01*
X121365476Y-111343866D02*
X121365476Y-111105771D01*
X121365476Y-111105771D02*
X121413095Y-110915295D01*
X121413095Y-110915295D02*
X121460714Y-110820057D01*
X121460714Y-110820057D02*
X121508333Y-110772438D01*
X121508333Y-110772438D02*
X121603571Y-110724819D01*
X120032142Y-116744819D02*
X119698809Y-116268628D01*
X119460714Y-116744819D02*
X119460714Y-115744819D01*
X119460714Y-115744819D02*
X119841666Y-115744819D01*
X119841666Y-115744819D02*
X119936904Y-115792438D01*
X119936904Y-115792438D02*
X119984523Y-115840057D01*
X119984523Y-115840057D02*
X120032142Y-115935295D01*
X120032142Y-115935295D02*
X120032142Y-116078152D01*
X120032142Y-116078152D02*
X119984523Y-116173390D01*
X119984523Y-116173390D02*
X119936904Y-116221009D01*
X119936904Y-116221009D02*
X119841666Y-116268628D01*
X119841666Y-116268628D02*
X119460714Y-116268628D01*
X120413095Y-115840057D02*
X120460714Y-115792438D01*
X120460714Y-115792438D02*
X120555952Y-115744819D01*
X120555952Y-115744819D02*
X120794047Y-115744819D01*
X120794047Y-115744819D02*
X120889285Y-115792438D01*
X120889285Y-115792438D02*
X120936904Y-115840057D01*
X120936904Y-115840057D02*
X120984523Y-115935295D01*
X120984523Y-115935295D02*
X120984523Y-116030533D01*
X120984523Y-116030533D02*
X120936904Y-116173390D01*
X120936904Y-116173390D02*
X120365476Y-116744819D01*
X120365476Y-116744819D02*
X120984523Y-116744819D01*
X121365476Y-115840057D02*
X121413095Y-115792438D01*
X121413095Y-115792438D02*
X121508333Y-115744819D01*
X121508333Y-115744819D02*
X121746428Y-115744819D01*
X121746428Y-115744819D02*
X121841666Y-115792438D01*
X121841666Y-115792438D02*
X121889285Y-115840057D01*
X121889285Y-115840057D02*
X121936904Y-115935295D01*
X121936904Y-115935295D02*
X121936904Y-116030533D01*
X121936904Y-116030533D02*
X121889285Y-116173390D01*
X121889285Y-116173390D02*
X121317857Y-116744819D01*
X121317857Y-116744819D02*
X121936904Y-116744819D01*
X112488333Y-121764819D02*
X112155000Y-121288628D01*
X111916905Y-121764819D02*
X111916905Y-120764819D01*
X111916905Y-120764819D02*
X112297857Y-120764819D01*
X112297857Y-120764819D02*
X112393095Y-120812438D01*
X112393095Y-120812438D02*
X112440714Y-120860057D01*
X112440714Y-120860057D02*
X112488333Y-120955295D01*
X112488333Y-120955295D02*
X112488333Y-121098152D01*
X112488333Y-121098152D02*
X112440714Y-121193390D01*
X112440714Y-121193390D02*
X112393095Y-121241009D01*
X112393095Y-121241009D02*
X112297857Y-121288628D01*
X112297857Y-121288628D02*
X111916905Y-121288628D01*
X113440714Y-121764819D02*
X112869286Y-121764819D01*
X113155000Y-121764819D02*
X113155000Y-120764819D01*
X113155000Y-120764819D02*
X113059762Y-120907676D01*
X113059762Y-120907676D02*
X112964524Y-121002914D01*
X112964524Y-121002914D02*
X112869286Y-121050533D01*
X73166667Y-141704819D02*
X73166667Y-140704819D01*
X73166667Y-140704819D02*
X73500000Y-141419104D01*
X73500000Y-141419104D02*
X73833333Y-140704819D01*
X73833333Y-140704819D02*
X73833333Y-141704819D01*
X74309524Y-141704819D02*
X74309524Y-140704819D01*
X74309524Y-141181009D02*
X74880952Y-141181009D01*
X74880952Y-141704819D02*
X74880952Y-140704819D01*
X75309524Y-140800057D02*
X75357143Y-140752438D01*
X75357143Y-140752438D02*
X75452381Y-140704819D01*
X75452381Y-140704819D02*
X75690476Y-140704819D01*
X75690476Y-140704819D02*
X75785714Y-140752438D01*
X75785714Y-140752438D02*
X75833333Y-140800057D01*
X75833333Y-140800057D02*
X75880952Y-140895295D01*
X75880952Y-140895295D02*
X75880952Y-140990533D01*
X75880952Y-140990533D02*
X75833333Y-141133390D01*
X75833333Y-141133390D02*
X75261905Y-141704819D01*
X75261905Y-141704819D02*
X75880952Y-141704819D01*
X153681905Y-128524819D02*
X153681905Y-127524819D01*
X153681905Y-127524819D02*
X153920000Y-127524819D01*
X153920000Y-127524819D02*
X154062857Y-127572438D01*
X154062857Y-127572438D02*
X154158095Y-127667676D01*
X154158095Y-127667676D02*
X154205714Y-127762914D01*
X154205714Y-127762914D02*
X154253333Y-127953390D01*
X154253333Y-127953390D02*
X154253333Y-128096247D01*
X154253333Y-128096247D02*
X154205714Y-128286723D01*
X154205714Y-128286723D02*
X154158095Y-128381961D01*
X154158095Y-128381961D02*
X154062857Y-128477200D01*
X154062857Y-128477200D02*
X153920000Y-128524819D01*
X153920000Y-128524819D02*
X153681905Y-128524819D01*
X154586667Y-127524819D02*
X155205714Y-127524819D01*
X155205714Y-127524819D02*
X154872381Y-127905771D01*
X154872381Y-127905771D02*
X155015238Y-127905771D01*
X155015238Y-127905771D02*
X155110476Y-127953390D01*
X155110476Y-127953390D02*
X155158095Y-128001009D01*
X155158095Y-128001009D02*
X155205714Y-128096247D01*
X155205714Y-128096247D02*
X155205714Y-128334342D01*
X155205714Y-128334342D02*
X155158095Y-128429580D01*
X155158095Y-128429580D02*
X155110476Y-128477200D01*
X155110476Y-128477200D02*
X155015238Y-128524819D01*
X155015238Y-128524819D02*
X154729524Y-128524819D01*
X154729524Y-128524819D02*
X154634286Y-128477200D01*
X154634286Y-128477200D02*
X154586667Y-128429580D01*
X120032142Y-114234819D02*
X119698809Y-113758628D01*
X119460714Y-114234819D02*
X119460714Y-113234819D01*
X119460714Y-113234819D02*
X119841666Y-113234819D01*
X119841666Y-113234819D02*
X119936904Y-113282438D01*
X119936904Y-113282438D02*
X119984523Y-113330057D01*
X119984523Y-113330057D02*
X120032142Y-113425295D01*
X120032142Y-113425295D02*
X120032142Y-113568152D01*
X120032142Y-113568152D02*
X119984523Y-113663390D01*
X119984523Y-113663390D02*
X119936904Y-113711009D01*
X119936904Y-113711009D02*
X119841666Y-113758628D01*
X119841666Y-113758628D02*
X119460714Y-113758628D01*
X120413095Y-113330057D02*
X120460714Y-113282438D01*
X120460714Y-113282438D02*
X120555952Y-113234819D01*
X120555952Y-113234819D02*
X120794047Y-113234819D01*
X120794047Y-113234819D02*
X120889285Y-113282438D01*
X120889285Y-113282438D02*
X120936904Y-113330057D01*
X120936904Y-113330057D02*
X120984523Y-113425295D01*
X120984523Y-113425295D02*
X120984523Y-113520533D01*
X120984523Y-113520533D02*
X120936904Y-113663390D01*
X120936904Y-113663390D02*
X120365476Y-114234819D01*
X120365476Y-114234819D02*
X120984523Y-114234819D01*
X121936904Y-114234819D02*
X121365476Y-114234819D01*
X121651190Y-114234819D02*
X121651190Y-113234819D01*
X121651190Y-113234819D02*
X121555952Y-113377676D01*
X121555952Y-113377676D02*
X121460714Y-113472914D01*
X121460714Y-113472914D02*
X121365476Y-113520533D01*
X112488333Y-129294819D02*
X112155000Y-128818628D01*
X111916905Y-129294819D02*
X111916905Y-128294819D01*
X111916905Y-128294819D02*
X112297857Y-128294819D01*
X112297857Y-128294819D02*
X112393095Y-128342438D01*
X112393095Y-128342438D02*
X112440714Y-128390057D01*
X112440714Y-128390057D02*
X112488333Y-128485295D01*
X112488333Y-128485295D02*
X112488333Y-128628152D01*
X112488333Y-128628152D02*
X112440714Y-128723390D01*
X112440714Y-128723390D02*
X112393095Y-128771009D01*
X112393095Y-128771009D02*
X112297857Y-128818628D01*
X112297857Y-128818628D02*
X111916905Y-128818628D01*
X113345476Y-128628152D02*
X113345476Y-129294819D01*
X113107381Y-128247200D02*
X112869286Y-128961485D01*
X112869286Y-128961485D02*
X113488333Y-128961485D01*
X108711905Y-74654819D02*
X108711905Y-73654819D01*
X109283333Y-74654819D02*
X108854762Y-74083390D01*
X109283333Y-73654819D02*
X108711905Y-74226247D01*
X110235714Y-74654819D02*
X109664286Y-74654819D01*
X109950000Y-74654819D02*
X109950000Y-73654819D01*
X109950000Y-73654819D02*
X109854762Y-73797676D01*
X109854762Y-73797676D02*
X109759524Y-73892914D01*
X109759524Y-73892914D02*
X109664286Y-73940533D01*
X112012142Y-119159580D02*
X111964523Y-119207200D01*
X111964523Y-119207200D02*
X111821666Y-119254819D01*
X111821666Y-119254819D02*
X111726428Y-119254819D01*
X111726428Y-119254819D02*
X111583571Y-119207200D01*
X111583571Y-119207200D02*
X111488333Y-119111961D01*
X111488333Y-119111961D02*
X111440714Y-119016723D01*
X111440714Y-119016723D02*
X111393095Y-118826247D01*
X111393095Y-118826247D02*
X111393095Y-118683390D01*
X111393095Y-118683390D02*
X111440714Y-118492914D01*
X111440714Y-118492914D02*
X111488333Y-118397676D01*
X111488333Y-118397676D02*
X111583571Y-118302438D01*
X111583571Y-118302438D02*
X111726428Y-118254819D01*
X111726428Y-118254819D02*
X111821666Y-118254819D01*
X111821666Y-118254819D02*
X111964523Y-118302438D01*
X111964523Y-118302438D02*
X112012142Y-118350057D01*
X112964523Y-119254819D02*
X112393095Y-119254819D01*
X112678809Y-119254819D02*
X112678809Y-118254819D01*
X112678809Y-118254819D02*
X112583571Y-118397676D01*
X112583571Y-118397676D02*
X112488333Y-118492914D01*
X112488333Y-118492914D02*
X112393095Y-118540533D01*
X113869285Y-118254819D02*
X113393095Y-118254819D01*
X113393095Y-118254819D02*
X113345476Y-118731009D01*
X113345476Y-118731009D02*
X113393095Y-118683390D01*
X113393095Y-118683390D02*
X113488333Y-118635771D01*
X113488333Y-118635771D02*
X113726428Y-118635771D01*
X113726428Y-118635771D02*
X113821666Y-118683390D01*
X113821666Y-118683390D02*
X113869285Y-118731009D01*
X113869285Y-118731009D02*
X113916904Y-118826247D01*
X113916904Y-118826247D02*
X113916904Y-119064342D01*
X113916904Y-119064342D02*
X113869285Y-119159580D01*
X113869285Y-119159580D02*
X113821666Y-119207200D01*
X113821666Y-119207200D02*
X113726428Y-119254819D01*
X113726428Y-119254819D02*
X113488333Y-119254819D01*
X113488333Y-119254819D02*
X113393095Y-119207200D01*
X113393095Y-119207200D02*
X113345476Y-119159580D01*
X126598810Y-124894819D02*
X126598810Y-123894819D01*
X127027381Y-124847200D02*
X127170238Y-124894819D01*
X127170238Y-124894819D02*
X127408333Y-124894819D01*
X127408333Y-124894819D02*
X127503571Y-124847200D01*
X127503571Y-124847200D02*
X127551190Y-124799580D01*
X127551190Y-124799580D02*
X127598809Y-124704342D01*
X127598809Y-124704342D02*
X127598809Y-124609104D01*
X127598809Y-124609104D02*
X127551190Y-124513866D01*
X127551190Y-124513866D02*
X127503571Y-124466247D01*
X127503571Y-124466247D02*
X127408333Y-124418628D01*
X127408333Y-124418628D02*
X127217857Y-124371009D01*
X127217857Y-124371009D02*
X127122619Y-124323390D01*
X127122619Y-124323390D02*
X127075000Y-124275771D01*
X127075000Y-124275771D02*
X127027381Y-124180533D01*
X127027381Y-124180533D02*
X127027381Y-124085295D01*
X127027381Y-124085295D02*
X127075000Y-123990057D01*
X127075000Y-123990057D02*
X127122619Y-123942438D01*
X127122619Y-123942438D02*
X127217857Y-123894819D01*
X127217857Y-123894819D02*
X127455952Y-123894819D01*
X127455952Y-123894819D02*
X127598809Y-123942438D01*
X128217857Y-123894819D02*
X128408333Y-123894819D01*
X128408333Y-123894819D02*
X128503571Y-123942438D01*
X128503571Y-123942438D02*
X128598809Y-124037676D01*
X128598809Y-124037676D02*
X128646428Y-124228152D01*
X128646428Y-124228152D02*
X128646428Y-124561485D01*
X128646428Y-124561485D02*
X128598809Y-124751961D01*
X128598809Y-124751961D02*
X128503571Y-124847200D01*
X128503571Y-124847200D02*
X128408333Y-124894819D01*
X128408333Y-124894819D02*
X128217857Y-124894819D01*
X128217857Y-124894819D02*
X128122619Y-124847200D01*
X128122619Y-124847200D02*
X128027381Y-124751961D01*
X128027381Y-124751961D02*
X127979762Y-124561485D01*
X127979762Y-124561485D02*
X127979762Y-124228152D01*
X127979762Y-124228152D02*
X128027381Y-124037676D01*
X128027381Y-124037676D02*
X128122619Y-123942438D01*
X128122619Y-123942438D02*
X128217857Y-123894819D01*
X128979762Y-123894819D02*
X129598809Y-123894819D01*
X129598809Y-123894819D02*
X129265476Y-124275771D01*
X129265476Y-124275771D02*
X129408333Y-124275771D01*
X129408333Y-124275771D02*
X129503571Y-124323390D01*
X129503571Y-124323390D02*
X129551190Y-124371009D01*
X129551190Y-124371009D02*
X129598809Y-124466247D01*
X129598809Y-124466247D02*
X129598809Y-124704342D01*
X129598809Y-124704342D02*
X129551190Y-124799580D01*
X129551190Y-124799580D02*
X129503571Y-124847200D01*
X129503571Y-124847200D02*
X129408333Y-124894819D01*
X129408333Y-124894819D02*
X129122619Y-124894819D01*
X129122619Y-124894819D02*
X129027381Y-124847200D01*
X129027381Y-124847200D02*
X128979762Y-124799580D01*
X114366666Y-144974819D02*
X114366666Y-145689104D01*
X114366666Y-145689104D02*
X114319047Y-145831961D01*
X114319047Y-145831961D02*
X114223809Y-145927200D01*
X114223809Y-145927200D02*
X114080952Y-145974819D01*
X114080952Y-145974819D02*
X113985714Y-145974819D01*
X114747619Y-144974819D02*
X115366666Y-144974819D01*
X115366666Y-144974819D02*
X115033333Y-145355771D01*
X115033333Y-145355771D02*
X115176190Y-145355771D01*
X115176190Y-145355771D02*
X115271428Y-145403390D01*
X115271428Y-145403390D02*
X115319047Y-145451009D01*
X115319047Y-145451009D02*
X115366666Y-145546247D01*
X115366666Y-145546247D02*
X115366666Y-145784342D01*
X115366666Y-145784342D02*
X115319047Y-145879580D01*
X115319047Y-145879580D02*
X115271428Y-145927200D01*
X115271428Y-145927200D02*
X115176190Y-145974819D01*
X115176190Y-145974819D02*
X114890476Y-145974819D01*
X114890476Y-145974819D02*
X114795238Y-145927200D01*
X114795238Y-145927200D02*
X114747619Y-145879580D01*
X112488333Y-131804819D02*
X112155000Y-131328628D01*
X111916905Y-131804819D02*
X111916905Y-130804819D01*
X111916905Y-130804819D02*
X112297857Y-130804819D01*
X112297857Y-130804819D02*
X112393095Y-130852438D01*
X112393095Y-130852438D02*
X112440714Y-130900057D01*
X112440714Y-130900057D02*
X112488333Y-130995295D01*
X112488333Y-130995295D02*
X112488333Y-131138152D01*
X112488333Y-131138152D02*
X112440714Y-131233390D01*
X112440714Y-131233390D02*
X112393095Y-131281009D01*
X112393095Y-131281009D02*
X112297857Y-131328628D01*
X112297857Y-131328628D02*
X111916905Y-131328628D01*
X113393095Y-130804819D02*
X112916905Y-130804819D01*
X112916905Y-130804819D02*
X112869286Y-131281009D01*
X112869286Y-131281009D02*
X112916905Y-131233390D01*
X112916905Y-131233390D02*
X113012143Y-131185771D01*
X113012143Y-131185771D02*
X113250238Y-131185771D01*
X113250238Y-131185771D02*
X113345476Y-131233390D01*
X113345476Y-131233390D02*
X113393095Y-131281009D01*
X113393095Y-131281009D02*
X113440714Y-131376247D01*
X113440714Y-131376247D02*
X113440714Y-131614342D01*
X113440714Y-131614342D02*
X113393095Y-131709580D01*
X113393095Y-131709580D02*
X113345476Y-131757200D01*
X113345476Y-131757200D02*
X113250238Y-131804819D01*
X113250238Y-131804819D02*
X113012143Y-131804819D01*
X113012143Y-131804819D02*
X112916905Y-131757200D01*
X112916905Y-131757200D02*
X112869286Y-131709580D01*
X77954819Y-91333333D02*
X78669104Y-91333333D01*
X78669104Y-91333333D02*
X78811961Y-91380952D01*
X78811961Y-91380952D02*
X78907200Y-91476190D01*
X78907200Y-91476190D02*
X78954819Y-91619047D01*
X78954819Y-91619047D02*
X78954819Y-91714285D01*
X77954819Y-90428571D02*
X77954819Y-90619047D01*
X77954819Y-90619047D02*
X78002438Y-90714285D01*
X78002438Y-90714285D02*
X78050057Y-90761904D01*
X78050057Y-90761904D02*
X78192914Y-90857142D01*
X78192914Y-90857142D02*
X78383390Y-90904761D01*
X78383390Y-90904761D02*
X78764342Y-90904761D01*
X78764342Y-90904761D02*
X78859580Y-90857142D01*
X78859580Y-90857142D02*
X78907200Y-90809523D01*
X78907200Y-90809523D02*
X78954819Y-90714285D01*
X78954819Y-90714285D02*
X78954819Y-90523809D01*
X78954819Y-90523809D02*
X78907200Y-90428571D01*
X78907200Y-90428571D02*
X78859580Y-90380952D01*
X78859580Y-90380952D02*
X78764342Y-90333333D01*
X78764342Y-90333333D02*
X78526247Y-90333333D01*
X78526247Y-90333333D02*
X78431009Y-90380952D01*
X78431009Y-90380952D02*
X78383390Y-90428571D01*
X78383390Y-90428571D02*
X78335771Y-90523809D01*
X78335771Y-90523809D02*
X78335771Y-90714285D01*
X78335771Y-90714285D02*
X78383390Y-90809523D01*
X78383390Y-90809523D02*
X78431009Y-90857142D01*
X78431009Y-90857142D02*
X78526247Y-90904761D01*
X116498333Y-119254819D02*
X116165000Y-118778628D01*
X115926905Y-119254819D02*
X115926905Y-118254819D01*
X115926905Y-118254819D02*
X116307857Y-118254819D01*
X116307857Y-118254819D02*
X116403095Y-118302438D01*
X116403095Y-118302438D02*
X116450714Y-118350057D01*
X116450714Y-118350057D02*
X116498333Y-118445295D01*
X116498333Y-118445295D02*
X116498333Y-118588152D01*
X116498333Y-118588152D02*
X116450714Y-118683390D01*
X116450714Y-118683390D02*
X116403095Y-118731009D01*
X116403095Y-118731009D02*
X116307857Y-118778628D01*
X116307857Y-118778628D02*
X115926905Y-118778628D01*
X116974524Y-119254819D02*
X117165000Y-119254819D01*
X117165000Y-119254819D02*
X117260238Y-119207200D01*
X117260238Y-119207200D02*
X117307857Y-119159580D01*
X117307857Y-119159580D02*
X117403095Y-119016723D01*
X117403095Y-119016723D02*
X117450714Y-118826247D01*
X117450714Y-118826247D02*
X117450714Y-118445295D01*
X117450714Y-118445295D02*
X117403095Y-118350057D01*
X117403095Y-118350057D02*
X117355476Y-118302438D01*
X117355476Y-118302438D02*
X117260238Y-118254819D01*
X117260238Y-118254819D02*
X117069762Y-118254819D01*
X117069762Y-118254819D02*
X116974524Y-118302438D01*
X116974524Y-118302438D02*
X116926905Y-118350057D01*
X116926905Y-118350057D02*
X116879286Y-118445295D01*
X116879286Y-118445295D02*
X116879286Y-118683390D01*
X116879286Y-118683390D02*
X116926905Y-118778628D01*
X116926905Y-118778628D02*
X116974524Y-118826247D01*
X116974524Y-118826247D02*
X117069762Y-118873866D01*
X117069762Y-118873866D02*
X117260238Y-118873866D01*
X117260238Y-118873866D02*
X117355476Y-118826247D01*
X117355476Y-118826247D02*
X117403095Y-118778628D01*
X117403095Y-118778628D02*
X117450714Y-118683390D01*
X180666667Y-47204819D02*
X180666667Y-46204819D01*
X180666667Y-46204819D02*
X181000000Y-46919104D01*
X181000000Y-46919104D02*
X181333333Y-46204819D01*
X181333333Y-46204819D02*
X181333333Y-47204819D01*
X181809524Y-47204819D02*
X181809524Y-46204819D01*
X181809524Y-46681009D02*
X182380952Y-46681009D01*
X182380952Y-47204819D02*
X182380952Y-46204819D01*
X182761905Y-46204819D02*
X183380952Y-46204819D01*
X183380952Y-46204819D02*
X183047619Y-46585771D01*
X183047619Y-46585771D02*
X183190476Y-46585771D01*
X183190476Y-46585771D02*
X183285714Y-46633390D01*
X183285714Y-46633390D02*
X183333333Y-46681009D01*
X183333333Y-46681009D02*
X183380952Y-46776247D01*
X183380952Y-46776247D02*
X183380952Y-47014342D01*
X183380952Y-47014342D02*
X183333333Y-47109580D01*
X183333333Y-47109580D02*
X183285714Y-47157200D01*
X183285714Y-47157200D02*
X183190476Y-47204819D01*
X183190476Y-47204819D02*
X182904762Y-47204819D01*
X182904762Y-47204819D02*
X182809524Y-47157200D01*
X182809524Y-47157200D02*
X182761905Y-47109580D01*
X112012142Y-116649580D02*
X111964523Y-116697200D01*
X111964523Y-116697200D02*
X111821666Y-116744819D01*
X111821666Y-116744819D02*
X111726428Y-116744819D01*
X111726428Y-116744819D02*
X111583571Y-116697200D01*
X111583571Y-116697200D02*
X111488333Y-116601961D01*
X111488333Y-116601961D02*
X111440714Y-116506723D01*
X111440714Y-116506723D02*
X111393095Y-116316247D01*
X111393095Y-116316247D02*
X111393095Y-116173390D01*
X111393095Y-116173390D02*
X111440714Y-115982914D01*
X111440714Y-115982914D02*
X111488333Y-115887676D01*
X111488333Y-115887676D02*
X111583571Y-115792438D01*
X111583571Y-115792438D02*
X111726428Y-115744819D01*
X111726428Y-115744819D02*
X111821666Y-115744819D01*
X111821666Y-115744819D02*
X111964523Y-115792438D01*
X111964523Y-115792438D02*
X112012142Y-115840057D01*
X112964523Y-116744819D02*
X112393095Y-116744819D01*
X112678809Y-116744819D02*
X112678809Y-115744819D01*
X112678809Y-115744819D02*
X112583571Y-115887676D01*
X112583571Y-115887676D02*
X112488333Y-115982914D01*
X112488333Y-115982914D02*
X112393095Y-116030533D01*
X113821666Y-116078152D02*
X113821666Y-116744819D01*
X113583571Y-115697200D02*
X113345476Y-116411485D01*
X113345476Y-116411485D02*
X113964523Y-116411485D01*
X112012142Y-114139580D02*
X111964523Y-114187200D01*
X111964523Y-114187200D02*
X111821666Y-114234819D01*
X111821666Y-114234819D02*
X111726428Y-114234819D01*
X111726428Y-114234819D02*
X111583571Y-114187200D01*
X111583571Y-114187200D02*
X111488333Y-114091961D01*
X111488333Y-114091961D02*
X111440714Y-113996723D01*
X111440714Y-113996723D02*
X111393095Y-113806247D01*
X111393095Y-113806247D02*
X111393095Y-113663390D01*
X111393095Y-113663390D02*
X111440714Y-113472914D01*
X111440714Y-113472914D02*
X111488333Y-113377676D01*
X111488333Y-113377676D02*
X111583571Y-113282438D01*
X111583571Y-113282438D02*
X111726428Y-113234819D01*
X111726428Y-113234819D02*
X111821666Y-113234819D01*
X111821666Y-113234819D02*
X111964523Y-113282438D01*
X111964523Y-113282438D02*
X112012142Y-113330057D01*
X112964523Y-114234819D02*
X112393095Y-114234819D01*
X112678809Y-114234819D02*
X112678809Y-113234819D01*
X112678809Y-113234819D02*
X112583571Y-113377676D01*
X112583571Y-113377676D02*
X112488333Y-113472914D01*
X112488333Y-113472914D02*
X112393095Y-113520533D01*
X113916904Y-114234819D02*
X113345476Y-114234819D01*
X113631190Y-114234819D02*
X113631190Y-113234819D01*
X113631190Y-113234819D02*
X113535952Y-113377676D01*
X113535952Y-113377676D02*
X113440714Y-113472914D01*
X113440714Y-113472914D02*
X113345476Y-113520533D01*
X135401667Y-130157200D02*
X135544524Y-130204819D01*
X135544524Y-130204819D02*
X135782619Y-130204819D01*
X135782619Y-130204819D02*
X135877857Y-130157200D01*
X135877857Y-130157200D02*
X135925476Y-130109580D01*
X135925476Y-130109580D02*
X135973095Y-130014342D01*
X135973095Y-130014342D02*
X135973095Y-129919104D01*
X135973095Y-129919104D02*
X135925476Y-129823866D01*
X135925476Y-129823866D02*
X135877857Y-129776247D01*
X135877857Y-129776247D02*
X135782619Y-129728628D01*
X135782619Y-129728628D02*
X135592143Y-129681009D01*
X135592143Y-129681009D02*
X135496905Y-129633390D01*
X135496905Y-129633390D02*
X135449286Y-129585771D01*
X135449286Y-129585771D02*
X135401667Y-129490533D01*
X135401667Y-129490533D02*
X135401667Y-129395295D01*
X135401667Y-129395295D02*
X135449286Y-129300057D01*
X135449286Y-129300057D02*
X135496905Y-129252438D01*
X135496905Y-129252438D02*
X135592143Y-129204819D01*
X135592143Y-129204819D02*
X135830238Y-129204819D01*
X135830238Y-129204819D02*
X135973095Y-129252438D01*
X136306429Y-129204819D02*
X136544524Y-130204819D01*
X136544524Y-130204819D02*
X136735000Y-129490533D01*
X136735000Y-129490533D02*
X136925476Y-130204819D01*
X136925476Y-130204819D02*
X137163572Y-129204819D01*
X138068333Y-130204819D02*
X137496905Y-130204819D01*
X137782619Y-130204819D02*
X137782619Y-129204819D01*
X137782619Y-129204819D02*
X137687381Y-129347676D01*
X137687381Y-129347676D02*
X137592143Y-129442914D01*
X137592143Y-129442914D02*
X137496905Y-129490533D01*
X162194819Y-95708333D02*
X162909104Y-95708333D01*
X162909104Y-95708333D02*
X163051961Y-95755952D01*
X163051961Y-95755952D02*
X163147200Y-95851190D01*
X163147200Y-95851190D02*
X163194819Y-95994047D01*
X163194819Y-95994047D02*
X163194819Y-96089285D01*
X162290057Y-95279761D02*
X162242438Y-95232142D01*
X162242438Y-95232142D02*
X162194819Y-95136904D01*
X162194819Y-95136904D02*
X162194819Y-94898809D01*
X162194819Y-94898809D02*
X162242438Y-94803571D01*
X162242438Y-94803571D02*
X162290057Y-94755952D01*
X162290057Y-94755952D02*
X162385295Y-94708333D01*
X162385295Y-94708333D02*
X162480533Y-94708333D01*
X162480533Y-94708333D02*
X162623390Y-94755952D01*
X162623390Y-94755952D02*
X163194819Y-95327380D01*
X163194819Y-95327380D02*
X163194819Y-94708333D01*
X99407142Y-120129580D02*
X99359523Y-120177200D01*
X99359523Y-120177200D02*
X99216666Y-120224819D01*
X99216666Y-120224819D02*
X99121428Y-120224819D01*
X99121428Y-120224819D02*
X98978571Y-120177200D01*
X98978571Y-120177200D02*
X98883333Y-120081961D01*
X98883333Y-120081961D02*
X98835714Y-119986723D01*
X98835714Y-119986723D02*
X98788095Y-119796247D01*
X98788095Y-119796247D02*
X98788095Y-119653390D01*
X98788095Y-119653390D02*
X98835714Y-119462914D01*
X98835714Y-119462914D02*
X98883333Y-119367676D01*
X98883333Y-119367676D02*
X98978571Y-119272438D01*
X98978571Y-119272438D02*
X99121428Y-119224819D01*
X99121428Y-119224819D02*
X99216666Y-119224819D01*
X99216666Y-119224819D02*
X99359523Y-119272438D01*
X99359523Y-119272438D02*
X99407142Y-119320057D01*
X99788095Y-119320057D02*
X99835714Y-119272438D01*
X99835714Y-119272438D02*
X99930952Y-119224819D01*
X99930952Y-119224819D02*
X100169047Y-119224819D01*
X100169047Y-119224819D02*
X100264285Y-119272438D01*
X100264285Y-119272438D02*
X100311904Y-119320057D01*
X100311904Y-119320057D02*
X100359523Y-119415295D01*
X100359523Y-119415295D02*
X100359523Y-119510533D01*
X100359523Y-119510533D02*
X100311904Y-119653390D01*
X100311904Y-119653390D02*
X99740476Y-120224819D01*
X99740476Y-120224819D02*
X100359523Y-120224819D01*
X100978571Y-119224819D02*
X101073809Y-119224819D01*
X101073809Y-119224819D02*
X101169047Y-119272438D01*
X101169047Y-119272438D02*
X101216666Y-119320057D01*
X101216666Y-119320057D02*
X101264285Y-119415295D01*
X101264285Y-119415295D02*
X101311904Y-119605771D01*
X101311904Y-119605771D02*
X101311904Y-119843866D01*
X101311904Y-119843866D02*
X101264285Y-120034342D01*
X101264285Y-120034342D02*
X101216666Y-120129580D01*
X101216666Y-120129580D02*
X101169047Y-120177200D01*
X101169047Y-120177200D02*
X101073809Y-120224819D01*
X101073809Y-120224819D02*
X100978571Y-120224819D01*
X100978571Y-120224819D02*
X100883333Y-120177200D01*
X100883333Y-120177200D02*
X100835714Y-120129580D01*
X100835714Y-120129580D02*
X100788095Y-120034342D01*
X100788095Y-120034342D02*
X100740476Y-119843866D01*
X100740476Y-119843866D02*
X100740476Y-119605771D01*
X100740476Y-119605771D02*
X100788095Y-119415295D01*
X100788095Y-119415295D02*
X100835714Y-119320057D01*
X100835714Y-119320057D02*
X100883333Y-119272438D01*
X100883333Y-119272438D02*
X100978571Y-119224819D01*
X178616666Y-128162319D02*
X178616666Y-128876604D01*
X178616666Y-128876604D02*
X178569047Y-129019461D01*
X178569047Y-129019461D02*
X178473809Y-129114700D01*
X178473809Y-129114700D02*
X178330952Y-129162319D01*
X178330952Y-129162319D02*
X178235714Y-129162319D01*
X179616666Y-129162319D02*
X179045238Y-129162319D01*
X179330952Y-129162319D02*
X179330952Y-128162319D01*
X179330952Y-128162319D02*
X179235714Y-128305176D01*
X179235714Y-128305176D02*
X179140476Y-128400414D01*
X179140476Y-128400414D02*
X179045238Y-128448033D01*
X99407142Y-132879580D02*
X99359523Y-132927200D01*
X99359523Y-132927200D02*
X99216666Y-132974819D01*
X99216666Y-132974819D02*
X99121428Y-132974819D01*
X99121428Y-132974819D02*
X98978571Y-132927200D01*
X98978571Y-132927200D02*
X98883333Y-132831961D01*
X98883333Y-132831961D02*
X98835714Y-132736723D01*
X98835714Y-132736723D02*
X98788095Y-132546247D01*
X98788095Y-132546247D02*
X98788095Y-132403390D01*
X98788095Y-132403390D02*
X98835714Y-132212914D01*
X98835714Y-132212914D02*
X98883333Y-132117676D01*
X98883333Y-132117676D02*
X98978571Y-132022438D01*
X98978571Y-132022438D02*
X99121428Y-131974819D01*
X99121428Y-131974819D02*
X99216666Y-131974819D01*
X99216666Y-131974819D02*
X99359523Y-132022438D01*
X99359523Y-132022438D02*
X99407142Y-132070057D01*
X99788095Y-132070057D02*
X99835714Y-132022438D01*
X99835714Y-132022438D02*
X99930952Y-131974819D01*
X99930952Y-131974819D02*
X100169047Y-131974819D01*
X100169047Y-131974819D02*
X100264285Y-132022438D01*
X100264285Y-132022438D02*
X100311904Y-132070057D01*
X100311904Y-132070057D02*
X100359523Y-132165295D01*
X100359523Y-132165295D02*
X100359523Y-132260533D01*
X100359523Y-132260533D02*
X100311904Y-132403390D01*
X100311904Y-132403390D02*
X99740476Y-132974819D01*
X99740476Y-132974819D02*
X100359523Y-132974819D01*
X100692857Y-131974819D02*
X101311904Y-131974819D01*
X101311904Y-131974819D02*
X100978571Y-132355771D01*
X100978571Y-132355771D02*
X101121428Y-132355771D01*
X101121428Y-132355771D02*
X101216666Y-132403390D01*
X101216666Y-132403390D02*
X101264285Y-132451009D01*
X101264285Y-132451009D02*
X101311904Y-132546247D01*
X101311904Y-132546247D02*
X101311904Y-132784342D01*
X101311904Y-132784342D02*
X101264285Y-132879580D01*
X101264285Y-132879580D02*
X101216666Y-132927200D01*
X101216666Y-132927200D02*
X101121428Y-132974819D01*
X101121428Y-132974819D02*
X100835714Y-132974819D01*
X100835714Y-132974819D02*
X100740476Y-132927200D01*
X100740476Y-132927200D02*
X100692857Y-132879580D01*
X180666667Y-141704819D02*
X180666667Y-140704819D01*
X180666667Y-140704819D02*
X181000000Y-141419104D01*
X181000000Y-141419104D02*
X181333333Y-140704819D01*
X181333333Y-140704819D02*
X181333333Y-141704819D01*
X181809524Y-141704819D02*
X181809524Y-140704819D01*
X181809524Y-141181009D02*
X182380952Y-141181009D01*
X182380952Y-141704819D02*
X182380952Y-140704819D01*
X183285714Y-141038152D02*
X183285714Y-141704819D01*
X183047619Y-140657200D02*
X182809524Y-141371485D01*
X182809524Y-141371485D02*
X183428571Y-141371485D01*
X147263095Y-127899819D02*
X147263095Y-128709342D01*
X147263095Y-128709342D02*
X147310714Y-128804580D01*
X147310714Y-128804580D02*
X147358333Y-128852200D01*
X147358333Y-128852200D02*
X147453571Y-128899819D01*
X147453571Y-128899819D02*
X147644047Y-128899819D01*
X147644047Y-128899819D02*
X147739285Y-128852200D01*
X147739285Y-128852200D02*
X147786904Y-128804580D01*
X147786904Y-128804580D02*
X147834523Y-128709342D01*
X147834523Y-128709342D02*
X147834523Y-127899819D01*
X148215476Y-127899819D02*
X148834523Y-127899819D01*
X148834523Y-127899819D02*
X148501190Y-128280771D01*
X148501190Y-128280771D02*
X148644047Y-128280771D01*
X148644047Y-128280771D02*
X148739285Y-128328390D01*
X148739285Y-128328390D02*
X148786904Y-128376009D01*
X148786904Y-128376009D02*
X148834523Y-128471247D01*
X148834523Y-128471247D02*
X148834523Y-128709342D01*
X148834523Y-128709342D02*
X148786904Y-128804580D01*
X148786904Y-128804580D02*
X148739285Y-128852200D01*
X148739285Y-128852200D02*
X148644047Y-128899819D01*
X148644047Y-128899819D02*
X148358333Y-128899819D01*
X148358333Y-128899819D02*
X148263095Y-128852200D01*
X148263095Y-128852200D02*
X148215476Y-128804580D01*
X79130952Y-131524819D02*
X78654762Y-131524819D01*
X78654762Y-131524819D02*
X78654762Y-130524819D01*
X79464286Y-131001009D02*
X79797619Y-131001009D01*
X79940476Y-131524819D02*
X79464286Y-131524819D01*
X79464286Y-131524819D02*
X79464286Y-130524819D01*
X79464286Y-130524819D02*
X79940476Y-130524819D01*
X80369048Y-131524819D02*
X80369048Y-130524819D01*
X80369048Y-130524819D02*
X80607143Y-130524819D01*
X80607143Y-130524819D02*
X80750000Y-130572438D01*
X80750000Y-130572438D02*
X80845238Y-130667676D01*
X80845238Y-130667676D02*
X80892857Y-130762914D01*
X80892857Y-130762914D02*
X80940476Y-130953390D01*
X80940476Y-130953390D02*
X80940476Y-131096247D01*
X80940476Y-131096247D02*
X80892857Y-131286723D01*
X80892857Y-131286723D02*
X80845238Y-131381961D01*
X80845238Y-131381961D02*
X80750000Y-131477200D01*
X80750000Y-131477200D02*
X80607143Y-131524819D01*
X80607143Y-131524819D02*
X80369048Y-131524819D01*
X81845238Y-130524819D02*
X81369048Y-130524819D01*
X81369048Y-130524819D02*
X81321429Y-131001009D01*
X81321429Y-131001009D02*
X81369048Y-130953390D01*
X81369048Y-130953390D02*
X81464286Y-130905771D01*
X81464286Y-130905771D02*
X81702381Y-130905771D01*
X81702381Y-130905771D02*
X81797619Y-130953390D01*
X81797619Y-130953390D02*
X81845238Y-131001009D01*
X81845238Y-131001009D02*
X81892857Y-131096247D01*
X81892857Y-131096247D02*
X81892857Y-131334342D01*
X81892857Y-131334342D02*
X81845238Y-131429580D01*
X81845238Y-131429580D02*
X81797619Y-131477200D01*
X81797619Y-131477200D02*
X81702381Y-131524819D01*
X81702381Y-131524819D02*
X81464286Y-131524819D01*
X81464286Y-131524819D02*
X81369048Y-131477200D01*
X81369048Y-131477200D02*
X81321429Y-131429580D01*
X120032142Y-121764819D02*
X119698809Y-121288628D01*
X119460714Y-121764819D02*
X119460714Y-120764819D01*
X119460714Y-120764819D02*
X119841666Y-120764819D01*
X119841666Y-120764819D02*
X119936904Y-120812438D01*
X119936904Y-120812438D02*
X119984523Y-120860057D01*
X119984523Y-120860057D02*
X120032142Y-120955295D01*
X120032142Y-120955295D02*
X120032142Y-121098152D01*
X120032142Y-121098152D02*
X119984523Y-121193390D01*
X119984523Y-121193390D02*
X119936904Y-121241009D01*
X119936904Y-121241009D02*
X119841666Y-121288628D01*
X119841666Y-121288628D02*
X119460714Y-121288628D01*
X120413095Y-120860057D02*
X120460714Y-120812438D01*
X120460714Y-120812438D02*
X120555952Y-120764819D01*
X120555952Y-120764819D02*
X120794047Y-120764819D01*
X120794047Y-120764819D02*
X120889285Y-120812438D01*
X120889285Y-120812438D02*
X120936904Y-120860057D01*
X120936904Y-120860057D02*
X120984523Y-120955295D01*
X120984523Y-120955295D02*
X120984523Y-121050533D01*
X120984523Y-121050533D02*
X120936904Y-121193390D01*
X120936904Y-121193390D02*
X120365476Y-121764819D01*
X120365476Y-121764819D02*
X120984523Y-121764819D01*
X121841666Y-121098152D02*
X121841666Y-121764819D01*
X121603571Y-120717200D02*
X121365476Y-121431485D01*
X121365476Y-121431485D02*
X121984523Y-121431485D01*
X99407142Y-124379580D02*
X99359523Y-124427200D01*
X99359523Y-124427200D02*
X99216666Y-124474819D01*
X99216666Y-124474819D02*
X99121428Y-124474819D01*
X99121428Y-124474819D02*
X98978571Y-124427200D01*
X98978571Y-124427200D02*
X98883333Y-124331961D01*
X98883333Y-124331961D02*
X98835714Y-124236723D01*
X98835714Y-124236723D02*
X98788095Y-124046247D01*
X98788095Y-124046247D02*
X98788095Y-123903390D01*
X98788095Y-123903390D02*
X98835714Y-123712914D01*
X98835714Y-123712914D02*
X98883333Y-123617676D01*
X98883333Y-123617676D02*
X98978571Y-123522438D01*
X98978571Y-123522438D02*
X99121428Y-123474819D01*
X99121428Y-123474819D02*
X99216666Y-123474819D01*
X99216666Y-123474819D02*
X99359523Y-123522438D01*
X99359523Y-123522438D02*
X99407142Y-123570057D01*
X99788095Y-123570057D02*
X99835714Y-123522438D01*
X99835714Y-123522438D02*
X99930952Y-123474819D01*
X99930952Y-123474819D02*
X100169047Y-123474819D01*
X100169047Y-123474819D02*
X100264285Y-123522438D01*
X100264285Y-123522438D02*
X100311904Y-123570057D01*
X100311904Y-123570057D02*
X100359523Y-123665295D01*
X100359523Y-123665295D02*
X100359523Y-123760533D01*
X100359523Y-123760533D02*
X100311904Y-123903390D01*
X100311904Y-123903390D02*
X99740476Y-124474819D01*
X99740476Y-124474819D02*
X100359523Y-124474819D01*
X101311904Y-124474819D02*
X100740476Y-124474819D01*
X101026190Y-124474819D02*
X101026190Y-123474819D01*
X101026190Y-123474819D02*
X100930952Y-123617676D01*
X100930952Y-123617676D02*
X100835714Y-123712914D01*
X100835714Y-123712914D02*
X100740476Y-123760533D01*
X129261905Y-142454819D02*
X129261905Y-141454819D01*
X129261905Y-141454819D02*
X129500000Y-141454819D01*
X129500000Y-141454819D02*
X129642857Y-141502438D01*
X129642857Y-141502438D02*
X129738095Y-141597676D01*
X129738095Y-141597676D02*
X129785714Y-141692914D01*
X129785714Y-141692914D02*
X129833333Y-141883390D01*
X129833333Y-141883390D02*
X129833333Y-142026247D01*
X129833333Y-142026247D02*
X129785714Y-142216723D01*
X129785714Y-142216723D02*
X129738095Y-142311961D01*
X129738095Y-142311961D02*
X129642857Y-142407200D01*
X129642857Y-142407200D02*
X129500000Y-142454819D01*
X129500000Y-142454819D02*
X129261905Y-142454819D01*
X130785714Y-142454819D02*
X130214286Y-142454819D01*
X130500000Y-142454819D02*
X130500000Y-141454819D01*
X130500000Y-141454819D02*
X130404762Y-141597676D01*
X130404762Y-141597676D02*
X130309524Y-141692914D01*
X130309524Y-141692914D02*
X130214286Y-141740533D01*
X124828809Y-131168628D02*
X124828809Y-131644819D01*
X124495476Y-130644819D02*
X124828809Y-131168628D01*
X124828809Y-131168628D02*
X125162142Y-130644819D01*
X126019285Y-131644819D02*
X125447857Y-131644819D01*
X125733571Y-131644819D02*
X125733571Y-130644819D01*
X125733571Y-130644819D02*
X125638333Y-130787676D01*
X125638333Y-130787676D02*
X125543095Y-130882914D01*
X125543095Y-130882914D02*
X125447857Y-130930533D01*
X135401667Y-136157200D02*
X135544524Y-136204819D01*
X135544524Y-136204819D02*
X135782619Y-136204819D01*
X135782619Y-136204819D02*
X135877857Y-136157200D01*
X135877857Y-136157200D02*
X135925476Y-136109580D01*
X135925476Y-136109580D02*
X135973095Y-136014342D01*
X135973095Y-136014342D02*
X135973095Y-135919104D01*
X135973095Y-135919104D02*
X135925476Y-135823866D01*
X135925476Y-135823866D02*
X135877857Y-135776247D01*
X135877857Y-135776247D02*
X135782619Y-135728628D01*
X135782619Y-135728628D02*
X135592143Y-135681009D01*
X135592143Y-135681009D02*
X135496905Y-135633390D01*
X135496905Y-135633390D02*
X135449286Y-135585771D01*
X135449286Y-135585771D02*
X135401667Y-135490533D01*
X135401667Y-135490533D02*
X135401667Y-135395295D01*
X135401667Y-135395295D02*
X135449286Y-135300057D01*
X135449286Y-135300057D02*
X135496905Y-135252438D01*
X135496905Y-135252438D02*
X135592143Y-135204819D01*
X135592143Y-135204819D02*
X135830238Y-135204819D01*
X135830238Y-135204819D02*
X135973095Y-135252438D01*
X136306429Y-135204819D02*
X136544524Y-136204819D01*
X136544524Y-136204819D02*
X136735000Y-135490533D01*
X136735000Y-135490533D02*
X136925476Y-136204819D01*
X136925476Y-136204819D02*
X137163572Y-135204819D01*
X137496905Y-135300057D02*
X137544524Y-135252438D01*
X137544524Y-135252438D02*
X137639762Y-135204819D01*
X137639762Y-135204819D02*
X137877857Y-135204819D01*
X137877857Y-135204819D02*
X137973095Y-135252438D01*
X137973095Y-135252438D02*
X138020714Y-135300057D01*
X138020714Y-135300057D02*
X138068333Y-135395295D01*
X138068333Y-135395295D02*
X138068333Y-135490533D01*
X138068333Y-135490533D02*
X138020714Y-135633390D01*
X138020714Y-135633390D02*
X137449286Y-136204819D01*
X137449286Y-136204819D02*
X138068333Y-136204819D01*
X147263095Y-121274819D02*
X147263095Y-122084342D01*
X147263095Y-122084342D02*
X147310714Y-122179580D01*
X147310714Y-122179580D02*
X147358333Y-122227200D01*
X147358333Y-122227200D02*
X147453571Y-122274819D01*
X147453571Y-122274819D02*
X147644047Y-122274819D01*
X147644047Y-122274819D02*
X147739285Y-122227200D01*
X147739285Y-122227200D02*
X147786904Y-122179580D01*
X147786904Y-122179580D02*
X147834523Y-122084342D01*
X147834523Y-122084342D02*
X147834523Y-121274819D01*
X148786904Y-121274819D02*
X148310714Y-121274819D01*
X148310714Y-121274819D02*
X148263095Y-121751009D01*
X148263095Y-121751009D02*
X148310714Y-121703390D01*
X148310714Y-121703390D02*
X148405952Y-121655771D01*
X148405952Y-121655771D02*
X148644047Y-121655771D01*
X148644047Y-121655771D02*
X148739285Y-121703390D01*
X148739285Y-121703390D02*
X148786904Y-121751009D01*
X148786904Y-121751009D02*
X148834523Y-121846247D01*
X148834523Y-121846247D02*
X148834523Y-122084342D01*
X148834523Y-122084342D02*
X148786904Y-122179580D01*
X148786904Y-122179580D02*
X148739285Y-122227200D01*
X148739285Y-122227200D02*
X148644047Y-122274819D01*
X148644047Y-122274819D02*
X148405952Y-122274819D01*
X148405952Y-122274819D02*
X148310714Y-122227200D01*
X148310714Y-122227200D02*
X148263095Y-122179580D01*
X116498333Y-116744819D02*
X116165000Y-116268628D01*
X115926905Y-116744819D02*
X115926905Y-115744819D01*
X115926905Y-115744819D02*
X116307857Y-115744819D01*
X116307857Y-115744819D02*
X116403095Y-115792438D01*
X116403095Y-115792438D02*
X116450714Y-115840057D01*
X116450714Y-115840057D02*
X116498333Y-115935295D01*
X116498333Y-115935295D02*
X116498333Y-116078152D01*
X116498333Y-116078152D02*
X116450714Y-116173390D01*
X116450714Y-116173390D02*
X116403095Y-116221009D01*
X116403095Y-116221009D02*
X116307857Y-116268628D01*
X116307857Y-116268628D02*
X115926905Y-116268628D01*
X117069762Y-116173390D02*
X116974524Y-116125771D01*
X116974524Y-116125771D02*
X116926905Y-116078152D01*
X116926905Y-116078152D02*
X116879286Y-115982914D01*
X116879286Y-115982914D02*
X116879286Y-115935295D01*
X116879286Y-115935295D02*
X116926905Y-115840057D01*
X116926905Y-115840057D02*
X116974524Y-115792438D01*
X116974524Y-115792438D02*
X117069762Y-115744819D01*
X117069762Y-115744819D02*
X117260238Y-115744819D01*
X117260238Y-115744819D02*
X117355476Y-115792438D01*
X117355476Y-115792438D02*
X117403095Y-115840057D01*
X117403095Y-115840057D02*
X117450714Y-115935295D01*
X117450714Y-115935295D02*
X117450714Y-115982914D01*
X117450714Y-115982914D02*
X117403095Y-116078152D01*
X117403095Y-116078152D02*
X117355476Y-116125771D01*
X117355476Y-116125771D02*
X117260238Y-116173390D01*
X117260238Y-116173390D02*
X117069762Y-116173390D01*
X117069762Y-116173390D02*
X116974524Y-116221009D01*
X116974524Y-116221009D02*
X116926905Y-116268628D01*
X116926905Y-116268628D02*
X116879286Y-116363866D01*
X116879286Y-116363866D02*
X116879286Y-116554342D01*
X116879286Y-116554342D02*
X116926905Y-116649580D01*
X116926905Y-116649580D02*
X116974524Y-116697200D01*
X116974524Y-116697200D02*
X117069762Y-116744819D01*
X117069762Y-116744819D02*
X117260238Y-116744819D01*
X117260238Y-116744819D02*
X117355476Y-116697200D01*
X117355476Y-116697200D02*
X117403095Y-116649580D01*
X117403095Y-116649580D02*
X117450714Y-116554342D01*
X117450714Y-116554342D02*
X117450714Y-116363866D01*
X117450714Y-116363866D02*
X117403095Y-116268628D01*
X117403095Y-116268628D02*
X117355476Y-116221009D01*
X117355476Y-116221009D02*
X117260238Y-116173390D01*
X153681905Y-134424819D02*
X153681905Y-133424819D01*
X153681905Y-133424819D02*
X153920000Y-133424819D01*
X153920000Y-133424819D02*
X154062857Y-133472438D01*
X154062857Y-133472438D02*
X154158095Y-133567676D01*
X154158095Y-133567676D02*
X154205714Y-133662914D01*
X154205714Y-133662914D02*
X154253333Y-133853390D01*
X154253333Y-133853390D02*
X154253333Y-133996247D01*
X154253333Y-133996247D02*
X154205714Y-134186723D01*
X154205714Y-134186723D02*
X154158095Y-134281961D01*
X154158095Y-134281961D02*
X154062857Y-134377200D01*
X154062857Y-134377200D02*
X153920000Y-134424819D01*
X153920000Y-134424819D02*
X153681905Y-134424819D01*
X155158095Y-133424819D02*
X154681905Y-133424819D01*
X154681905Y-133424819D02*
X154634286Y-133901009D01*
X154634286Y-133901009D02*
X154681905Y-133853390D01*
X154681905Y-133853390D02*
X154777143Y-133805771D01*
X154777143Y-133805771D02*
X155015238Y-133805771D01*
X155015238Y-133805771D02*
X155110476Y-133853390D01*
X155110476Y-133853390D02*
X155158095Y-133901009D01*
X155158095Y-133901009D02*
X155205714Y-133996247D01*
X155205714Y-133996247D02*
X155205714Y-134234342D01*
X155205714Y-134234342D02*
X155158095Y-134329580D01*
X155158095Y-134329580D02*
X155110476Y-134377200D01*
X155110476Y-134377200D02*
X155015238Y-134424819D01*
X155015238Y-134424819D02*
X154777143Y-134424819D01*
X154777143Y-134424819D02*
X154681905Y-134377200D01*
X154681905Y-134377200D02*
X154634286Y-134329580D01*
X108478333Y-119159580D02*
X108430714Y-119207200D01*
X108430714Y-119207200D02*
X108287857Y-119254819D01*
X108287857Y-119254819D02*
X108192619Y-119254819D01*
X108192619Y-119254819D02*
X108049762Y-119207200D01*
X108049762Y-119207200D02*
X107954524Y-119111961D01*
X107954524Y-119111961D02*
X107906905Y-119016723D01*
X107906905Y-119016723D02*
X107859286Y-118826247D01*
X107859286Y-118826247D02*
X107859286Y-118683390D01*
X107859286Y-118683390D02*
X107906905Y-118492914D01*
X107906905Y-118492914D02*
X107954524Y-118397676D01*
X107954524Y-118397676D02*
X108049762Y-118302438D01*
X108049762Y-118302438D02*
X108192619Y-118254819D01*
X108192619Y-118254819D02*
X108287857Y-118254819D01*
X108287857Y-118254819D02*
X108430714Y-118302438D01*
X108430714Y-118302438D02*
X108478333Y-118350057D01*
X109335476Y-118588152D02*
X109335476Y-119254819D01*
X109097381Y-118207200D02*
X108859286Y-118921485D01*
X108859286Y-118921485D02*
X109478333Y-118921485D01*
X120032142Y-126784819D02*
X119698809Y-126308628D01*
X119460714Y-126784819D02*
X119460714Y-125784819D01*
X119460714Y-125784819D02*
X119841666Y-125784819D01*
X119841666Y-125784819D02*
X119936904Y-125832438D01*
X119936904Y-125832438D02*
X119984523Y-125880057D01*
X119984523Y-125880057D02*
X120032142Y-125975295D01*
X120032142Y-125975295D02*
X120032142Y-126118152D01*
X120032142Y-126118152D02*
X119984523Y-126213390D01*
X119984523Y-126213390D02*
X119936904Y-126261009D01*
X119936904Y-126261009D02*
X119841666Y-126308628D01*
X119841666Y-126308628D02*
X119460714Y-126308628D01*
X120413095Y-125880057D02*
X120460714Y-125832438D01*
X120460714Y-125832438D02*
X120555952Y-125784819D01*
X120555952Y-125784819D02*
X120794047Y-125784819D01*
X120794047Y-125784819D02*
X120889285Y-125832438D01*
X120889285Y-125832438D02*
X120936904Y-125880057D01*
X120936904Y-125880057D02*
X120984523Y-125975295D01*
X120984523Y-125975295D02*
X120984523Y-126070533D01*
X120984523Y-126070533D02*
X120936904Y-126213390D01*
X120936904Y-126213390D02*
X120365476Y-126784819D01*
X120365476Y-126784819D02*
X120984523Y-126784819D01*
X121841666Y-125784819D02*
X121651190Y-125784819D01*
X121651190Y-125784819D02*
X121555952Y-125832438D01*
X121555952Y-125832438D02*
X121508333Y-125880057D01*
X121508333Y-125880057D02*
X121413095Y-126022914D01*
X121413095Y-126022914D02*
X121365476Y-126213390D01*
X121365476Y-126213390D02*
X121365476Y-126594342D01*
X121365476Y-126594342D02*
X121413095Y-126689580D01*
X121413095Y-126689580D02*
X121460714Y-126737200D01*
X121460714Y-126737200D02*
X121555952Y-126784819D01*
X121555952Y-126784819D02*
X121746428Y-126784819D01*
X121746428Y-126784819D02*
X121841666Y-126737200D01*
X121841666Y-126737200D02*
X121889285Y-126689580D01*
X121889285Y-126689580D02*
X121936904Y-126594342D01*
X121936904Y-126594342D02*
X121936904Y-126356247D01*
X121936904Y-126356247D02*
X121889285Y-126261009D01*
X121889285Y-126261009D02*
X121841666Y-126213390D01*
X121841666Y-126213390D02*
X121746428Y-126165771D01*
X121746428Y-126165771D02*
X121555952Y-126165771D01*
X121555952Y-126165771D02*
X121460714Y-126213390D01*
X121460714Y-126213390D02*
X121413095Y-126261009D01*
X121413095Y-126261009D02*
X121365476Y-126356247D01*
X112488333Y-124274819D02*
X112155000Y-123798628D01*
X111916905Y-124274819D02*
X111916905Y-123274819D01*
X111916905Y-123274819D02*
X112297857Y-123274819D01*
X112297857Y-123274819D02*
X112393095Y-123322438D01*
X112393095Y-123322438D02*
X112440714Y-123370057D01*
X112440714Y-123370057D02*
X112488333Y-123465295D01*
X112488333Y-123465295D02*
X112488333Y-123608152D01*
X112488333Y-123608152D02*
X112440714Y-123703390D01*
X112440714Y-123703390D02*
X112393095Y-123751009D01*
X112393095Y-123751009D02*
X112297857Y-123798628D01*
X112297857Y-123798628D02*
X111916905Y-123798628D01*
X112869286Y-123370057D02*
X112916905Y-123322438D01*
X112916905Y-123322438D02*
X113012143Y-123274819D01*
X113012143Y-123274819D02*
X113250238Y-123274819D01*
X113250238Y-123274819D02*
X113345476Y-123322438D01*
X113345476Y-123322438D02*
X113393095Y-123370057D01*
X113393095Y-123370057D02*
X113440714Y-123465295D01*
X113440714Y-123465295D02*
X113440714Y-123560533D01*
X113440714Y-123560533D02*
X113393095Y-123703390D01*
X113393095Y-123703390D02*
X112821667Y-124274819D01*
X112821667Y-124274819D02*
X113440714Y-124274819D01*
X116498333Y-111724819D02*
X116165000Y-111248628D01*
X115926905Y-111724819D02*
X115926905Y-110724819D01*
X115926905Y-110724819D02*
X116307857Y-110724819D01*
X116307857Y-110724819D02*
X116403095Y-110772438D01*
X116403095Y-110772438D02*
X116450714Y-110820057D01*
X116450714Y-110820057D02*
X116498333Y-110915295D01*
X116498333Y-110915295D02*
X116498333Y-111058152D01*
X116498333Y-111058152D02*
X116450714Y-111153390D01*
X116450714Y-111153390D02*
X116403095Y-111201009D01*
X116403095Y-111201009D02*
X116307857Y-111248628D01*
X116307857Y-111248628D02*
X115926905Y-111248628D01*
X117355476Y-110724819D02*
X117165000Y-110724819D01*
X117165000Y-110724819D02*
X117069762Y-110772438D01*
X117069762Y-110772438D02*
X117022143Y-110820057D01*
X117022143Y-110820057D02*
X116926905Y-110962914D01*
X116926905Y-110962914D02*
X116879286Y-111153390D01*
X116879286Y-111153390D02*
X116879286Y-111534342D01*
X116879286Y-111534342D02*
X116926905Y-111629580D01*
X116926905Y-111629580D02*
X116974524Y-111677200D01*
X116974524Y-111677200D02*
X117069762Y-111724819D01*
X117069762Y-111724819D02*
X117260238Y-111724819D01*
X117260238Y-111724819D02*
X117355476Y-111677200D01*
X117355476Y-111677200D02*
X117403095Y-111629580D01*
X117403095Y-111629580D02*
X117450714Y-111534342D01*
X117450714Y-111534342D02*
X117450714Y-111296247D01*
X117450714Y-111296247D02*
X117403095Y-111201009D01*
X117403095Y-111201009D02*
X117355476Y-111153390D01*
X117355476Y-111153390D02*
X117260238Y-111105771D01*
X117260238Y-111105771D02*
X117069762Y-111105771D01*
X117069762Y-111105771D02*
X116974524Y-111153390D01*
X116974524Y-111153390D02*
X116926905Y-111201009D01*
X116926905Y-111201009D02*
X116879286Y-111296247D01*
X120032142Y-124274819D02*
X119698809Y-123798628D01*
X119460714Y-124274819D02*
X119460714Y-123274819D01*
X119460714Y-123274819D02*
X119841666Y-123274819D01*
X119841666Y-123274819D02*
X119936904Y-123322438D01*
X119936904Y-123322438D02*
X119984523Y-123370057D01*
X119984523Y-123370057D02*
X120032142Y-123465295D01*
X120032142Y-123465295D02*
X120032142Y-123608152D01*
X120032142Y-123608152D02*
X119984523Y-123703390D01*
X119984523Y-123703390D02*
X119936904Y-123751009D01*
X119936904Y-123751009D02*
X119841666Y-123798628D01*
X119841666Y-123798628D02*
X119460714Y-123798628D01*
X120413095Y-123370057D02*
X120460714Y-123322438D01*
X120460714Y-123322438D02*
X120555952Y-123274819D01*
X120555952Y-123274819D02*
X120794047Y-123274819D01*
X120794047Y-123274819D02*
X120889285Y-123322438D01*
X120889285Y-123322438D02*
X120936904Y-123370057D01*
X120936904Y-123370057D02*
X120984523Y-123465295D01*
X120984523Y-123465295D02*
X120984523Y-123560533D01*
X120984523Y-123560533D02*
X120936904Y-123703390D01*
X120936904Y-123703390D02*
X120365476Y-124274819D01*
X120365476Y-124274819D02*
X120984523Y-124274819D01*
X121889285Y-123274819D02*
X121413095Y-123274819D01*
X121413095Y-123274819D02*
X121365476Y-123751009D01*
X121365476Y-123751009D02*
X121413095Y-123703390D01*
X121413095Y-123703390D02*
X121508333Y-123655771D01*
X121508333Y-123655771D02*
X121746428Y-123655771D01*
X121746428Y-123655771D02*
X121841666Y-123703390D01*
X121841666Y-123703390D02*
X121889285Y-123751009D01*
X121889285Y-123751009D02*
X121936904Y-123846247D01*
X121936904Y-123846247D02*
X121936904Y-124084342D01*
X121936904Y-124084342D02*
X121889285Y-124179580D01*
X121889285Y-124179580D02*
X121841666Y-124227200D01*
X121841666Y-124227200D02*
X121746428Y-124274819D01*
X121746428Y-124274819D02*
X121508333Y-124274819D01*
X121508333Y-124274819D02*
X121413095Y-124227200D01*
X121413095Y-124227200D02*
X121365476Y-124179580D01*
D12*
X99338748Y-112210000D02*
X100761252Y-112210000D01*
X99338748Y-114930000D02*
X100761252Y-114930000D01*
X134915000Y-116550000D02*
X138515000Y-116550000D01*
X134876522Y-116538478D02*
G75*
G02*
X136715000Y-112099999I1838478J1838478D01*
G01*
X136715000Y-112100000D02*
G75*
G02*
X138553478Y-116538478I0J-2600000D01*
G01*
X137130000Y-62025000D02*
X137130000Y-68185000D01*
X137130000Y-62025000D02*
X155370000Y-62025000D01*
X137130000Y-86985000D02*
X137130000Y-87765000D01*
X137130000Y-87765000D02*
X138130000Y-87765000D01*
X155370000Y-62025000D02*
X155370000Y-68440000D01*
X155370000Y-86985000D02*
X155370000Y-87765000D01*
X155370000Y-87765000D02*
X154370000Y-87765000D01*
X137125000Y-68910000D02*
X136625000Y-68910000D01*
X137125000Y-68410000D01*
X137125000Y-68910000D01*
G36*
X137125000Y-68910000D02*
G01*
X136625000Y-68910000D01*
X137125000Y-68410000D01*
X137125000Y-68910000D01*
G37*
X112514420Y-112190000D02*
X112795580Y-112190000D01*
X112514420Y-113210000D02*
X112795580Y-113210000D01*
X153165000Y-116190000D02*
X154545000Y-116190000D01*
X153165000Y-117570000D02*
X153165000Y-116190000D01*
X153165000Y-118840000D02*
X153165000Y-126570000D01*
X153165000Y-118840000D02*
X155925000Y-118840000D01*
X153165000Y-126570000D02*
X155925000Y-126570000D01*
X155925000Y-118840000D02*
X155925000Y-126570000D01*
X112417742Y-127237500D02*
X112892258Y-127237500D01*
X112417742Y-128282500D02*
X112892258Y-128282500D01*
X99763748Y-129210000D02*
X101186252Y-129210000D01*
X99763748Y-131930000D02*
X101186252Y-131930000D01*
X116427742Y-114687500D02*
X116902258Y-114687500D01*
X116427742Y-115732500D02*
X116902258Y-115732500D01*
X108504420Y-114700000D02*
X108785580Y-114700000D01*
X108504420Y-115720000D02*
X108785580Y-115720000D01*
X108504420Y-132270000D02*
X108785580Y-132270000D01*
X108504420Y-133290000D02*
X108785580Y-133290000D01*
X108504420Y-117210000D02*
X108785580Y-117210000D01*
X108504420Y-118230000D02*
X108785580Y-118230000D01*
X120437742Y-119707500D02*
X120912258Y-119707500D01*
X120437742Y-120752500D02*
X120912258Y-120752500D01*
X134390000Y-95390000D02*
X134840000Y-95390000D01*
X134390000Y-95840000D02*
X134390000Y-95390000D01*
X134390000Y-102610000D02*
X134390000Y-102160000D01*
X134840000Y-102610000D02*
X134390000Y-102610000D01*
X141160000Y-95390000D02*
X141610000Y-95390000D01*
X141610000Y-95390000D02*
X141610000Y-95840000D01*
X141610000Y-102160000D02*
X141610000Y-102610000D01*
X141610000Y-102610000D02*
X141160000Y-102610000D01*
X133750000Y-95840000D02*
X133410000Y-95370000D01*
X134090000Y-95370000D01*
X133750000Y-95840000D01*
G36*
X133750000Y-95840000D02*
G01*
X133410000Y-95370000D01*
X134090000Y-95370000D01*
X133750000Y-95840000D01*
G37*
X116427742Y-129747500D02*
X116902258Y-129747500D01*
X116427742Y-130792500D02*
X116902258Y-130792500D01*
X125425000Y-112160000D02*
X125425000Y-117360000D01*
X125425000Y-117360000D02*
X130725000Y-117360000D01*
X127075000Y-112160000D02*
X125425000Y-112160000D01*
X130725000Y-112160000D02*
X129075000Y-112160000D01*
X130725000Y-117360000D02*
X130725000Y-112160000D01*
X129075000Y-112160000D02*
G75*
G02*
X127075000Y-112160000I-1000000J0D01*
G01*
X99338748Y-116460000D02*
X100761252Y-116460000D01*
X99338748Y-119180000D02*
X100761252Y-119180000D01*
X80580000Y-61620000D02*
X92020000Y-61620000D01*
X80580000Y-63980000D02*
X80580000Y-61620000D01*
X80580000Y-72020000D02*
X80580000Y-64580000D01*
X81200000Y-61620000D02*
X81200000Y-72020000D01*
X83700000Y-61620000D02*
X83700000Y-72020000D01*
X89900000Y-61620000D02*
X89900000Y-72020000D01*
X92020000Y-61620000D02*
X92020000Y-72020000D01*
X92020000Y-72020000D02*
X80580000Y-72020000D01*
X80580000Y-64280000D02*
X79970000Y-64720000D01*
X79970000Y-63840000D01*
X80580000Y-64280000D01*
G36*
X80580000Y-64280000D02*
G01*
X79970000Y-64720000D01*
X79970000Y-63840000D01*
X80580000Y-64280000D01*
G37*
X125425000Y-118800000D02*
X125425000Y-124000000D01*
X125425000Y-124000000D02*
X130725000Y-124000000D01*
X127075000Y-118800000D02*
X125425000Y-118800000D01*
X130725000Y-118800000D02*
X129075000Y-118800000D01*
X130725000Y-124000000D02*
X130725000Y-118800000D01*
X129075000Y-118800000D02*
G75*
G02*
X127075000Y-118800000I-1000000J0D01*
G01*
X145965000Y-116075000D02*
X150085000Y-116075000D01*
X145965000Y-116170000D02*
X145965000Y-116075000D01*
X145965000Y-121195000D02*
X145965000Y-121100000D01*
X150085000Y-116075000D02*
X150085000Y-116170000D01*
X150085000Y-121100000D02*
X150085000Y-121195000D01*
X150085000Y-121195000D02*
X145965000Y-121195000D01*
X145425000Y-116165000D02*
X145185000Y-115835000D01*
X145665000Y-115835000D01*
X145425000Y-116165000D01*
G36*
X145425000Y-116165000D02*
G01*
X145185000Y-115835000D01*
X145665000Y-115835000D01*
X145425000Y-116165000D01*
G37*
X108504420Y-127250000D02*
X108785580Y-127250000D01*
X108504420Y-128270000D02*
X108785580Y-128270000D01*
X134915000Y-128130000D02*
X138515000Y-128130000D01*
X134876522Y-128118478D02*
G75*
G02*
X136715000Y-123679999I1838478J1838478D01*
G01*
X136715000Y-123680000D02*
G75*
G02*
X138553478Y-128118478I0J-2600000D01*
G01*
X108504420Y-112190000D02*
X108785580Y-112190000D01*
X108504420Y-113210000D02*
X108785580Y-113210000D01*
X108504420Y-122230000D02*
X108785580Y-122230000D01*
X108504420Y-123250000D02*
X108785580Y-123250000D01*
X147297936Y-109715000D02*
X148502064Y-109715000D01*
X147297936Y-111535000D02*
X148502064Y-111535000D01*
X116427742Y-132257500D02*
X116902258Y-132257500D01*
X116427742Y-133302500D02*
X116902258Y-133302500D01*
X108504420Y-124740000D02*
X108785580Y-124740000D01*
X108504420Y-125760000D02*
X108785580Y-125760000D01*
X78765000Y-123265000D02*
X78765000Y-124735000D01*
X78765000Y-124735000D02*
X81050000Y-124735000D01*
X81050000Y-123265000D02*
X78765000Y-123265000D01*
X99950000Y-91100000D02*
X99950000Y-97700000D01*
X99950000Y-91100000D02*
X119750000Y-91100000D01*
X99950000Y-100100000D02*
X99950000Y-106700000D01*
X104000000Y-98950000D02*
X103200000Y-98950000D01*
X104000000Y-98950000D02*
X104000000Y-102550000D01*
X104900000Y-104950000D02*
X107400000Y-104950000D01*
X105400000Y-97150000D02*
X109400000Y-97150000D01*
X105400000Y-100750000D02*
X105400000Y-97150000D01*
X107400000Y-92950000D02*
X104900000Y-92950000D01*
X107400000Y-92950000D02*
X107400000Y-97150000D01*
X107400000Y-100750000D02*
X107400000Y-104950000D01*
X109400000Y-97150000D02*
X109400000Y-100750000D01*
X109400000Y-100750000D02*
X105400000Y-97150000D01*
X109400000Y-100750000D02*
X105400000Y-100750000D01*
X110800000Y-98950000D02*
X110800000Y-102550000D01*
X110800000Y-98950000D02*
X112300000Y-98950000D01*
X110800000Y-102550000D02*
X104000000Y-102550000D01*
X112300000Y-98950000D02*
X116900000Y-96450000D01*
X115500000Y-94700000D02*
X115500000Y-97200000D01*
X115500000Y-103100000D02*
X115500000Y-100650000D01*
X119750000Y-91100000D02*
X119750000Y-106700000D01*
X119750000Y-106700000D02*
X99950000Y-106700000D01*
X152810000Y-132020000D02*
X152810000Y-133720000D01*
X152810000Y-132020000D02*
X155470000Y-132020000D01*
X152810000Y-133720000D02*
X155470000Y-133720000D01*
X99950000Y-74150000D02*
X99950000Y-80750000D01*
X99950000Y-74150000D02*
X119750000Y-74150000D01*
X99950000Y-83150000D02*
X99950000Y-89750000D01*
X104000000Y-82000000D02*
X103200000Y-82000000D01*
X104000000Y-82000000D02*
X104000000Y-85600000D01*
X104900000Y-88000000D02*
X107400000Y-88000000D01*
X105400000Y-80200000D02*
X109400000Y-80200000D01*
X105400000Y-83800000D02*
X105400000Y-80200000D01*
X107400000Y-76000000D02*
X104900000Y-76000000D01*
X107400000Y-76000000D02*
X107400000Y-80200000D01*
X107400000Y-83800000D02*
X107400000Y-88000000D01*
X109400000Y-80200000D02*
X109400000Y-83800000D01*
X109400000Y-83800000D02*
X105400000Y-80200000D01*
X109400000Y-83800000D02*
X105400000Y-83800000D01*
X110800000Y-82000000D02*
X110800000Y-85600000D01*
X110800000Y-82000000D02*
X112300000Y-82000000D01*
X110800000Y-85600000D02*
X104000000Y-85600000D01*
X112300000Y-82000000D02*
X116900000Y-79500000D01*
X115500000Y-77750000D02*
X115500000Y-80250000D01*
X115500000Y-86150000D02*
X115500000Y-83700000D01*
X119750000Y-74150000D02*
X119750000Y-89750000D01*
X119750000Y-89750000D02*
X99950000Y-89750000D01*
X77150000Y-104100000D02*
X83750000Y-104100000D01*
X77150000Y-105800000D02*
X77150000Y-104100000D01*
X77150000Y-110500000D02*
X77150000Y-108800000D01*
X83750000Y-104100000D02*
X83750000Y-105800000D01*
X83750000Y-108800000D02*
X83750000Y-110500000D01*
X83750000Y-110500000D02*
X77150000Y-110500000D01*
X108504420Y-129760000D02*
X108785580Y-129760000D01*
X108504420Y-130780000D02*
X108785580Y-130780000D01*
X77150000Y-111950000D02*
X83750000Y-111950000D01*
X77150000Y-113650000D02*
X77150000Y-111950000D01*
X77150000Y-118350000D02*
X77150000Y-116650000D01*
X83750000Y-111950000D02*
X83750000Y-113650000D01*
X83750000Y-116650000D02*
X83750000Y-118350000D01*
X83750000Y-118350000D02*
X77150000Y-118350000D01*
X139990000Y-142850000D02*
X139990000Y-146150000D01*
X139990000Y-142850000D02*
X145500000Y-142850000D01*
X139990000Y-146150000D02*
X145500000Y-146150000D01*
X80580000Y-73840000D02*
X92020000Y-73840000D01*
X80580000Y-76200000D02*
X80580000Y-73840000D01*
X80580000Y-84240000D02*
X80580000Y-76800000D01*
X81200000Y-73840000D02*
X81200000Y-84240000D01*
X83700000Y-73840000D02*
X83700000Y-84240000D01*
X89900000Y-73840000D02*
X89900000Y-84240000D01*
X92020000Y-73840000D02*
X92020000Y-84240000D01*
X92020000Y-84240000D02*
X80580000Y-84240000D01*
X80580000Y-76500000D02*
X79970000Y-76940000D01*
X79970000Y-76060000D01*
X80580000Y-76500000D01*
G36*
X80580000Y-76500000D02*
G01*
X79970000Y-76940000D01*
X79970000Y-76060000D01*
X80580000Y-76500000D01*
G37*
X134915000Y-122340000D02*
X138515000Y-122340000D01*
X134876522Y-122328478D02*
G75*
G02*
X136715000Y-117889999I1838478J1838478D01*
G01*
X136715000Y-117890000D02*
G75*
G02*
X138553478Y-122328478I0J-2600000D01*
G01*
X120437742Y-112177500D02*
X120912258Y-112177500D01*
X120437742Y-113222500D02*
X120912258Y-113222500D01*
X120437742Y-117197500D02*
X120912258Y-117197500D01*
X120437742Y-118242500D02*
X120912258Y-118242500D01*
X112417742Y-122217500D02*
X112892258Y-122217500D01*
X112417742Y-123262500D02*
X112892258Y-123262500D01*
X152810000Y-129070000D02*
X152810000Y-130770000D01*
X152810000Y-129070000D02*
X155470000Y-129070000D01*
X152810000Y-130770000D02*
X155470000Y-130770000D01*
X120437742Y-114687500D02*
X120912258Y-114687500D01*
X120437742Y-115732500D02*
X120912258Y-115732500D01*
X112417742Y-129747500D02*
X112892258Y-129747500D01*
X112417742Y-130792500D02*
X112892258Y-130792500D01*
X99950000Y-57200000D02*
X99950000Y-63800000D01*
X99950000Y-57200000D02*
X119750000Y-57200000D01*
X99950000Y-66200000D02*
X99950000Y-72800000D01*
X104000000Y-65050000D02*
X103200000Y-65050000D01*
X104000000Y-65050000D02*
X104000000Y-68650000D01*
X104900000Y-71050000D02*
X107400000Y-71050000D01*
X105400000Y-63250000D02*
X109400000Y-63250000D01*
X105400000Y-66850000D02*
X105400000Y-63250000D01*
X107400000Y-59050000D02*
X104900000Y-59050000D01*
X107400000Y-59050000D02*
X107400000Y-63250000D01*
X107400000Y-66850000D02*
X107400000Y-71050000D01*
X109400000Y-63250000D02*
X109400000Y-66850000D01*
X109400000Y-66850000D02*
X105400000Y-63250000D01*
X109400000Y-66850000D02*
X105400000Y-66850000D01*
X110800000Y-65050000D02*
X110800000Y-68650000D01*
X110800000Y-65050000D02*
X112300000Y-65050000D01*
X110800000Y-68650000D02*
X104000000Y-68650000D01*
X112300000Y-65050000D02*
X116900000Y-62550000D01*
X115500000Y-60800000D02*
X115500000Y-63300000D01*
X115500000Y-69200000D02*
X115500000Y-66750000D01*
X119750000Y-57200000D02*
X119750000Y-72800000D01*
X119750000Y-72800000D02*
X99950000Y-72800000D01*
X112514420Y-119720000D02*
X112795580Y-119720000D01*
X112514420Y-120740000D02*
X112795580Y-120740000D01*
X125425000Y-125440000D02*
X125425000Y-130640000D01*
X125425000Y-130640000D02*
X130725000Y-130640000D01*
X127075000Y-125440000D02*
X125425000Y-125440000D01*
X130725000Y-125440000D02*
X129075000Y-125440000D01*
X130725000Y-130640000D02*
X130725000Y-125440000D01*
X129075000Y-125440000D02*
G75*
G02*
X127075000Y-125440000I-1000000J0D01*
G01*
X110550000Y-146620000D02*
X118850000Y-146620000D01*
X110550000Y-147095000D02*
X110550000Y-146620000D01*
X110550000Y-149345000D02*
X110550000Y-149820000D01*
X110550000Y-149820000D02*
X118850000Y-149820000D01*
X112400000Y-146320000D02*
X114400000Y-146320000D01*
X118850000Y-146620000D02*
X118850000Y-147095000D01*
X118850000Y-149820000D02*
X118850000Y-149345000D01*
X112417742Y-132257500D02*
X112892258Y-132257500D01*
X112417742Y-133302500D02*
X112892258Y-133302500D01*
X80580000Y-86060000D02*
X92020000Y-86060000D01*
X80580000Y-88420000D02*
X80580000Y-86060000D01*
X80580000Y-96460000D02*
X80580000Y-89020000D01*
X81200000Y-86060000D02*
X81200000Y-96460000D01*
X83700000Y-86060000D02*
X83700000Y-96460000D01*
X89900000Y-86060000D02*
X89900000Y-96460000D01*
X92020000Y-86060000D02*
X92020000Y-96460000D01*
X92020000Y-96460000D02*
X80580000Y-96460000D01*
X80580000Y-88720000D02*
X79970000Y-89160000D01*
X79970000Y-88280000D01*
X80580000Y-88720000D01*
G36*
X80580000Y-88720000D02*
G01*
X79970000Y-89160000D01*
X79970000Y-88280000D01*
X80580000Y-88720000D01*
G37*
X116427742Y-119707500D02*
X116902258Y-119707500D01*
X116427742Y-120752500D02*
X116902258Y-120752500D01*
X112514420Y-117210000D02*
X112795580Y-117210000D01*
X112514420Y-118230000D02*
X112795580Y-118230000D01*
X112514420Y-114700000D02*
X112795580Y-114700000D01*
X112514420Y-115720000D02*
X112795580Y-115720000D01*
X134665000Y-130430000D02*
X138805000Y-130430000D01*
X134665000Y-130730000D02*
X134665000Y-130430000D01*
X134665000Y-133570000D02*
X134665000Y-133270000D01*
X138805000Y-130430000D02*
X138805000Y-130730000D01*
X138805000Y-133270000D02*
X138805000Y-133570000D01*
X138805000Y-133570000D02*
X134665000Y-133570000D01*
X163590000Y-87245000D02*
X169390000Y-87245000D01*
X163590000Y-103505000D02*
X163590000Y-87245000D01*
X163590000Y-103505000D02*
X169390000Y-103505000D01*
X166840000Y-103735000D02*
X168640000Y-103735000D01*
X172670000Y-87245000D02*
X179690000Y-87245000D01*
X172670000Y-103505000D02*
X179690000Y-103505000D01*
X99338748Y-120710000D02*
X100761252Y-120710000D01*
X99338748Y-123430000D02*
X100761252Y-123430000D01*
X169400000Y-138207500D02*
X169400000Y-139257500D01*
X169600000Y-129857500D02*
X171500000Y-129857500D01*
X169600000Y-132557500D02*
X169600000Y-129857500D01*
X169600000Y-139057500D02*
X169600000Y-136457500D01*
X170450000Y-139257500D02*
X169400000Y-139257500D01*
X175500000Y-129857500D02*
X184300000Y-129857500D01*
X184300000Y-129857500D02*
X184300000Y-139057500D01*
X184300000Y-139057500D02*
X169600000Y-139057500D01*
X99338748Y-133460000D02*
X100761252Y-133460000D01*
X99338748Y-136180000D02*
X100761252Y-136180000D01*
X145965000Y-129285000D02*
X150085000Y-129285000D01*
X145965000Y-129340000D02*
X145965000Y-129285000D01*
X145965000Y-139405000D02*
X145965000Y-139350000D01*
X150085000Y-129285000D02*
X150085000Y-129340000D01*
X150085000Y-139350000D02*
X150085000Y-139405000D01*
X150085000Y-139405000D02*
X145965000Y-139405000D01*
X145425000Y-129335000D02*
X145185000Y-129005000D01*
X145665000Y-129005000D01*
X145425000Y-129335000D01*
G36*
X145425000Y-129335000D02*
G01*
X145185000Y-129005000D01*
X145665000Y-129005000D01*
X145425000Y-129335000D01*
G37*
X78765000Y-131765000D02*
X78765000Y-133235000D01*
X78765000Y-133235000D02*
X81050000Y-133235000D01*
X81050000Y-131765000D02*
X78765000Y-131765000D01*
X120437742Y-122217500D02*
X120912258Y-122217500D01*
X120437742Y-123262500D02*
X120912258Y-123262500D01*
X99338748Y-124960000D02*
X100761252Y-124960000D01*
X99338748Y-127680000D02*
X100761252Y-127680000D01*
X126490000Y-142850000D02*
X126490000Y-146150000D01*
X126490000Y-142850000D02*
X132000000Y-142850000D01*
X126490000Y-146150000D02*
X132000000Y-146150000D01*
X123245000Y-131930000D02*
X123245000Y-135350000D01*
X123245000Y-135350000D02*
X127365000Y-135350000D01*
X134665000Y-136430000D02*
X138805000Y-136430000D01*
X134665000Y-136730000D02*
X134665000Y-136430000D01*
X134665000Y-139570000D02*
X134665000Y-139270000D01*
X138805000Y-136430000D02*
X138805000Y-136730000D01*
X138805000Y-139270000D02*
X138805000Y-139570000D01*
X138805000Y-139570000D02*
X134665000Y-139570000D01*
X145965000Y-122660000D02*
X150085000Y-122660000D01*
X145965000Y-122755000D02*
X145965000Y-122660000D01*
X145965000Y-127780000D02*
X145965000Y-127685000D01*
X150085000Y-122660000D02*
X150085000Y-122755000D01*
X150085000Y-127685000D02*
X150085000Y-127780000D01*
X150085000Y-127780000D02*
X145965000Y-127780000D01*
X145425000Y-122750000D02*
X145185000Y-122420000D01*
X145665000Y-122420000D01*
X145425000Y-122750000D01*
G36*
X145425000Y-122750000D02*
G01*
X145185000Y-122420000D01*
X145665000Y-122420000D01*
X145425000Y-122750000D01*
G37*
X116427742Y-117197500D02*
X116902258Y-117197500D01*
X116427742Y-118242500D02*
X116902258Y-118242500D01*
X152810000Y-134970000D02*
X152810000Y-136670000D01*
X152810000Y-134970000D02*
X155470000Y-134970000D01*
X152810000Y-136670000D02*
X155470000Y-136670000D01*
X108504420Y-119720000D02*
X108785580Y-119720000D01*
X108504420Y-120740000D02*
X108785580Y-120740000D01*
X120437742Y-127237500D02*
X120912258Y-127237500D01*
X120437742Y-128282500D02*
X120912258Y-128282500D01*
X112417742Y-124727500D02*
X112892258Y-124727500D01*
X112417742Y-125772500D02*
X112892258Y-125772500D01*
X116427742Y-112177500D02*
X116902258Y-112177500D01*
X116427742Y-113222500D02*
X116902258Y-113222500D01*
X120437742Y-124727500D02*
X120912258Y-124727500D01*
X120437742Y-125772500D02*
X120912258Y-125772500D01*
%LPC*%
D13*
X74500000Y-52000000D03*
D14*
X98575000Y-113570000D03*
X101525000Y-113570000D03*
D15*
X135445000Y-114700000D03*
D16*
X136715000Y-114700000D03*
X137985000Y-114700000D03*
D17*
X137500000Y-69635000D03*
X137500000Y-70905000D03*
X137500000Y-72175000D03*
X137500000Y-73445000D03*
X137500000Y-74715000D03*
X137500000Y-75985000D03*
X137500000Y-77255000D03*
X137500000Y-78525000D03*
X137500000Y-79795000D03*
X137500000Y-81065000D03*
X137500000Y-82335000D03*
X137500000Y-83605000D03*
X137500000Y-84875000D03*
X137500000Y-86145000D03*
D18*
X140540000Y-87395000D03*
X141810000Y-87395000D03*
X143080000Y-87395000D03*
X144350000Y-87395000D03*
X145620000Y-87395000D03*
X146890000Y-87395000D03*
X148160000Y-87395000D03*
X149430000Y-87395000D03*
X150700000Y-87395000D03*
X151970000Y-87395000D03*
D17*
X155000000Y-86145000D03*
X155000000Y-84875000D03*
X155000000Y-83605000D03*
X155000000Y-82335000D03*
X155000000Y-81065000D03*
X155000000Y-79795000D03*
X155000000Y-78525000D03*
X155000000Y-77255000D03*
X155000000Y-75985000D03*
X155000000Y-74715000D03*
X155000000Y-73445000D03*
X155000000Y-72175000D03*
X155000000Y-70905000D03*
X155000000Y-69635000D03*
D19*
X144045000Y-76212500D03*
X144045000Y-77737500D03*
X144807500Y-75450000D03*
X144807500Y-76975000D03*
X144807500Y-78500000D03*
X145570000Y-76212500D03*
D20*
X145570000Y-76975000D03*
D19*
X145570000Y-77737500D03*
X146332500Y-75450000D03*
X146332500Y-76975000D03*
X146332500Y-78500000D03*
X147095000Y-76212500D03*
X147095000Y-77737500D03*
D21*
X111880000Y-112700000D03*
X113430000Y-112700000D03*
D22*
X154545000Y-117570000D03*
D23*
X154545000Y-120110000D03*
X154545000Y-122650000D03*
X154545000Y-125190000D03*
D24*
X111830000Y-127760000D03*
X113480000Y-127760000D03*
D14*
X99000000Y-130570000D03*
X101950000Y-130570000D03*
D24*
X115840000Y-115210000D03*
X117490000Y-115210000D03*
D21*
X107870000Y-115210000D03*
X109420000Y-115210000D03*
X107870000Y-132780000D03*
X109420000Y-132780000D03*
X107870000Y-117720000D03*
X109420000Y-117720000D03*
D24*
X119850000Y-120230000D03*
X121500000Y-120230000D03*
D25*
X133837500Y-96250000D03*
X133837500Y-96750000D03*
X133837500Y-97250000D03*
X133837500Y-97750000D03*
X133837500Y-98250000D03*
X133837500Y-98750000D03*
X133837500Y-99250000D03*
X133837500Y-99750000D03*
X133837500Y-100250000D03*
X133837500Y-100750000D03*
X133837500Y-101250000D03*
X133837500Y-101750000D03*
D26*
X135250000Y-103162500D03*
X135750000Y-103162500D03*
X136250000Y-103162500D03*
X136750000Y-103162500D03*
X137250000Y-103162500D03*
X137750000Y-103162500D03*
X138250000Y-103162500D03*
X138750000Y-103162500D03*
X139250000Y-103162500D03*
X139750000Y-103162500D03*
X140250000Y-103162500D03*
X140750000Y-103162500D03*
D25*
X142162500Y-101750000D03*
X142162500Y-101250000D03*
X142162500Y-100750000D03*
X142162500Y-100250000D03*
X142162500Y-99750000D03*
X142162500Y-99250000D03*
X142162500Y-98750000D03*
X142162500Y-98250000D03*
X142162500Y-97750000D03*
X142162500Y-97250000D03*
X142162500Y-96750000D03*
X142162500Y-96250000D03*
D26*
X140750000Y-94837500D03*
X140250000Y-94837500D03*
X139750000Y-94837500D03*
X139250000Y-94837500D03*
X138750000Y-94837500D03*
X138250000Y-94837500D03*
X137750000Y-94837500D03*
X137250000Y-94837500D03*
X136750000Y-94837500D03*
X136250000Y-94837500D03*
X135750000Y-94837500D03*
X135250000Y-94837500D03*
D24*
X115840000Y-130270000D03*
X117490000Y-130270000D03*
D27*
X124265000Y-113490000D03*
D28*
X124265000Y-116030000D03*
X131885000Y-116030000D03*
X131885000Y-113490000D03*
D14*
X98575000Y-117820000D03*
X101525000Y-117820000D03*
D29*
X86000000Y-64280000D03*
D30*
X86000000Y-69360000D03*
D27*
X124265000Y-120130000D03*
D28*
X124265000Y-122670000D03*
X131885000Y-122670000D03*
X131885000Y-120130000D03*
D31*
X145550000Y-116730000D03*
X145550000Y-118000000D03*
X145550000Y-119270000D03*
X145550000Y-120540000D03*
X150500000Y-120540000D03*
X150500000Y-119270000D03*
X150500000Y-118000000D03*
X150500000Y-116730000D03*
D32*
X148025000Y-118635000D03*
D21*
X107870000Y-127760000D03*
X109420000Y-127760000D03*
D15*
X135445000Y-126280000D03*
D16*
X136715000Y-126280000D03*
X137985000Y-126280000D03*
D21*
X107870000Y-112700000D03*
X109420000Y-112700000D03*
X107870000Y-122740000D03*
X109420000Y-122740000D03*
D33*
X146500000Y-110625000D03*
X149300000Y-110625000D03*
D24*
X115840000Y-132780000D03*
X117490000Y-132780000D03*
D21*
X107870000Y-125250000D03*
X109420000Y-125250000D03*
D34*
X79462500Y-124000000D03*
X81037500Y-124000000D03*
D35*
X101350000Y-98900000D03*
D36*
X103300000Y-104950000D03*
D35*
X115500000Y-104950000D03*
X115550000Y-92900000D03*
D36*
X103300000Y-92950000D03*
D37*
X153370000Y-132870000D03*
X155470000Y-132870000D03*
D35*
X101350000Y-81950000D03*
D36*
X103300000Y-88000000D03*
D35*
X115500000Y-88000000D03*
X115550000Y-75950000D03*
D36*
X103300000Y-76000000D03*
D38*
X77700000Y-107300000D03*
X83200000Y-107300000D03*
D21*
X107870000Y-130270000D03*
X109420000Y-130270000D03*
D38*
X77700000Y-115150000D03*
X83200000Y-115150000D03*
D39*
X141500000Y-144500000D03*
X145500000Y-144500000D03*
D29*
X86000000Y-76500000D03*
D30*
X86000000Y-81580000D03*
D15*
X135445000Y-120490000D03*
D16*
X136715000Y-120490000D03*
X137985000Y-120490000D03*
D24*
X119850000Y-112700000D03*
X121500000Y-112700000D03*
X119850000Y-117720000D03*
X121500000Y-117720000D03*
X111830000Y-122740000D03*
X113480000Y-122740000D03*
D13*
X74500000Y-146500000D03*
D37*
X153370000Y-129920000D03*
X155470000Y-129920000D03*
D24*
X119850000Y-115210000D03*
X121500000Y-115210000D03*
X111830000Y-130270000D03*
X113480000Y-130270000D03*
D35*
X101350000Y-65000000D03*
D36*
X103300000Y-71050000D03*
D35*
X115500000Y-71050000D03*
X115550000Y-59000000D03*
D36*
X103300000Y-59050000D03*
D21*
X111880000Y-120230000D03*
X113430000Y-120230000D03*
D27*
X124265000Y-126770000D03*
D28*
X124265000Y-129310000D03*
X131885000Y-129310000D03*
X131885000Y-126770000D03*
D40*
X113400000Y-148000000D03*
D41*
X114050000Y-149000000D03*
X114700000Y-148000000D03*
X115350000Y-149000000D03*
X116000000Y-148000000D03*
D42*
X111125000Y-148220000D03*
X118275000Y-148220000D03*
D24*
X111830000Y-132780000D03*
X113480000Y-132780000D03*
D29*
X86000000Y-88720000D03*
D30*
X86000000Y-93800000D03*
D24*
X115840000Y-120230000D03*
X117490000Y-120230000D03*
D13*
X182000000Y-52000000D03*
D21*
X111880000Y-117720000D03*
X113430000Y-117720000D03*
X111880000Y-115210000D03*
X113430000Y-115210000D03*
D43*
X134635000Y-132000000D03*
X138835000Y-132000000D03*
D44*
X174100000Y-101090000D03*
X174100000Y-89660000D03*
D45*
X167740000Y-99815000D03*
D46*
X165200000Y-98555000D03*
X167740000Y-97275000D03*
X165200000Y-96015000D03*
X167740000Y-94735000D03*
X165200000Y-93475000D03*
X167740000Y-92195000D03*
X165200000Y-90935000D03*
X179000000Y-102000000D03*
X179000000Y-99460000D03*
X179000000Y-91290000D03*
X179000000Y-88750000D03*
D36*
X171050000Y-103120000D03*
X171050000Y-87630000D03*
D14*
X98575000Y-122070000D03*
X101525000Y-122070000D03*
D47*
X170500000Y-134457500D03*
D48*
X176500000Y-134457500D03*
D49*
X173500000Y-129757500D03*
D14*
X98575000Y-134820000D03*
X101525000Y-134820000D03*
D13*
X182000000Y-146500000D03*
D31*
X145550000Y-129900000D03*
X145550000Y-131170000D03*
X145550000Y-132440000D03*
X145550000Y-133710000D03*
X145550000Y-134980000D03*
X145550000Y-136250000D03*
X145550000Y-137520000D03*
X145550000Y-138790000D03*
X150500000Y-138790000D03*
X150500000Y-137520000D03*
X150500000Y-136250000D03*
X150500000Y-134980000D03*
X150500000Y-133710000D03*
X150500000Y-132440000D03*
X150500000Y-131170000D03*
X150500000Y-129900000D03*
D34*
X79462500Y-132500000D03*
X81037500Y-132500000D03*
D24*
X119850000Y-122740000D03*
X121500000Y-122740000D03*
D14*
X98575000Y-126320000D03*
X101525000Y-126320000D03*
D39*
X128000000Y-144500000D03*
X132000000Y-144500000D03*
D50*
X124205000Y-134490000D03*
X126405000Y-134490000D03*
X126405000Y-132790000D03*
X124205000Y-132790000D03*
D43*
X134635000Y-138000000D03*
X138835000Y-138000000D03*
D31*
X145550000Y-123315000D03*
X145550000Y-124585000D03*
X145550000Y-125855000D03*
X145550000Y-127125000D03*
X150500000Y-127125000D03*
X150500000Y-125855000D03*
X150500000Y-124585000D03*
X150500000Y-123315000D03*
D32*
X148025000Y-125220000D03*
D24*
X115840000Y-117720000D03*
X117490000Y-117720000D03*
D37*
X153370000Y-135820000D03*
X155470000Y-135820000D03*
D21*
X107870000Y-120230000D03*
X109420000Y-120230000D03*
D24*
X119850000Y-127760000D03*
X121500000Y-127760000D03*
X111830000Y-125250000D03*
X113480000Y-125250000D03*
X115840000Y-112700000D03*
X117490000Y-112700000D03*
X119850000Y-125250000D03*
X121500000Y-125250000D03*
%LPD*%
M02*
